999
dxflib 3.17.0.0
  0
SECTION
  2
HEADER
  9
$ACADVER
  1
AC1015
  9
$HANDSEED
  5
FFFF
  9
$DIMADEC
 70
0
  9
$DIMASZ
 40
2.5
  9
$DIMAUNIT
 70
0
  9
$DIMAZIN
 70
2
  9
$DIMDEC
 70
4
  9
$DIMDSEP
 70
46
  9
$DIMEXE
 40
1.25
  9
$DIMEXO
 40
0.625
  9
$DIMGAP
 40
0.625
  9
$DIMLUNIT
 70
2
  9
$DIMSCALE
 40
1.0
  9
$DIMTSZ
 40
0.0
  9
$DIMTXT
 40
2.5
  9
$DIMZIN
 70
8
  9
$DWGCODEPAGE
  3
ANSI_1252
  9
$INSUNITS
 70
4
  9
$LTSCALE
 40
1.0
  9
$MAXACTVP
 70
64
  9
$MEASUREMENT
 70
1
  9
$PDMODE
 70
0
  9
$PDSIZE
 40
0.0
  0
ENDSEC
  0
SECTION
  2
TABLES
  0
TABLE
  2
VPORT
  5
8
100
AcDbSymbolTable
 70
1
  0
VPORT
  5
30
100
AcDbSymbolTableRecord
100
AcDbViewportTableRecord
  2
*Active
 70
0
 10
0.0
 20
0.0
 11
1.0
 21
1.0
 12
286.3055555555554861
 22
148.5
 13
0.0
 23
0.0
 14
10.0
 24
10.0
 15
10.0
 25
10.0
 16
0.0
 26
0.0
 36
1.0
 17
0.0
 27
0.0
 37
0.0
 40
297.0
 41
1.92798353909465
 42
50.0
 43
0.0
 44
0.0
 50
0.0
 51
0.0
 71
0
 72
100
 73
1
 74
3
 75
1
 76
1
 77
0
 78
0
281
0
 65
1
110
0.0
120
0.0
130
0.0
111
1.0
121
0.0
131
0.0
112
0.0
122
1.0
132
0.0
 79
0
146
0.0
  0
ENDTAB
  0
TABLE
  2
LTYPE
  5
5
100
AcDbSymbolTable
 70
41
  0
LTYPE
  5
16
100
AcDbSymbolTableRecord
100
AcDbLinetypeTableRecord
  2
Continuous
 70
0
  3
Solid line
 72
65
 73
0
 40
0.0
  0
LTYPE
  5
31
100
AcDbSymbolTableRecord
100
AcDbLinetypeTableRecord
  2
ACAD_ISO09W100
 70
0
  3
ISO long-dash double-short-dash ____ __ __ ____
 72
65
 73
6
 40
45.0
 49
24.0
 74
0
 49
-3.0
 74
0
 49
6.0
 74
0
 49
-3.0
 74
0
 49
6.0
 74
0
 49
-3.0
 74
0
  0
LTYPE
  5
32
100
AcDbSymbolTableRecord
100
AcDbLinetypeTableRecord
  2
DOT2
 70
0
  3
Dot (.5x) ........................................
 72
65
 73
2
 40
3.1749999999999998
 49
0.0
 74
0
 49
-3.1749999999999998
 74
0
  0
LTYPE
  5
33
100
AcDbSymbolTableRecord
100
AcDbLinetypeTableRecord
  2
CENTER
 70
0
  3
Center ____ _ ____ _ ____ _ ____ _ ____ _ ____
 72
65
 73
4
 40
50.8000000000000043
 49
31.75
 74
0
 49
-6.3499999999999996
 74
0
 49
6.3499999999999996
 74
0
 49
-6.3499999999999996
 74
0
  0
LTYPE
  5
34
100
AcDbSymbolTableRecord
100
AcDbLinetypeTableRecord
  2
ACAD_ISO12W100
 70
0
  3
ISO dash double-dot __ . . __ . . __ . . __ . . 
 72
65
 73
6
 40
21.0
 49
12.0
 74
0
 49
-3.0
 74
0
 49
0.0
 74
0
 49
-3.0
 74
0
 49
0.0
 74
0
 49
-3.0
 74
0
  0
LTYPE
  5
35
100
AcDbSymbolTableRecord
100
AcDbLinetypeTableRecord
  2
BORDER2
 70
0
  3
Border (.5x) __.__.__.__.__.__.__.__.__.__.__.
 72
65
 73
6
 40
22.2249999999999979
 49
6.3499999999999996
 74
0
 49
-3.1749999999999998
 74
0
 49
6.3499999999999996
 74
0
 49
-3.1749999999999998
 74
0
 49
0.0
 74
0
 49
-3.1749999999999998
 74
0
  0
LTYPE
  5
36
100
AcDbSymbolTableRecord
100
AcDbLinetypeTableRecord
  2
DIVIDE
 70
0
  3
Divide ____ . . ____ . . ____ . . ____ . . ____
 72
65
 73
6
 40
31.75
 49
12.6999999999999993
 74
0
 49
-6.3499999999999996
 74
0
 49
0.0
 74
0
 49
-6.3499999999999996
 74
0
 49
0.0
 74
0
 49
-6.3499999999999996
 74
0
  0
LTYPE
  5
37
100
AcDbSymbolTableRecord
100
AcDbLinetypeTableRecord
  2
PHANTOMX2
 70
0
  3
Phantom (2x) ____________    ____    ____   _
 72
65
 73
6
 40
127.0000000000000142
 49
63.5
 74
0
 49
-12.6999999999999993
 74
0
 49
12.6999999999999993
 74
0
 49
-12.6999999999999993
 74
0
 49
12.6999999999999993
 74
0
 49
-12.6999999999999993
 74
0
  0
LTYPE
  5
38
100
AcDbSymbolTableRecord
100
AcDbLinetypeTableRecord
  2
DASHDOT2
 70
0
  3
Dash dot (.5x) _._._._._._._._._._._._._._._.
 72
65
 73
4
 40
12.6999999999999993
 49
6.3499999999999996
 74
0
 49
-3.1749999999999998
 74
0
 49
0.0
 74
0
 49
-3.1749999999999998
 74
0
  0
LTYPE
  5
39
100
AcDbSymbolTableRecord
100
AcDbLinetypeTableRecord
  2
HIDDENX2
 70
0
  3
Hidden (2x) ____ ____ ____ ____ ____ ____ ____ 
 72
65
 73
2
 40
19.0499999999999972
 49
12.6999999999999993
 74
0
 49
-6.3499999999999996
 74
0
  0
LTYPE
  5
3A
100
AcDbSymbolTableRecord
100
AcDbLinetypeTableRecord
  2
DOTX2
 70
0
  3
Dot (2x) .  .  .  .  .  .  .  .  .  .  .  .  .  .
 72
65
 73
2
 40
12.6999999999999993
 49
0.0
 74
0
 49
-12.6999999999999993
 74
0
  0
LTYPE
  5
3B
100
AcDbSymbolTableRecord
100
AcDbLinetypeTableRecord
  2
ACAD_ISO10W100
 70
0
  3
ISO dash dot __ . __ . __ . __ . __ . __ . __ . 
 72
65
 73
4
 40
18.0
 49
12.0
 74
0
 49
-3.0
 74
0
 49
0.0
 74
0
 49
-3.0
 74
0
  0
LTYPE
  5
3C
100
AcDbSymbolTableRecord
100
AcDbLinetypeTableRecord
  2
ACAD_ISO06W100
 70
0
  3
ISO long-dash triple-dot ____ ... ____ ... ____
 72
65
 73
8
 40
36.0
 49
24.0
 74
0
 49
-3.0
 74
0
 49
0.0
 74
0
 49
-3.0
 74
0
 49
0.0
 74
0
 49
-3.0
 74
0
 49
0.0
 74
0
 49
-3.0
 74
0
  0
LTYPE
  5
14
100
AcDbSymbolTableRecord
100
AcDbLinetypeTableRecord
  2
BYBLOCK
 70
0
  3

 72
65
 73
0
 40
0.0
  0
LTYPE
  5
3D
100
AcDbSymbolTableRecord
100
AcDbLinetypeTableRecord
  2
DASHDOTX2
 70
0
  3
Dash dot (2x) ____  .  ____  .  ____  .  ___
 72
65
 73
4
 40
50.7999999999999972
 49
25.3999999999999986
 74
0
 49
-12.6999999999999993
 74
0
 49
0.0
 74
0
 49
-12.6999999999999993
 74
0
  0
LTYPE
  5
3E
100
AcDbSymbolTableRecord
100
AcDbLinetypeTableRecord
  2
DASHDOT
 70
0
  3
Dash dot __ . __ . __ . __ . __ . __ . __ . __
 72
65
 73
4
 40
25.3999999999999986
 49
12.6999999999999993
 74
0
 49
-6.3499999999999996
 74
0
 49
0.0
 74
0
 49
-6.3499999999999996
 74
0
  0
LTYPE
  5
3F
100
AcDbSymbolTableRecord
100
AcDbLinetypeTableRecord
  2
ACAD_ISO04W100
 70
0
  3
ISO long-dash dot ____ . ____ . ____ . ____ . _
 72
65
 73
4
 40
30.0
 49
24.0
 74
0
 49
-3.0
 74
0
 49
0.0
 74
0
 49
-3.0
 74
0
  0
LTYPE
  5
40
100
AcDbSymbolTableRecord
100
AcDbLinetypeTableRecord
  2
DASHED2
 70
0
  3
Dashed (.5x) _ _ _ _ _ _ _ _ _ _ _ _ _ _ _ _ _ 
 72
65
 73
2
 40
9.5249999999999986
 49
6.3499999999999996
 74
0
 49
-3.1749999999999998
 74
0
  0
LTYPE
  5
41
100
AcDbSymbolTableRecord
100
AcDbLinetypeTableRecord
  2
HIDDEN2
 70
0
  3
Hidden (.5x) _ _ _ _ _ _ _ _ _ _ _ _ _ _ _ _ _ 
 72
65
 73
2
 40
4.7624999999999993
 49
3.1749999999999998
 74
0
 49
-1.5874999999999999
 74
0
  0
LTYPE
  5
42
100
AcDbSymbolTableRecord
100
AcDbLinetypeTableRecord
  2
DOT
 70
0
  3
Dot . . . . . . . . . . . . . . . . . . . . . . . .
 72
65
 73
2
 40
6.3499999999999996
 49
0.0
 74
0
 49
-6.3499999999999996
 74
0
  0
LTYPE
  5
43
100
AcDbSymbolTableRecord
100
AcDbLinetypeTableRecord
  2
DIVIDE2
 70
0
  3
Divide (.5x) __..__..__..__..__..__..__..__.._
 72
65
 73
6
 40
15.875
 49
6.3499999999999996
 74
0
 49
-3.1749999999999998
 74
0
 49
0.0
 74
0
 49
-3.1749999999999998
 74
0
 49
0.0
 74
0
 49
-3.1749999999999998
 74
0
  0
LTYPE
  5
44
100
AcDbSymbolTableRecord
100
AcDbLinetypeTableRecord
  2
ACAD_ISO14W100
 70
0
  3
ISO dash triple-dot __ . . . __ . . . __ . . . _
 72
65
 73
8
 40
24.0
 49
12.0
 74
0
 49
-3.0
 74
0
 49
0.0
 74
0
 49
-3.0
 74
0
 49
0.0
 74
0
 49
-3.0
 74
0
 49
0.0
 74
0
 49
-3.0
 74
0
  0
LTYPE
  5
45
100
AcDbSymbolTableRecord
100
AcDbLinetypeTableRecord
  2
PHANTOM2
 70
0
  3
Phantom (.5x) ___ _ _ ___ _ _ ___ _ _ ___ _ _
 72
65
 73
6
 40
31.7500000000000036
 49
15.875
 74
0
 49
-3.1749999999999998
 74
0
 49
3.1749999999999998
 74
0
 49
-3.1749999999999998
 74
0
 49
3.1749999999999998
 74
0
 49
-3.1749999999999998
 74
0
  0
LTYPE
  5
46
100
AcDbSymbolTableRecord
100
AcDbLinetypeTableRecord
  2
ACAD_ISO13W100
 70
0
  3
ISO double-dash double-dot __ __ . . __ __ . . _
 72
65
 73
8
 40
36.0
 49
12.0
 74
0
 49
-3.0
 74
0
 49
12.0
 74
0
 49
-3.0
 74
0
 49
0.0
 74
0
 49
-3.0
 74
0
 49
0.0
 74
0
 49
-3.0
 74
0
  0
LTYPE
  5
47
100
AcDbSymbolTableRecord
100
AcDbLinetypeTableRecord
  2
DIVIDEX2
 70
0
  3
Divide (2x) ________  .  .  ________  .  .  _
 72
65
 73
6
 40
63.5
 49
25.3999999999999986
 74
0
 49
-12.6999999999999993
 74
0
 49
0.0
 74
0
 49
-12.6999999999999993
 74
0
 49
0.0
 74
0
 49
-12.6999999999999993
 74
0
  0
LTYPE
  5
48
100
AcDbSymbolTableRecord
100
AcDbLinetypeTableRecord
  2
ACAD_ISO03W100
 70
0
  3
ISO dash space __    __    __    __    __    __
 72
65
 73
2
 40
30.0
 49
12.0
 74
0
 49
-18.0
 74
0
  0
LTYPE
  5
49
100
AcDbSymbolTableRecord
100
AcDbLinetypeTableRecord
  2
BORDERX2
 70
0
  3
Border (2x) ____  ____  .  ____  ____  .  ___
 72
65
 73
6
 40
88.8999999999999915
 49
25.3999999999999986
 74
0
 49
-12.6999999999999993
 74
0
 49
25.3999999999999986
 74
0
 49
-12.6999999999999993
 74
0
 49
0.0
 74
0
 49
-12.6999999999999993
 74
0
  0
LTYPE
  5
4A
100
AcDbSymbolTableRecord
100
AcDbLinetypeTableRecord
  2
ACAD_ISO15W100
 70
0
  3
ISO double-dash triple-dot __ __ . . . __ __ . .
 72
65
 73
10
 40
39.0
 49
12.0
 74
0
 49
-3.0
 74
0
 49
12.0
 74
0
 49
-3.0
 74
0
 49
0.0
 74
0
 49
-3.0
 74
0
 49
0.0
 74
0
 49
-3.0
 74
0
 49
0.0
 74
0
 49
-3.0
 74
0
  0
LTYPE
  5
4B
100
AcDbSymbolTableRecord
100
AcDbLinetypeTableRecord
  2
ACAD_ISO08W100
 70
0
  3
ISO long-dash short-dash ____ __ ____ __ ____ _
 72
65
 73
4
 40
36.0
 49
24.0
 74
0
 49
-3.0
 74
0
 49
6.0
 74
0
 49
-3.0
 74
0
  0
LTYPE
  5
4C
100
AcDbSymbolTableRecord
100
AcDbLinetypeTableRecord
  2
BORDER
 70
0
  3
Border __ __ . __ __ . __ __ . __ __ . __ __ .
 72
65
 73
6
 40
44.4499999999999957
 49
12.6999999999999993
 74
0
 49
-6.3499999999999996
 74
0
 49
12.6999999999999993
 74
0
 49
-6.3499999999999996
 74
0
 49
0.0
 74
0
 49
-6.3499999999999996
 74
0
  0
LTYPE
  5
4D
100
AcDbSymbolTableRecord
100
AcDbLinetypeTableRecord
  2
DASHEDX2
 70
0
  3
Dashed (2x) ____  ____  ____  ____  ____  ___
 72
65
 73
2
 40
38.0999999999999943
 49
25.3999999999999986
 74
0
 49
-12.6999999999999993
 74
0
  0
LTYPE
  5
4E
100
AcDbSymbolTableRecord
100
AcDbLinetypeTableRecord
  2
ACAD_ISO11W100
 70
0
  3
ISO double-dash dot __ __ . __ __ . __ __ . __ _
 72
65
 73
6
 40
33.0
 49
12.0
 74
0
 49
-3.0
 74
0
 49
12.0
 74
0
 49
-3.0
 74
0
 49
0.0
 74
0
 49
-3.0
 74
0
  0
LTYPE
  5
4F
100
AcDbSymbolTableRecord
100
AcDbLinetypeTableRecord
  2
DASHED
 70
0
  3
Dashed __ __ __ __ __ __ __ __ __ __ __ __ __ _
 72
65
 73
2
 40
19.0499999999999972
 49
12.6999999999999993
 74
0
 49
-6.3499999999999996
 74
0
  0
LTYPE
  5
50
100
AcDbSymbolTableRecord
100
AcDbLinetypeTableRecord
  2
CENTERX2
 70
0
  3
Center (2x) ________  __  ________  __  _____
 72
65
 73
4
 40
101.6000000000000085
 49
63.5
 74
0
 49
-12.6999999999999993
 74
0
 49
12.6999999999999993
 74
0
 49
-12.6999999999999993
 74
0
  0
LTYPE
  5
51
100
AcDbSymbolTableRecord
100
AcDbLinetypeTableRecord
  2
CENTER2
 70
0
  3
Center (.5x) ___ _ ___ _ ___ _ ___ _ ___ _ ___
 72
65
 73
4
 40
28.5750000000000028
 49
19.0500000000000007
 74
0
 49
-3.1749999999999998
 74
0
 49
3.1749999999999998
 74
0
 49
-3.1749999999999998
 74
0
  0
LTYPE
  5
52
100
AcDbSymbolTableRecord
100
AcDbLinetypeTableRecord
  2
ACAD_ISO07W100
 70
0
  3
ISO dot . . . . . . . . . . . . . . . . . . . . 
 72
65
 73
2
 40
3.0
 49
0.0
 74
0
 49
-3.0
 74
0
  0
LTYPE
  5
15
100
AcDbSymbolTableRecord
100
AcDbLinetypeTableRecord
  2
BYLAYER
 70
0
  3

 72
65
 73
0
 40
0.0
  0
LTYPE
  5
53
100
AcDbSymbolTableRecord
100
AcDbLinetypeTableRecord
  2
HIDDEN
 70
0
  3
Hidden __ __ __ __ __ __ __ __ __ __ __ __ __ __
 72
65
 73
2
 40
9.5249999999999986
 49
6.3499999999999996
 74
0
 49
-3.1749999999999998
 74
0
  0
LTYPE
  5
54
100
AcDbSymbolTableRecord
100
AcDbLinetypeTableRecord
  2
ACAD_ISO05W100
 70
0
  3
ISO long-dash double-dot ____ .. ____ .. ____ . 
 72
65
 73
6
 40
33.0
 49
24.0
 74
0
 49
-3.0
 74
0
 49
0.0
 74
0
 49
-3.0
 74
0
 49
0.0
 74
0
 49
-3.0
 74
0
  0
LTYPE
  5
55
100
AcDbSymbolTableRecord
100
AcDbLinetypeTableRecord
  2
ACAD_ISO02W100
 70
0
  3
ISO dash __ __ __ __ __ __ __ __ __ __ __ __ __
 72
65
 73
2
 40
15.0
 49
12.0
 74
0
 49
-3.0
 74
0
  0
LTYPE
  5
56
100
AcDbSymbolTableRecord
100
AcDbLinetypeTableRecord
  2
PHANTOM
 70
0
  3
Phantom ______  __  __  ______  __  __  ______ 
 72
65
 73
6
 40
63.5000000000000071
 49
31.75
 74
0
 49
-6.3499999999999996
 74
0
 49
6.3499999999999996
 74
0
 49
-6.3499999999999996
 74
0
 49
6.3499999999999996
 74
0
 49
-6.3499999999999996
 74
0
  0
ENDTAB
  0
TABLE
  2
LAYER
  5
2
100
AcDbSymbolTable
 70
1
  0
LAYER
  5
10
100
AcDbSymbolTableRecord
100
AcDbLayerTableRecord
  2
0
 70
0
 62
7
420
16777215
  6
Continuous
370
25
390
F
  0
ENDTAB
  0
TABLE
  2
STYLE
  5
3
100
AcDbSymbolTable
 70
1
  0
STYLE
  5
57
100
AcDbSymbolTableRecord
100
AcDbTextStyleTableRecord
  2
Standard
 70
0
 40
0.0
 41
1.0
 50
0.0
 71
0
 42
2.5
  3

  4

1001
ACAD
1000
txt
1071
0
  0
ENDTAB
  0
TABLE
  2
VIEW
  5
6
100
AcDbSymbolTable
 70
0
  0
ENDTAB
  0
TABLE
  2
UCS
  5
7
100
AcDbSymbolTable
 70
0
  0
ENDTAB
  0
TABLE
  2
APPID
  5
9
100
AcDbSymbolTable
 70
1
  0
APPID
  5
12
100
AcDbSymbolTableRecord
100
AcDbRegAppTableRecord
  2
ACAD
 70
0
  0
APPID
  5
58
100
AcDbSymbolTableRecord
100
AcDbRegAppTableRecord
  2
QCAD
 70
0
  0
ENDTAB
  0
TABLE
  2
DIMSTYLE
  5
A
100
AcDbSymbolTable
 70
1
100
AcDbDimStyleTable
 71
0
  0
DIMSTYLE
105
27
100
AcDbSymbolTableRecord
100
AcDbDimStyleTableRecord
  2
Standard
 41
2.5
 42
0.625
 43
3.75
 44
1.25
 70
0
 73
0
 74
0
 77
1
 78
8
140
2.5
141
2.5
143
0.03937007874016
147
0.625
171
3
172
1
271
2
272
2
274
3
278
44
283
0
284
8
340
57
  0
ENDTAB
  0
TABLE
  2
BLOCK_RECORD
  5
1
100
AcDbSymbolTable
 70
1
  0
BLOCK_RECORD
  5
1F
100
AcDbSymbolTableRecord
100
AcDbBlockTableRecord
  2
*Model_Space
340
22
  0
BLOCK_RECORD
  5
1B
100
AcDbSymbolTableRecord
100
AcDbBlockTableRecord
  2
*Paper_Space
340
1E
  0
BLOCK_RECORD
  5
23
100
AcDbSymbolTableRecord
100
AcDbBlockTableRecord
  2
*Paper_Space0
340
26
  0
ENDTAB
  0
ENDSEC
  0
SECTION
  2
BLOCKS
  0
BLOCK
  5
20
100
AcDbEntity
  8
0
100
AcDbBlockBegin
  2
*Model_Space
 70
0
 10
0.0
 20
0.0
 30
0.0
  3
*Model_Space
  1

  0
ENDBLK
  5
21
100
AcDbEntity
  8
0
100
AcDbBlockEnd
  0
BLOCK
  5
1C
100
AcDbEntity
 67
1
  8
0
100
AcDbBlockBegin
  2
*Paper_Space
 70
0
 10
0.0
 20
0.0
 30
0.0
  3
*Paper_Space
  1

  0
ENDBLK
  5
1D
100
AcDbEntity
 67
1
  8
0
100
AcDbBlockEnd
  0
BLOCK
  5
24
100
AcDbEntity
  8
0
100
AcDbBlockBegin
  2
*Paper_Space0
 70
0
 10
0.0
 20
0.0
 30
0.0
  3
*Paper_Space0
  1

  0
ENDBLK
  5
25
100
AcDbEntity
  8
0
100
AcDbBlockEnd
  0
ENDSEC
  0
SECTION
  2
ENTITIES
  0
LINE
  5
59
100
AcDbEntity
  8
0
 62
7
420
0
370
-1
 48
1.0
  6
BYLAYER
100
AcDbLine
 10
0.0076199943555974
 20
0.0076199943555974
 30
0.0
 11
-0.0076199943555974
 21
-0.0076199943555974
 31
0.0
  0
LINE
  5
5A
100
AcDbEntity
  8
0
 62
7
420
0
370
-1
 48
1.0
  6
BYLAYER
100
AcDbLine
 10
0.0
 20
0.0126999905926623
 30
0.0
 11
0.0
 21
-0.0126999905926623
 31
0.0
  0
LINE
  5
5B
100
AcDbEntity
  8
0
 62
7
420
0
370
-1
 48
1.0
  6
BYLAYER
100
AcDbLine
 10
-0.5759995643365005
 20
-3.2351976355732837
 30
0.0
 11
-0.5759995643365005
 21
-2.4671981656579871
 31
0.0
  0
ARC
  5
5C
100
AcDbEntity
  8
0
 62
7
420
0
370
-1
 48
1.0
  6
BYLAYER
100
AcDbCircle
 10
-0.5279995993718901
 20
-3.2351975390533592
 30
0.0
 40
0.0479999649647074
100
AcDbArc
 50
180.0001152120006225
 51
269.9999757449027129
  0
ARC
  5
5D
100
AcDbEntity
  8
0
 62
7
420
0
370
-1
 48
1.0
  6
BYLAYER
100
AcDbCircle
 10
-0.5279995993717973
 20
-2.4671981859779679
 30
0.0
 40
0.0479999649647075
100
AcDbArc
 50
90.0000242688069108
 51
179.9999757311931319
  0
LINE
  5
5E
100
AcDbEntity
  8
0
 62
7
420
0
370
-1
 48
1.0
  6
BYLAYER
100
AcDbLine
 10
0.527999619691778
 20
-3.2831975040180623
 30
0.0
 11
-0.527999619691778
 21
-3.2831975040180623
 31
0.0
  0
LINE
  5
5F
100
AcDbEntity
  8
0
 62
7
420
0
370
-1
 48
1.0
  6
BYLAYER
100
AcDbLine
 10
-0.527999619691778
 20
-2.4191982210132648
 30
0.0
 11
0.527999619691778
 21
-2.4191982210132648
 31
0.0
  0
ARC
  5
60
100
AcDbEntity
  8
0
 62
7
420
0
370
-1
 48
1.0
  6
BYLAYER
100
AcDbCircle
 10
0.5279995993718901
 20
-3.2351975390533592
 30
0.0
 40
0.0479999649647074
100
AcDbArc
 50
270.0000242550972871
 51
359.9998847879994059
  0
ARC
  5
61
100
AcDbEntity
  8
0
 62
7
420
0
370
-1
 48
1.0
  6
BYLAYER
100
AcDbCircle
 10
0.5279995993717974
 20
-2.4671981859779679
 30
0.0
 40
0.0479999649647075
100
AcDbArc
 50
359.9999757311931035
 51
89.9999757311931745
  0
LINE
  5
62
100
AcDbEntity
  8
0
 62
7
420
0
370
-1
 48
1.0
  6
BYLAYER
100
AcDbLine
 10
0.5759995643365005
 20
-2.4671981656579871
 30
0.0
 11
0.5759995643365005
 21
-3.2351976355732837
 31
0.0
  0
ARC
  5
63
100
AcDbEntity
  8
0
 62
7
420
0
370
-1
 48
1.0
  6
BYLAYER
100
AcDbCircle
 10
0.5279996069917874
 20
-2.4671831067464485
 30
0.0
 40
0.0148799896978589
100
AcDbArc
 50
359.9420152674823044
 51
180.0579847325176956
  0
ARC
  5
64
100
AcDbEntity
  8
0
 62
7
420
0
370
-1
 48
1.0
  6
BYLAYER
100
AcDbCircle
 10
0.5279996069917874
 20
-2.4672132245695253
 30
0.0
 40
0.0148799896978589
100
AcDbArc
 50
179.9420152674823044
 51
0.0579847325176939
  0
LINE
  5
65
100
AcDbEntity
  8
0
 62
7
420
0
370
-1
 48
1.0
  6
BYLAYER
100
AcDbLine
 10
-0.4799996496470744
 20
-2.5151981357026907
 30
0.0
 11
0.4799996496470744
 21
-2.5151981357026907
 31
0.0
  0
LINE
  5
66
100
AcDbEntity
  8
0
 62
7
420
0
370
-1
 48
1.0
  6
BYLAYER
100
AcDbLine
 10
0.4799996496470744
 20
-2.5151981357026907
 30
0.0
 11
0.4799996496470744
 21
-3.1871977671285046
 31
0.0
  0
LINE
  5
67
100
AcDbEntity
  8
0
 62
7
420
0
370
-1
 48
1.0
  6
BYLAYER
100
AcDbLine
 10
0.4799996496470744
 20
-3.1871977671285046
 30
0.0
 11
-0.4799996496470744
 21
-3.1871977671285046
 31
0.0
  0
LINE
  5
68
100
AcDbEntity
  8
0
 62
7
420
0
370
-1
 48
1.0
  6
BYLAYER
100
AcDbLine
 10
-0.4799996496470744
 20
-3.1871977671285046
 30
0.0
 11
-0.4799996496470744
 21
-2.5151981357026907
 31
0.0
  0
ARC
  5
69
100
AcDbEntity
  8
0
 62
7
420
0
370
-1
 48
1.0
  6
BYLAYER
100
AcDbCircle
 10
-0.5279996069917874
 20
-2.4671831067464485
 30
0.0
 40
0.0148799896978589
100
AcDbArc
 50
359.9420152674823044
 51
180.0579847325176956
  0
ARC
  5
6A
100
AcDbEntity
  8
0
 62
7
420
0
370
-1
 48
1.0
  6
BYLAYER
100
AcDbCircle
 10
-0.5279996069917874
 20
-2.4672132245695253
 30
0.0
 40
0.0148799896978589
100
AcDbArc
 50
179.9420152674823044
 51
0.0579847325176939
  0
ARC
  5
6B
100
AcDbEntity
  8
0
 62
7
420
0
370
-1
 48
1.0
  6
BYLAYER
100
AcDbCircle
 10
0.5279996069917874
 20
-3.235182576661745
 30
0.0
 40
0.0148799896978589
100
AcDbArc
 50
359.9420152674823044
 51
180.0579847325176956
  0
ARC
  5
6C
100
AcDbEntity
  8
0
 62
7
420
0
370
-1
 48
1.0
  6
BYLAYER
100
AcDbCircle
 10
0.5279996069917874
 20
-3.2352126944848218
 30
0.0
 40
0.0148799896978589
100
AcDbArc
 50
179.9420152674823044
 51
0.0579847325176939
  0
ARC
  5
6D
100
AcDbEntity
  8
0
 62
7
420
0
370
-1
 48
1.0
  6
BYLAYER
100
AcDbCircle
 10
-0.5279996069917874
 20
-3.235182576661745
 30
0.0
 40
0.0148799896978589
100
AcDbArc
 50
359.9420152674823044
 51
180.0579847325176956
  0
ARC
  5
6E
100
AcDbEntity
  8
0
 62
7
420
0
370
-1
 48
1.0
  6
BYLAYER
100
AcDbCircle
 10
-0.5279996069917874
 20
-3.2352126944848218
 30
0.0
 40
0.0148799896978589
100
AcDbArc
 50
179.9420152674823044
 51
0.0579847325176939
  0
LINE
  5
6F
100
AcDbEntity
  8
0
 62
7
420
0
370
-1
 48
1.0
  6
BYLAYER
100
AcDbLine
 10
0.0076199943555974
 20
0.0076199943555974
 30
0.0
 11
-0.0076199943555974
 21
-0.0076199943555974
 31
0.0
  0
LINE
  5
70
100
AcDbEntity
  8
0
 62
7
420
0
370
-1
 48
1.0
  6
BYLAYER
100
AcDbLine
 10
0.0
 20
0.0126999905926623
 30
0.0
 11
0.0
 21
-0.0126999905926623
 31
0.0
  0
LINE
  5
71
100
AcDbEntity
  8
0
 62
7
420
0
370
-1
 48
1.0
  6
BYLAYER
100
AcDbLine
 10
23.3961877059061329
 20
-180.9778680555736514
 30
0.0
 11
23.3961877059061329
 21
-100.9787994256079884
 31
0.0
  0
ARC
  5
72
100
AcDbEntity
  8
0
 62
7
420
0
370
-1
 48
1.0
  6
BYLAYER
100
AcDbCircle
 10
28.397401992203843
 20
-180.9776321091683826
 30
0.0
 40
5.0012142918633744
100
AcDbArc
 50
180.0027030901065359
 51
269.9811276480385231
  0
ARC
  5
73
100
AcDbEntity
  8
0
 62
7
420
0
370
-1
 48
1.0
  6
BYLAYER
100
AcDbCircle
 10
28.396197083601475
 20
-100.9792418403416718
 30
0.0
 40
5.000009397268391
100
AcDbArc
 50
90.0050696898842801
 51
179.9949303100596012
  0
LINE
  5
74
100
AcDbEntity
  8
0
 62
7
420
0
370
-1
 48
1.0
  6
BYLAYER
100
AcDbLine
 10
138.396458410188302
 20
-185.9788461297301865
 30
0.0
 11
28.3957546688678804
 21
-185.9788461297301865
 31
0.0
  0
LINE
  5
75
100
AcDbEntity
  8
0
 62
7
420
0
370
-1
 48
1.0
  6
BYLAYER
100
AcDbLine
 10
28.3957546688678804
 20
-95.9792324626462232
 30
0.0
 11
138.396458410188302
 21
-95.9792324626462232
 31
0.0
  0
ARC
  5
76
100
AcDbEntity
  8
0
 62
7
420
0
370
-1
 48
1.0
  6
BYLAYER
100
AcDbCircle
 10
138.3957148284204095
 20
-180.9785355957302784
 30
0.0
 40
5.0003105892879143
100
AcDbArc
 50
270.0085202901760226
 51
0.0076489716347341
  0
ARC
  5
77
100
AcDbEntity
  8
0
 62
7
420
0
370
-1
 48
1.0
  6
BYLAYER
100
AcDbCircle
 10
138.3969193016739325
 20
-100.9783385341224289
 30
0.0
 40
4.9991060927220845
100
AcDbArc
 50
359.9947176282080932
 51
90.0052823717855404
  0
LINE
  5
78
100
AcDbEntity
  8
0
 62
7
420
0
370
-1
 48
1.0
  6
BYLAYER
100
AcDbLine
 10
143.3960253731500814
 20
-100.9787994256079884
 30
0.0
 11
143.3960253731500814
 21
-180.9778680555736514
 31
0.0
  0
ARC
  5
79
100
AcDbEntity
  8
0
 62
7
420
0
370
-1
 48
1.0
  6
BYLAYER
100
AcDbCircle
 10
138.3958231955716371
 20
-100.9790817580288405
 30
0.0
 40
1.5507408877391167
100
AcDbArc
 50
0.0104314372056756
 51
89.9765304971808746
  0
ARC
  5
7A
100
AcDbEntity
  8
0
 62
7
420
0
370
-1
 48
1.0
  6
BYLAYER
100
AcDbCircle
 10
138.3970419986055447
 20
-100.9793830140252311
 30
0.0
 40
1.5510421234264091
100
AcDbArc
 50
90.0215578633002877
 51
179.9784421366903473
  0
ARC
  5
7B
100
AcDbEntity
  8
0
 62
7
420
0
370
-1
 48
1.0
  6
BYLAYER
100
AcDbCircle
 10
138.3969667654406237
 20
-100.9779381367208231
 30
0.0
 40
1.5509670196193794
100
AcDbArc
 50
180.0318177112003184
 51
269.9812203543957594
  0
ARC
  5
7C
100
AcDbEntity
  8
0
 62
7
420
0
370
-1
 48
1.0
  6
BYLAYER
100
AcDbCircle
 10
138.395898465124219
 20
-100.9782394805438202
 30
0.0
 40
1.5506656935833938
100
AcDbArc
 50
270.0206894946872467
 51
359.9793105053199724
  0
LINE
  5
7D
100
AcDbEntity
  8
0
 62
7
420
0
370
-1
 48
1.0
  6
BYLAYER
100
AcDbLine
 10
33.3967327430243799
 20
-105.9783663885697536
 30
0.0
 11
133.3968914472265794
 21
-105.9783663885697536
 31
0.0
  0
LINE
  5
7E
100
AcDbEntity
  8
0
 62
7
420
0
370
-1
 48
1.0
  6
BYLAYER
100
AcDbLine
 10
133.3968914472265794
 20
-105.9783663885697536
 30
0.0
 11
133.3968914472265794
 21
-175.9783010926119857
 31
0.0
  0
LINE
  5
7F
100
AcDbEntity
  8
0
 62
7
420
0
370
-1
 48
1.0
  6
BYLAYER
100
AcDbLine
 10
133.3968914472265794
 20
-175.9783010926119857
 30
0.0
 11
33.3967327430243799
 21
-175.9783010926119857
 31
0.0
  0
LINE
  5
80
100
AcDbEntity
  8
0
 62
7
420
0
370
-1
 48
1.0
  6
BYLAYER
100
AcDbLine
 10
33.3967327430243799
 20
-175.9783010926119857
 30
0.0
 11
33.3967327430243799
 21
-105.9783663885697536
 31
0.0
  0
ARC
  5
81
100
AcDbEntity
  8
0
 62
7
420
0
370
-1
 48
1.0
  6
BYLAYER
100
AcDbCircle
 10
28.3960747188251155
 20
-100.9784793756507639
 30
0.0
 40
1.5501384083023229
100
AcDbArc
 50
359.9881704035757366
 51
90.0118295965156108
  0
ARC
  5
82
100
AcDbEntity
  8
0
 62
7
420
0
370
-1
 48
1.0
  6
BYLAYER
100
AcDbCircle
 10
28.3959187617516307
 20
-100.9772004461667763
 30
0.0
 40
1.5488594544711236
100
AcDbArc
 50
90.0060701632321667
 51
180.0591498405572395
  0
ARC
  5
83
100
AcDbEntity
  8
0
 62
7
420
0
370
-1
 48
1.0
  6
BYLAYER
100
AcDbCircle
 10
28.3958433307349978
 20
-100.9801213133573157
 30
0.0
 40
1.5487837622097067
100
AcDbArc
 50
179.951098016340552
 51
269.9967200387054618
  0
ARC
  5
84
100
AcDbEntity
  8
0
 62
7
420
0
370
-1
 48
1.0
  6
BYLAYER
100
AcDbCircle
 10
28.3961499734084342
 20
-100.9788420021713478
 30
0.0
 40
1.5500631212641274
100
AcDbArc
 50
269.9853881550170627
 51
0.0015737792830335
  0
ARC
  5
85
100
AcDbEntity
  8
0
 62
7
420
0
370
-1
 48
1.0
  6
BYLAYER
100
AcDbCircle
 10
138.3961244515680278
 20
-180.9782020141939824
 30
0.0
 40
1.5504396420082671
100
AcDbArc
 50
0.0123412863266341
 51
89.9876587136292017
  0
ARC
  5
86
100
AcDbEntity
  8
0
 62
7
420
0
370
-1
 48
1.0
  6
BYLAYER
100
AcDbCircle
 10
138.3967407426092393
 20
-180.978503270190572
 30
0.0
 40
1.5507408877392179
100
AcDbArc
 50
90.0104314372286325
 51
179.9765304971349735
  0
ARC
  5
87
100
AcDbEntity
  8
0
 62
7
420
0
370
-1
 48
1.0
  6
BYLAYER
100
AcDbCircle
 10
138.3973433301047464
 20
-180.9783944099475548
 30
0.0
 40
1.5513434344295713
100
AcDbArc
 50
179.9805601493593201
 51
269.9673172438527899
  0
ARC
  5
88
100
AcDbEntity
  8
0
 62
7
420
0
370
-1
 48
1.0
  6
BYLAYER
100
AcDbCircle
 10
138.3955217186386051
 20
-180.9786953152439821
 30
0.0
 40
1.5510425595834354
100
AcDbArc
 50
270.0346015494127414
 51
0.0305591162605006
  0
ARC
  5
89
100
AcDbEntity
  8
0
 62
7
420
0
370
-1
 48
1.0
  6
BYLAYER
100
AcDbCircle
 10
28.3963756239682539
 20
-180.977599777096259
 30
0.0
 40
1.5498374933391987
100
AcDbArc
 50
359.9900820411260725
 51
90.0229560245016103
  0
ARC
  5
8A
100
AcDbEntity
  8
0
 62
7
420
0
370
-1
 48
1.0
  6
BYLAYER
100
AcDbCircle
 10
28.3956177689351854
 20
-180.9763208113606652
 30
0.0
 40
1.5485584092595721
100
AcDbArc
 50
89.9949347804223549
 51
180.0572471645270696
  0
ARC
  5
8B
100
AcDbEntity
  8
0
 62
7
420
0
370
-1
 48
1.0
  6
BYLAYER
100
AcDbCircle
 10
28.3962208835148004
 20
-180.9805745470550846
 30
0.0
 40
1.5491631150860097
100
AcDbArc
 50
179.899900393610892
 51
269.9827570565299766
  0
ARC
  5
8C
100
AcDbEntity
  8
0
 62
7
420
0
370
-1
 48
1.0
  6
BYLAYER
100
AcDbCircle
 10
28.3957733023998564
 20
-180.9792971417969909
 30
0.0
 40
1.5504404503033546
100
AcDbArc
 50
269.9993114068074078
 51
0.0528112000317936
  0
CIRCLE
  5
8D
100
AcDbEntity
  8
0
 62
54
420
8684544
370
-1
 48
1.0
  6
BYLAYER
100
AcDbCircle
 10
38.479381456944509
 20
-98.8853078481121486
 30
0.0
 40
1.6507981679946984
  0
CIRCLE
  5
8E
100
AcDbEntity
  8
0
 62
54
420
8684544
370
-1
 48
1.0
  6
BYLAYER
100
AcDbCircle
 10
37.97138183323802
 20
-139.2712779327781902
 30
0.0
 40
0.9397993038570085
  0
CIRCLE
  5
8F
100
AcDbEntity
  8
0
 62
54
420
8684544
370
-1
 48
1.0
  6
BYLAYER
100
AcDbCircle
 10
40.511379951770472
 20
-139.2712779327781902
 30
0.0
 40
0.9397993038570085
  0
CIRCLE
  5
90
100
AcDbEntity
  8
0
 62
54
420
8684544
370
-1
 48
1.0
  6
BYLAYER
100
AcDbCircle
 10
43.0513780703029241
 20
-139.2712779327781902
 30
0.0
 40
0.9397993038570085
  0
CIRCLE
  5
91
100
AcDbEntity
  8
0
 62
54
420
8684544
370
-1
 48
1.0
  6
BYLAYER
100
AcDbCircle
 10
45.5913761888353832
 20
-139.2712779327781902
 30
0.0
 40
0.9397993038570085
  0
CIRCLE
  5
92
100
AcDbEntity
  8
0
 62
54
420
8684544
370
-1
 48
1.0
  6
BYLAYER
100
AcDbCircle
 10
48.1313743073678353
 20
-139.2712779327781902
 30
0.0
 40
0.9397993038570085
  0
CIRCLE
  5
93
100
AcDbEntity
  8
0
 62
54
420
8684544
370
-1
 48
1.0
  6
BYLAYER
100
AcDbCircle
 10
50.6713724259002944
 20
-139.2712779327781902
 30
0.0
 40
0.9397993038570085
  0
CIRCLE
  5
94
100
AcDbEntity
  8
0
 62
54
420
8684544
370
-1
 48
1.0
  6
BYLAYER
100
AcDbCircle
 10
53.2113705444327465
 20
-139.2712779327781902
 30
0.0
 40
0.9397993038570085
  0
CIRCLE
  5
95
100
AcDbEntity
  8
0
 62
54
420
8684544
370
-1
 48
1.0
  6
BYLAYER
100
AcDbCircle
 10
55.7513686629652057
 20
-139.2712779327781902
 30
0.0
 40
0.9397993038570085
  0
CIRCLE
  5
96
100
AcDbEntity
  8
0
 62
54
420
8684544
370
-1
 48
1.0
  6
BYLAYER
100
AcDbCircle
 10
58.2913667814976577
 20
-139.2712779327781902
 30
0.0
 40
0.9397993038570085
  0
CIRCLE
  5
97
100
AcDbEntity
  8
0
 62
54
420
8684544
370
-1
 48
1.0
  6
BYLAYER
100
AcDbCircle
 10
60.8313649000301169
 20
-139.2712779327781902
 30
0.0
 40
0.9397993038570085
  0
CIRCLE
  5
98
100
AcDbEntity
  8
0
 62
54
420
8684544
370
-1
 48
1.0
  6
BYLAYER
100
AcDbCircle
 10
63.3713630185625689
 20
-139.2712779327781902
 30
0.0
 40
0.9397993038570085
  0
CIRCLE
  5
99
100
AcDbEntity
  8
0
 62
54
420
8684544
370
-1
 48
1.0
  6
BYLAYER
100
AcDbCircle
 10
65.9113611370950281
 20
-139.2712779327781902
 30
0.0
 40
0.9397993038570085
  0
CIRCLE
  5
9A
100
AcDbEntity
  8
0
 62
54
420
8684544
370
-1
 48
1.0
  6
BYLAYER
100
AcDbCircle
 10
38.479381456944509
 20
-98.8853078481121486
 30
0.0
 40
1.5999982056240489
  0
CIRCLE
  5
9B
100
AcDbEntity
  8
0
 62
54
420
8684544
370
-1
 48
1.0
  6
BYLAYER
100
AcDbCircle
 10
37.97138183323802
 20
-139.2712779327781902
 30
0.0
 40
0.8889993414863594
  0
CIRCLE
  5
9C
100
AcDbEntity
  8
0
 62
54
420
8684544
370
-1
 48
1.0
  6
BYLAYER
100
AcDbCircle
 10
40.511379951770472
 20
-139.2712779327781902
 30
0.0
 40
0.8889993414863594
  0
CIRCLE
  5
9D
100
AcDbEntity
  8
0
 62
54
420
8684544
370
-1
 48
1.0
  6
BYLAYER
100
AcDbCircle
 10
43.0513780703029241
 20
-139.2712779327781902
 30
0.0
 40
0.8889993414863594
  0
CIRCLE
  5
9E
100
AcDbEntity
  8
0
 62
54
420
8684544
370
-1
 48
1.0
  6
BYLAYER
100
AcDbCircle
 10
45.5913761888353832
 20
-139.2712779327781902
 30
0.0
 40
0.8889993414863594
  0
CIRCLE
  5
9F
100
AcDbEntity
  8
0
 62
54
420
8684544
370
-1
 48
1.0
  6
BYLAYER
100
AcDbCircle
 10
48.1313743073678353
 20
-139.2712779327781902
 30
0.0
 40
0.8889993414863594
  0
CIRCLE
  5
A0
100
AcDbEntity
  8
0
 62
54
420
8684544
370
-1
 48
1.0
  6
BYLAYER
100
AcDbCircle
 10
50.6713724259002944
 20
-139.2712779327781902
 30
0.0
 40
0.8889993414863594
  0
CIRCLE
  5
A1
100
AcDbEntity
  8
0
 62
54
420
8684544
370
-1
 48
1.0
  6
BYLAYER
100
AcDbCircle
 10
53.2113705444327465
 20
-139.2712779327781902
 30
0.0
 40
0.8889993414863594
  0
CIRCLE
  5
A2
100
AcDbEntity
  8
0
 62
54
420
8684544
370
-1
 48
1.0
  6
BYLAYER
100
AcDbCircle
 10
55.7513686629652057
 20
-139.2712779327781902
 30
0.0
 40
0.8889993414863594
  0
CIRCLE
  5
A3
100
AcDbEntity
  8
0
 62
54
420
8684544
370
-1
 48
1.0
  6
BYLAYER
100
AcDbCircle
 10
58.2913667814976577
 20
-139.2712779327781902
 30
0.0
 40
0.8889993414863594
  0
CIRCLE
  5
A4
100
AcDbEntity
  8
0
 62
54
420
8684544
370
-1
 48
1.0
  6
BYLAYER
100
AcDbCircle
 10
60.8313649000301169
 20
-139.2712779327781902
 30
0.0
 40
0.8889993414863594
  0
CIRCLE
  5
A5
100
AcDbEntity
  8
0
 62
54
420
8684544
370
-1
 48
1.0
  6
BYLAYER
100
AcDbCircle
 10
63.3713630185625689
 20
-139.2712779327781902
 30
0.0
 40
0.8889993414863594
  0
CIRCLE
  5
A6
100
AcDbEntity
  8
0
 62
54
420
8684544
370
-1
 48
1.0
  6
BYLAYER
100
AcDbCircle
 10
65.9113611370950281
 20
-139.2712779327781902
 30
0.0
 40
0.8889993414863594
  0
CIRCLE
  5
A7
100
AcDbEntity
  8
0
 62
7
420
16777215
370
-1
 48
1.0
  6
BYLAYER
100
AcDbCircle
 10
38.479381456944509
 20
-98.8853078481121486
 30
0.0
 40
1.2499991394808843
  0
CIRCLE
  5
A8
100
AcDbEntity
  8
0
 62
7
420
16777215
370
-1
 48
1.0
  6
BYLAYER
100
AcDbCircle
 10
37.97138183323802
 20
-139.2712779327781902
 30
0.0
 40
0.5079996237064911
  0
CIRCLE
  5
A9
100
AcDbEntity
  8
0
 62
7
420
16777215
370
-1
 48
1.0
  6
BYLAYER
100
AcDbCircle
 10
40.511379951770472
 20
-139.2712779327781902
 30
0.0
 40
0.5079996237064911
  0
CIRCLE
  5
AA
100
AcDbEntity
  8
0
 62
7
420
16777215
370
-1
 48
1.0
  6
BYLAYER
100
AcDbCircle
 10
43.0513780703029241
 20
-139.2712779327781902
 30
0.0
 40
0.5079996237064911
  0
CIRCLE
  5
AB
100
AcDbEntity
  8
0
 62
7
420
16777215
370
-1
 48
1.0
  6
BYLAYER
100
AcDbCircle
 10
45.5913761888353832
 20
-139.2712779327781902
 30
0.0
 40
0.5079996237064911
  0
CIRCLE
  5
AC
100
AcDbEntity
  8
0
 62
7
420
16777215
370
-1
 48
1.0
  6
BYLAYER
100
AcDbCircle
 10
48.1313743073678353
 20
-139.2712779327781902
 30
0.0
 40
0.5079996237064911
  0
CIRCLE
  5
AD
100
AcDbEntity
  8
0
 62
7
420
16777215
370
-1
 48
1.0
  6
BYLAYER
100
AcDbCircle
 10
50.6713724259002944
 20
-139.2712779327781902
 30
0.0
 40
0.5079996237064911
  0
CIRCLE
  5
AE
100
AcDbEntity
  8
0
 62
7
420
16777215
370
-1
 48
1.0
  6
BYLAYER
100
AcDbCircle
 10
53.2113705444327465
 20
-139.2712779327781902
 30
0.0
 40
0.5079996237064911
  0
CIRCLE
  5
AF
100
AcDbEntity
  8
0
 62
7
420
16777215
370
-1
 48
1.0
  6
BYLAYER
100
AcDbCircle
 10
55.7513686629652057
 20
-139.2712779327781902
 30
0.0
 40
0.5079996237064911
  0
CIRCLE
  5
B0
100
AcDbEntity
  8
0
 62
7
420
16777215
370
-1
 48
1.0
  6
BYLAYER
100
AcDbCircle
 10
58.2913667814976577
 20
-139.2712779327781902
 30
0.0
 40
0.5079996237064911
  0
CIRCLE
  5
B1
100
AcDbEntity
  8
0
 62
7
420
16777215
370
-1
 48
1.0
  6
BYLAYER
100
AcDbCircle
 10
60.8313649000301169
 20
-139.2712779327781902
 30
0.0
 40
0.5079996237064911
  0
CIRCLE
  5
B2
100
AcDbEntity
  8
0
 62
7
420
16777215
370
-1
 48
1.0
  6
BYLAYER
100
AcDbCircle
 10
63.3713630185625689
 20
-139.2712779327781902
 30
0.0
 40
0.5079996237064911
  0
CIRCLE
  5
B3
100
AcDbEntity
  8
0
 62
7
420
16777215
370
-1
 48
1.0
  6
BYLAYER
100
AcDbCircle
 10
65.9113611370950281
 20
-139.2712779327781902
 30
0.0
 40
0.5079996237064911
  0
CIRCLE
  5
B4
100
AcDbEntity
  8
0
 62
54
420
8684544
370
-1
 48
1.0
  6
BYLAYER
100
AcDbCircle
 10
38.479381456944509
 20
-98.8853078481121486
 30
0.0
 40
1.5999982056240489
  0
CIRCLE
  5
B5
100
AcDbEntity
  8
0
 62
54
420
8684544
370
-1
 48
1.0
  6
BYLAYER
100
AcDbCircle
 10
37.97138183323802
 20
-139.2712779327781902
 30
0.0
 40
0.8889993414863594
  0
CIRCLE
  5
B6
100
AcDbEntity
  8
0
 62
54
420
8684544
370
-1
 48
1.0
  6
BYLAYER
100
AcDbCircle
 10
40.511379951770472
 20
-139.2712779327781902
 30
0.0
 40
0.8889993414863594
  0
CIRCLE
  5
B7
100
AcDbEntity
  8
0
 62
54
420
8684544
370
-1
 48
1.0
  6
BYLAYER
100
AcDbCircle
 10
43.0513780703029241
 20
-139.2712779327781902
 30
0.0
 40
0.8889993414863594
  0
CIRCLE
  5
B8
100
AcDbEntity
  8
0
 62
54
420
8684544
370
-1
 48
1.0
  6
BYLAYER
100
AcDbCircle
 10
45.5913761888353832
 20
-139.2712779327781902
 30
0.0
 40
0.8889993414863594
  0
CIRCLE
  5
B9
100
AcDbEntity
  8
0
 62
54
420
8684544
370
-1
 48
1.0
  6
BYLAYER
100
AcDbCircle
 10
48.1313743073678353
 20
-139.2712779327781902
 30
0.0
 40
0.8889993414863594
  0
CIRCLE
  5
BA
100
AcDbEntity
  8
0
 62
54
420
8684544
370
-1
 48
1.0
  6
BYLAYER
100
AcDbCircle
 10
50.6713724259002944
 20
-139.2712779327781902
 30
0.0
 40
0.8889993414863594
  0
CIRCLE
  5
BB
100
AcDbEntity
  8
0
 62
54
420
8684544
370
-1
 48
1.0
  6
BYLAYER
100
AcDbCircle
 10
53.2113705444327465
 20
-139.2712779327781902
 30
0.0
 40
0.8889993414863594
  0
CIRCLE
  5
BC
100
AcDbEntity
  8
0
 62
54
420
8684544
370
-1
 48
1.0
  6
BYLAYER
100
AcDbCircle
 10
55.7513686629652057
 20
-139.2712779327781902
 30
0.0
 40
0.8889993414863594
  0
CIRCLE
  5
BD
100
AcDbEntity
  8
0
 62
54
420
8684544
370
-1
 48
1.0
  6
BYLAYER
100
AcDbCircle
 10
58.2913667814976577
 20
-139.2712779327781902
 30
0.0
 40
0.8889993414863594
  0
CIRCLE
  5
BE
100
AcDbEntity
  8
0
 62
54
420
8684544
370
-1
 48
1.0
  6
BYLAYER
100
AcDbCircle
 10
60.8313649000301169
 20
-139.2712779327781902
 30
0.0
 40
0.8889993414863594
  0
CIRCLE
  5
BF
100
AcDbEntity
  8
0
 62
54
420
8684544
370
-1
 48
1.0
  6
BYLAYER
100
AcDbCircle
 10
63.3713630185625689
 20
-139.2712779327781902
 30
0.0
 40
0.8889993414863594
  0
CIRCLE
  5
C0
100
AcDbEntity
  8
0
 62
54
420
8684544
370
-1
 48
1.0
  6
BYLAYER
100
AcDbCircle
 10
65.9113611370950281
 20
-139.2712779327781902
 30
0.0
 40
0.8889993414863594
  0
LINE
  5
C1
100
AcDbEntity
  8
0
 62
14
420
8650752
370
-1
 48
1.0
  6
BYLAYER
100
AcDbLine
 10
52.7059109188447934
 20
-100.2823068133049844
 30
0.0
 11
52.7059109188447934
 21
-101.4253059666445864
 31
0.0
  0
CIRCLE
  5
C2
100
AcDbEntity
  8
0
 62
7
420
16777215
370
-1
 48
1.0
  6
BYLAYER
100
AcDbCircle
 10
37.97138183323802
 20
-139.2712779327781902
 30
0.0
 40
0.5079996237064911
  0
CIRCLE
  5
C3
100
AcDbEntity
  8
0
 62
7
420
16777215
370
-1
 48
1.0
  6
BYLAYER
100
AcDbCircle
 10
40.511379951770472
 20
-139.2712779327781902
 30
0.0
 40
0.5079996237064911
  0
CIRCLE
  5
C4
100
AcDbEntity
  8
0
 62
7
420
16777215
370
-1
 48
1.0
  6
BYLAYER
100
AcDbCircle
 10
43.0513780703029241
 20
-139.2712779327781902
 30
0.0
 40
0.5079996237064911
  0
CIRCLE
  5
C5
100
AcDbEntity
  8
0
 62
7
420
16777215
370
-1
 48
1.0
  6
BYLAYER
100
AcDbCircle
 10
45.5913761888353832
 20
-139.2712779327781902
 30
0.0
 40
0.5079996237064911
  0
CIRCLE
  5
C6
100
AcDbEntity
  8
0
 62
7
420
16777215
370
-1
 48
1.0
  6
BYLAYER
100
AcDbCircle
 10
48.1313743073678353
 20
-139.2712779327781902
 30
0.0
 40
0.5079996237064911
  0
CIRCLE
  5
C7
100
AcDbEntity
  8
0
 62
7
420
16777215
370
-1
 48
1.0
  6
BYLAYER
100
AcDbCircle
 10
50.6713724259002944
 20
-139.2712779327781902
 30
0.0
 40
0.5079996237064911
  0
CIRCLE
  5
C8
100
AcDbEntity
  8
0
 62
7
420
16777215
370
-1
 48
1.0
  6
BYLAYER
100
AcDbCircle
 10
53.2113705444327465
 20
-139.2712779327781902
 30
0.0
 40
0.5079996237064911
  0
CIRCLE
  5
C9
100
AcDbEntity
  8
0
 62
7
420
16777215
370
-1
 48
1.0
  6
BYLAYER
100
AcDbCircle
 10
55.7513686629652057
 20
-139.2712779327781902
 30
0.0
 40
0.5079996237064911
  0
CIRCLE
  5
CA
100
AcDbEntity
  8
0
 62
7
420
16777215
370
-1
 48
1.0
  6
BYLAYER
100
AcDbCircle
 10
58.2913667814976577
 20
-139.2712779327781902
 30
0.0
 40
0.5079996237064911
  0
CIRCLE
  5
CB
100
AcDbEntity
  8
0
 62
7
420
16777215
370
-1
 48
1.0
  6
BYLAYER
100
AcDbCircle
 10
60.8313649000301169
 20
-139.2712779327781902
 30
0.0
 40
0.5079996237064911
  0
CIRCLE
  5
CC
100
AcDbEntity
  8
0
 62
7
420
16777215
370
-1
 48
1.0
  6
BYLAYER
100
AcDbCircle
 10
63.3713630185625689
 20
-139.2712779327781902
 30
0.0
 40
0.5079996237064911
  0
CIRCLE
  5
CD
100
AcDbEntity
  8
0
 62
7
420
16777215
370
-1
 48
1.0
  6
BYLAYER
100
AcDbCircle
 10
65.9113611370950281
 20
-139.2712779327781902
 30
0.0
 40
0.5079996237064911
  0
LINE
  5
CE
100
AcDbEntity
  8
0
 62
8
420
8684676
370
-1
 48
1.0
  6
BYLAYER
100
AcDbLine
 10
38.2253816450912609
 20
-139.0172781209249422
 30
0.0
 11
37.7173820213847719
 21
-139.0172781209249422
 31
0.0
  0
LINE
  5
CF
100
AcDbEntity
  8
0
 62
8
420
8684676
370
-1
 48
1.0
  6
BYLAYER
100
AcDbLine
 10
37.7173820213847719
 20
-139.0172781209249422
 30
0.0
 11
37.7173820213847719
 21
-139.5252777446314099
 31
0.0
  0
LINE
  5
D0
100
AcDbEntity
  8
0
 62
8
420
8684676
370
-1
 48
1.0
  6
BYLAYER
100
AcDbLine
 10
37.7173820213847719
 20
-139.5252777446314099
 30
0.0
 11
38.2253816450912609
 21
-139.5252777446314099
 31
0.0
  0
LINE
  5
D1
100
AcDbEntity
  8
0
 62
8
420
8684676
370
-1
 48
1.0
  6
BYLAYER
100
AcDbLine
 10
38.2253816450912609
 20
-139.5252777446314099
 30
0.0
 11
38.2253816450912609
 21
-139.0172781209249422
 31
0.0
  0
LINE
  5
D2
100
AcDbEntity
  8
0
 62
8
420
8684676
370
-1
 48
1.0
  6
BYLAYER
100
AcDbLine
 10
66.1653609489482761
 20
-139.0172781209249422
 30
0.0
 11
65.65736132524178
 21
-139.0172781209249422
 31
0.0
  0
LINE
  5
D3
100
AcDbEntity
  8
0
 62
8
420
8684676
370
-1
 48
1.0
  6
BYLAYER
100
AcDbLine
 10
65.65736132524178
 20
-139.0172781209249422
 30
0.0
 11
65.65736132524178
 21
-139.5252777446314099
 31
0.0
  0
LINE
  5
D4
100
AcDbEntity
  8
0
 62
8
420
8684676
370
-1
 48
1.0
  6
BYLAYER
100
AcDbLine
 10
65.65736132524178
 20
-139.5252777446314099
 30
0.0
 11
66.1653609489482761
 21
-139.5252777446314099
 31
0.0
  0
LINE
  5
D5
100
AcDbEntity
  8
0
 62
8
420
8684676
370
-1
 48
1.0
  6
BYLAYER
100
AcDbLine
 10
66.1653609489482761
 20
-139.5252777446314099
 30
0.0
 11
66.1653609489482761
 21
-139.0172781209249422
 31
0.0
  0
LINE
  5
D6
100
AcDbEntity
  8
0
 62
8
420
8684676
370
-1
 48
1.0
  6
BYLAYER
100
AcDbLine
 10
63.625362830415817
 20
-139.0172781209249422
 30
0.0
 11
63.117363206709328
 21
-139.0172781209249422
 31
0.0
  0
LINE
  5
D7
100
AcDbEntity
  8
0
 62
8
420
8684676
370
-1
 48
1.0
  6
BYLAYER
100
AcDbLine
 10
63.117363206709328
 20
-139.0172781209249422
 30
0.0
 11
63.117363206709328
 21
-139.5252777446314099
 31
0.0
  0
LINE
  5
D8
100
AcDbEntity
  8
0
 62
8
420
8684676
370
-1
 48
1.0
  6
BYLAYER
100
AcDbLine
 10
63.117363206709328
 20
-139.5252777446314099
 30
0.0
 11
63.625362830415817
 21
-139.5252777446314099
 31
0.0
  0
LINE
  5
D9
100
AcDbEntity
  8
0
 62
8
420
8684676
370
-1
 48
1.0
  6
BYLAYER
100
AcDbLine
 10
63.625362830415817
 20
-139.5252777446314099
 30
0.0
 11
63.625362830415817
 21
-139.0172781209249422
 31
0.0
  0
LINE
  5
DA
100
AcDbEntity
  8
0
 62
8
420
8684676
370
-1
 48
1.0
  6
BYLAYER
100
AcDbLine
 10
61.0853647118833578
 20
-139.0172781209249422
 30
0.0
 11
60.5773650881768688
 21
-139.0172781209249422
 31
0.0
  0
LINE
  5
DB
100
AcDbEntity
  8
0
 62
8
420
8684676
370
-1
 48
1.0
  6
BYLAYER
100
AcDbLine
 10
60.5773650881768688
 20
-139.0172781209249422
 30
0.0
 11
60.5773650881768688
 21
-139.5252777446314099
 31
0.0
  0
LINE
  5
DC
100
AcDbEntity
  8
0
 62
8
420
8684676
370
-1
 48
1.0
  6
BYLAYER
100
AcDbLine
 10
60.5773650881768688
 20
-139.5252777446314099
 30
0.0
 11
61.0853647118833578
 21
-139.5252777446314099
 31
0.0
  0
LINE
  5
DD
100
AcDbEntity
  8
0
 62
8
420
8684676
370
-1
 48
1.0
  6
BYLAYER
100
AcDbLine
 10
61.0853647118833578
 20
-139.5252777446314099
 30
0.0
 11
61.0853647118833578
 21
-139.0172781209249422
 31
0.0
  0
LINE
  5
DE
100
AcDbEntity
  8
0
 62
8
420
8684676
370
-1
 48
1.0
  6
BYLAYER
100
AcDbLine
 10
58.5453665933509058
 20
-139.0172781209249422
 30
0.0
 11
58.0373669696444168
 21
-139.0172781209249422
 31
0.0
  0
LINE
  5
DF
100
AcDbEntity
  8
0
 62
8
420
8684676
370
-1
 48
1.0
  6
BYLAYER
100
AcDbLine
 10
58.0373669696444168
 20
-139.0172781209249422
 30
0.0
 11
58.0373669696444168
 21
-139.5252777446314099
 31
0.0
  0
LINE
  5
E0
100
AcDbEntity
  8
0
 62
8
420
8684676
370
-1
 48
1.0
  6
BYLAYER
100
AcDbLine
 10
58.0373669696444168
 20
-139.5252777446314099
 30
0.0
 11
58.5453665933509058
 21
-139.5252777446314099
 31
0.0
  0
LINE
  5
E1
100
AcDbEntity
  8
0
 62
8
420
8684676
370
-1
 48
1.0
  6
BYLAYER
100
AcDbLine
 10
58.5453665933509058
 20
-139.5252777446314099
 30
0.0
 11
58.5453665933509058
 21
-139.0172781209249422
 31
0.0
  0
LINE
  5
E2
100
AcDbEntity
  8
0
 62
8
420
8684676
370
-1
 48
1.0
  6
BYLAYER
100
AcDbLine
 10
56.0053684748184537
 20
-139.0172781209249422
 30
0.0
 11
55.4973688511119576
 21
-139.0172781209249422
 31
0.0
  0
LINE
  5
E3
100
AcDbEntity
  8
0
 62
8
420
8684676
370
-1
 48
1.0
  6
BYLAYER
100
AcDbLine
 10
55.4973688511119576
 20
-139.0172781209249422
 30
0.0
 11
55.4973688511119576
 21
-139.5252777446314099
 31
0.0
  0
LINE
  5
E4
100
AcDbEntity
  8
0
 62
8
420
8684676
370
-1
 48
1.0
  6
BYLAYER
100
AcDbLine
 10
55.4973688511119576
 20
-139.5252777446314099
 30
0.0
 11
56.0053684748184537
 21
-139.5252777446314099
 31
0.0
  0
LINE
  5
E5
100
AcDbEntity
  8
0
 62
8
420
8684676
370
-1
 48
1.0
  6
BYLAYER
100
AcDbLine
 10
56.0053684748184537
 20
-139.5252777446314099
 30
0.0
 11
56.0053684748184537
 21
-139.0172781209249422
 31
0.0
  0
LINE
  5
E6
100
AcDbEntity
  8
0
 62
8
420
8684676
370
-1
 48
1.0
  6
BYLAYER
100
AcDbLine
 10
53.4653703562859945
 20
-139.0172781209249422
 30
0.0
 11
52.9573707325795056
 21
-139.0172781209249422
 31
0.0
  0
LINE
  5
E7
100
AcDbEntity
  8
0
 62
8
420
8684676
370
-1
 48
1.0
  6
BYLAYER
100
AcDbLine
 10
52.9573707325795056
 20
-139.0172781209249422
 30
0.0
 11
52.9573707325795056
 21
-139.5252777446314099
 31
0.0
  0
LINE
  5
E8
100
AcDbEntity
  8
0
 62
8
420
8684676
370
-1
 48
1.0
  6
BYLAYER
100
AcDbLine
 10
52.9573707325795056
 20
-139.5252777446314099
 30
0.0
 11
53.4653703562859945
 21
-139.5252777446314099
 31
0.0
  0
LINE
  5
E9
100
AcDbEntity
  8
0
 62
8
420
8684676
370
-1
 48
1.0
  6
BYLAYER
100
AcDbLine
 10
53.4653703562859945
 20
-139.5252777446314099
 30
0.0
 11
53.4653703562859945
 21
-139.0172781209249422
 31
0.0
  0
LINE
  5
EA
100
AcDbEntity
  8
0
 62
8
420
8684676
370
-1
 48
1.0
  6
BYLAYER
100
AcDbLine
 10
50.9253722377535425
 20
-139.0172781209249422
 30
0.0
 11
50.4173726140470464
 21
-139.0172781209249422
 31
0.0
  0
LINE
  5
EB
100
AcDbEntity
  8
0
 62
8
420
8684676
370
-1
 48
1.0
  6
BYLAYER
100
AcDbLine
 10
50.4173726140470464
 20
-139.0172781209249422
 30
0.0
 11
50.4173726140470464
 21
-139.5252777446314099
 31
0.0
  0
LINE
  5
EC
100
AcDbEntity
  8
0
 62
8
420
8684676
370
-1
 48
1.0
  6
BYLAYER
100
AcDbLine
 10
50.4173726140470464
 20
-139.5252777446314099
 30
0.0
 11
50.9253722377535425
 21
-139.5252777446314099
 31
0.0
  0
LINE
  5
ED
100
AcDbEntity
  8
0
 62
8
420
8684676
370
-1
 48
1.0
  6
BYLAYER
100
AcDbLine
 10
50.9253722377535425
 20
-139.5252777446314099
 30
0.0
 11
50.9253722377535425
 21
-139.0172781209249422
 31
0.0
  0
LINE
  5
EE
100
AcDbEntity
  8
0
 62
8
420
8684676
370
-1
 48
1.0
  6
BYLAYER
100
AcDbLine
 10
48.3853741192210833
 20
-139.0172781209249422
 30
0.0
 11
47.8773744955145943
 21
-139.0172781209249422
 31
0.0
  0
LINE
  5
EF
100
AcDbEntity
  8
0
 62
8
420
8684676
370
-1
 48
1.0
  6
BYLAYER
100
AcDbLine
 10
47.8773744955145943
 20
-139.0172781209249422
 30
0.0
 11
47.8773744955145943
 21
-139.5252777446314099
 31
0.0
  0
LINE
  5
F0
100
AcDbEntity
  8
0
 62
8
420
8684676
370
-1
 48
1.0
  6
BYLAYER
100
AcDbLine
 10
47.8773744955145943
 20
-139.5252777446314099
 30
0.0
 11
48.3853741192210833
 21
-139.5252777446314099
 31
0.0
  0
LINE
  5
F1
100
AcDbEntity
  8
0
 62
8
420
8684676
370
-1
 48
1.0
  6
BYLAYER
100
AcDbLine
 10
48.3853741192210833
 20
-139.5252777446314099
 30
0.0
 11
48.3853741192210833
 21
-139.0172781209249422
 31
0.0
  0
LINE
  5
F2
100
AcDbEntity
  8
0
 62
8
420
8684676
370
-1
 48
1.0
  6
BYLAYER
100
AcDbLine
 10
45.8453760006886313
 20
-139.0172781209249422
 30
0.0
 11
45.3373763769821352
 21
-139.0172781209249422
 31
0.0
  0
LINE
  5
F3
100
AcDbEntity
  8
0
 62
8
420
8684676
370
-1
 48
1.0
  6
BYLAYER
100
AcDbLine
 10
45.3373763769821352
 20
-139.0172781209249422
 30
0.0
 11
45.3373763769821352
 21
-139.5252777446314099
 31
0.0
  0
LINE
  5
F4
100
AcDbEntity
  8
0
 62
8
420
8684676
370
-1
 48
1.0
  6
BYLAYER
100
AcDbLine
 10
45.3373763769821352
 20
-139.5252777446314099
 30
0.0
 11
45.8453760006886313
 21
-139.5252777446314099
 31
0.0
  0
LINE
  5
F5
100
AcDbEntity
  8
0
 62
8
420
8684676
370
-1
 48
1.0
  6
BYLAYER
100
AcDbLine
 10
45.8453760006886313
 20
-139.5252777446314099
 30
0.0
 11
45.8453760006886313
 21
-139.0172781209249422
 31
0.0
  0
LINE
  5
F6
100
AcDbEntity
  8
0
 62
8
420
8684676
370
-1
 48
1.0
  6
BYLAYER
100
AcDbLine
 10
43.3053778821561721
 20
-139.0172781209249422
 30
0.0
 11
42.7973782584496831
 21
-139.0172781209249422
 31
0.0
  0
LINE
  5
F7
100
AcDbEntity
  8
0
 62
8
420
8684676
370
-1
 48
1.0
  6
BYLAYER
100
AcDbLine
 10
42.7973782584496831
 20
-139.0172781209249422
 30
0.0
 11
42.7973782584496831
 21
-139.5252777446314099
 31
0.0
  0
LINE
  5
F8
100
AcDbEntity
  8
0
 62
8
420
8684676
370
-1
 48
1.0
  6
BYLAYER
100
AcDbLine
 10
42.7973782584496831
 20
-139.5252777446314099
 30
0.0
 11
43.3053778821561721
 21
-139.5252777446314099
 31
0.0
  0
LINE
  5
F9
100
AcDbEntity
  8
0
 62
8
420
8684676
370
-1
 48
1.0
  6
BYLAYER
100
AcDbLine
 10
43.3053778821561721
 20
-139.5252777446314099
 30
0.0
 11
43.3053778821561721
 21
-139.0172781209249422
 31
0.0
  0
LINE
  5
FA
100
AcDbEntity
  8
0
 62
8
420
8684676
370
-1
 48
1.0
  6
BYLAYER
100
AcDbLine
 10
40.7653797636237201
 20
-139.0172781209249422
 30
0.0
 11
40.257380139917224
 21
-139.0172781209249422
 31
0.0
  0
LINE
  5
FB
100
AcDbEntity
  8
0
 62
8
420
8684676
370
-1
 48
1.0
  6
BYLAYER
100
AcDbLine
 10
40.257380139917224
 20
-139.0172781209249422
 30
0.0
 11
40.257380139917224
 21
-139.5252777446314099
 31
0.0
  0
LINE
  5
FC
100
AcDbEntity
  8
0
 62
8
420
8684676
370
-1
 48
1.0
  6
BYLAYER
100
AcDbLine
 10
40.257380139917224
 20
-139.5252777446314099
 30
0.0
 11
40.7653797636237201
 21
-139.5252777446314099
 31
0.0
  0
LINE
  5
FD
100
AcDbEntity
  8
0
 62
8
420
8684676
370
-1
 48
1.0
  6
BYLAYER
100
AcDbLine
 10
40.7653797636237201
 20
-139.5252777446314099
 30
0.0
 11
40.7653797636237201
 21
-139.0172781209249422
 31
0.0
  0
LINE
  5
FE
100
AcDbEntity
  8
0
 62
8
420
8684676
370
-1
 48
1.0
  6
BYLAYER
100
AcDbLine
 10
35.9393833384120498
 20
-127.1173869356003792
 30
0.0
 11
35.9393833384120498
 21
-126.418887453003947
 31
0.0
  0
LINE
  5
FF
100
AcDbEntity
  8
0
 62
8
420
8684676
370
-1
 48
1.0
  6
BYLAYER
100
AcDbLine
 10
33.9378648210084748
 20
-127.1173869356003792
 30
0.0
 11
35.9393833384120498
 21
-127.1173869356003792
 31
0.0
  0
LINE
  5
100
100
AcDbEntity
  8
0
 62
8
420
8684676
370
-1
 48
1.0
  6
BYLAYER
100
AcDbLine
 10
33.9378648210084748
 20
-132.1186432309907843
 30
0.0
 11
35.9393833384120498
 21
-132.1186432309907843
 31
0.0
  0
LINE
  5
101
100
AcDbEntity
  8
0
 62
8
420
8684676
370
-1
 48
1.0
  6
BYLAYER
100
AcDbLine
 10
33.9378648210084748
 20
-127.1173869356003792
 30
0.0
 11
33.9378648210084748
 21
-132.1186432309907843
 31
0.0
  0
LINE
  5
102
100
AcDbEntity
  8
0
 62
8
420
8684676
370
-1
 48
1.0
  6
BYLAYER
100
AcDbLine
 10
50.6027924766999178
 20
-100.1553069073783604
 30
0.0
 11
50.6027924766999178
 21
-99.954647056014295
 31
0.0
  0
LINE
  5
103
100
AcDbEntity
  8
0
 62
8
420
8684676
370
-1
 48
1.0
  6
BYLAYER
100
AcDbLine
 10
52.0023314400113037
 20
-100.1553069073783604
 30
0.0
 11
52.0023314400113037
 21
-99.954647056014295
 31
0.0
  0
LINE
  5
104
100
AcDbEntity
  8
0
 62
8
420
8684676
370
-1
 48
1.0
  6
BYLAYER
100
AcDbLine
 10
53.4018704033226825
 20
-100.1553069073783604
 30
0.0
 11
53.4018704033226825
 21
-99.954647056014295
 31
0.0
  0
LINE
  5
105
100
AcDbEntity
  8
0
 62
8
420
8684676
370
-1
 48
1.0
  6
BYLAYER
100
AcDbLine
 10
54.8014093666340685
 20
-100.1553069073783604
 30
0.0
 11
54.8014093666340685
 21
-99.954647056014295
 31
0.0
  0
LINE
  5
106
100
AcDbEntity
  8
0
 62
8
420
8684676
370
-1
 48
1.0
  6
BYLAYER
100
AcDbLine
 10
50.6027924766999178
 20
-100.1553069073783604
 30
0.0
 11
52.0023314400113037
 21
-100.1553069073783604
 31
0.0
  0
LINE
  5
107
100
AcDbEntity
  8
0
 62
8
420
8684676
370
-1
 48
1.0
  6
BYLAYER
100
AcDbLine
 10
53.4018704033226825
 20
-100.1553069073783604
 30
0.0
 11
54.8014093666340685
 21
-100.1553069073783604
 31
0.0
  0
LINE
  5
108
100
AcDbEntity
  8
0
 62
8
420
8684676
370
-1
 48
1.0
  6
BYLAYER
100
AcDbLine
 10
50.7018524033226825
 20
-100.0562469807556027
 30
0.0
 11
52.0023314400113037
 21
-100.0562469807556027
 31
0.0
  0
LINE
  5
109
100
AcDbEntity
  8
0
 62
8
420
8684676
370
-1
 48
1.0
  6
BYLAYER
100
AcDbLine
 10
53.4018704033226825
 20
-100.0562469807556027
 30
0.0
 11
54.7023494400113037
 21
-100.0562469807556027
 31
0.0
  0
LINE
  5
10A
100
AcDbEntity
  8
0
 62
8
420
8684676
370
-1
 48
1.0
  6
BYLAYER
100
AcDbLine
 10
50.6027924766999178
 20
-97.3562289807556027
 30
0.0
 11
52.0023314400113037
 21
-97.3562289807556027
 31
0.0
  0
LINE
  5
10B
100
AcDbEntity
  8
0
 62
8
420
8684676
370
-1
 48
1.0
  6
BYLAYER
100
AcDbLine
 10
53.4018704033226825
 20
-97.3562289807556027
 30
0.0
 11
54.8014093666340685
 21
-97.3562289807556027
 31
0.0
  0
LINE
  5
10C
100
AcDbEntity
  8
0
 62
8
420
8684676
370
-1
 48
1.0
  6
BYLAYER
100
AcDbLine
 10
50.6027924766999178
 20
-99.954647056014295
 30
0.0
 11
52.0023314400113037
 21
-99.954647056014295
 31
0.0
  0
LINE
  5
10D
100
AcDbEntity
  8
0
 62
8
420
8684676
370
-1
 48
1.0
  6
BYLAYER
100
AcDbLine
 10
50.6027924766999178
 20
-97.3562289807556027
 30
0.0
 11
50.6027924766999178
 21
-99.954647056014295
 31
0.0
  0
LINE
  5
10E
100
AcDbEntity
  8
0
 62
8
420
8684676
370
-1
 48
1.0
  6
BYLAYER
100
AcDbLine
 10
54.8014093666340685
 20
-99.954647056014295
 30
0.0
 11
54.8014093666340685
 21
-97.3562289807556027
 31
0.0
  0
LINE
  5
10F
100
AcDbEntity
  8
0
 62
8
420
8684676
370
-1
 48
1.0
  6
BYLAYER
100
AcDbLine
 10
53.4018704033226825
 20
-99.954647056014295
 30
0.0
 11
54.8014093666340685
 21
-99.954647056014295
 31
0.0
  0
LINE
  5
110
100
AcDbEntity
  8
0
 62
8
420
8684676
370
-1
 48
1.0
  6
BYLAYER
100
AcDbLine
 10
57.7833671577911687
 20
-95.0753106703134563
 30
0.0
 11
57.7833671577911687
 21
-96.5993095414329304
 31
0.0
  0
LINE
  5
111
100
AcDbEntity
  8
0
 62
8
420
8684676
370
-1
 48
1.0
  6
BYLAYER
100
AcDbLine
 10
57.7833671577911687
 20
-96.5993095414329304
 30
0.0
 11
47.6233746836613463
 21
-96.5993095414329304
 31
0.0
  0
LINE
  5
112
100
AcDbEntity
  8
0
 62
8
420
8684676
370
-1
 48
1.0
  6
BYLAYER
100
AcDbLine
 10
47.6233746836613463
 20
-96.5993095414329304
 30
0.0
 11
47.6233746836613463
 21
-95.0753106703134563
 31
0.0
  0
LINE
  5
113
100
AcDbEntity
  8
0
 62
8
420
8684676
370
-1
 48
1.0
  6
BYLAYER
100
AcDbLine
 10
47.6233746836613463
 20
-95.0753106703134563
 30
0.0
 11
57.7833671577911687
 21
-95.0753106703134563
 31
0.0
  0
LINE
  5
114
100
AcDbEntity
  8
0
 62
8
420
8684676
370
-1
 48
1.0
  6
BYLAYER
100
AcDbLine
 10
55.7513686629652057
 20
-95.0753106703134563
 30
0.0
 11
55.7513686629652057
 21
-100.4093067192316084
 31
0.0
  0
LINE
  5
115
100
AcDbEntity
  8
0
 62
8
420
8684676
370
-1
 48
1.0
  6
BYLAYER
100
AcDbLine
 10
55.7513686629652057
 20
-100.4093067192316084
 30
0.0
 11
54.7353694155522206
 21
-100.4093067192316084
 31
0.0
  0
LINE
  5
116
100
AcDbEntity
  8
0
 62
8
420
8684676
370
-1
 48
1.0
  6
BYLAYER
100
AcDbLine
 10
54.7353694155522206
 20
-100.4093067192316084
 30
0.0
 11
54.7353694155522206
 21
-96.5993095414329304
 31
0.0
  0
LINE
  5
117
100
AcDbEntity
  8
0
 62
8
420
8684676
370
-1
 48
1.0
  6
BYLAYER
100
AcDbLine
 10
54.7353694155522206
 20
-96.5993095414329304
 30
0.0
 11
50.6713724259002944
 21
-96.5993095414329304
 31
0.0
  0
LINE
  5
118
100
AcDbEntity
  8
0
 62
8
420
8684676
370
-1
 48
1.0
  6
BYLAYER
100
AcDbLine
 10
50.6713724259002944
 20
-96.5993095414329304
 30
0.0
 11
50.6713724259002944
 21
-100.4093067192316084
 31
0.0
  0
LINE
  5
119
100
AcDbEntity
  8
0
 62
8
420
8684676
370
-1
 48
1.0
  6
BYLAYER
100
AcDbLine
 10
50.6713724259002944
 20
-100.4093067192316084
 30
0.0
 11
49.6553731784873094
 21
-100.4093067192316084
 31
0.0
  0
LINE
  5
11A
100
AcDbEntity
  8
0
 62
8
420
8684676
370
-1
 48
1.0
  6
BYLAYER
100
AcDbLine
 10
49.6553731784873094
 20
-100.4093067192316084
 30
0.0
 11
49.6553731784873094
 21
-95.0753106703134563
 31
0.0
  0
LINE
  5
11B
100
AcDbEntity
  8
0
 62
8
420
8684676
370
-1
 48
1.0
  6
BYLAYER
100
AcDbLine
 10
49.6553731784873094
 20
-95.0753106703134563
 30
0.0
 11
55.7513686629652057
 21
-95.0753106703134563
 31
0.0
  0
LINE
  5
11C
100
AcDbEntity
  8
0
 62
8
420
8684676
370
-1
 48
1.0
  6
BYLAYER
100
AcDbLine
 10
52.3858711559097046
 20
-96.5993095414329304
 30
0.0
 11
52.3858711559097046
 21
-99.7743071895984883
 31
0.0
  0
LINE
  5
11D
100
AcDbEntity
  8
0
 62
8
420
8684676
370
-1
 48
1.0
  6
BYLAYER
100
AcDbLine
 10
52.3858711559097046
 20
-99.7743071895984883
 30
0.0
 11
53.0208706855428176
 21
-99.7743071895984883
 31
0.0
  0
LINE
  5
11E
100
AcDbEntity
  8
0
 62
8
420
8684676
370
-1
 48
1.0
  6
BYLAYER
100
AcDbLine
 10
53.0208706855428176
 20
-99.7743071895984883
 30
0.0
 11
53.0208706855428176
 21
-96.5993095414329304
 31
0.0
  0
LINE
  5
11F
100
AcDbEntity
  8
0
 62
8
420
8684676
370
-1
 48
1.0
  6
BYLAYER
100
AcDbLine
 10
53.0208706855428176
 20
-96.5993095414329304
 30
0.0
 11
52.3858711559097046
 21
-96.5993095414329304
 31
0.0
  0
LINE
  5
120
100
AcDbEntity
  8
0
 62
8
420
8684676
370
-1
 48
1.0
  6
BYLAYER
100
AcDbLine
 10
55.8783685688918297
 20
-92.1543128340011322
 30
0.0
 11
49.5283732725606924
 21
-92.7893123636342381
 31
0.0
  0
LINE
  5
121
100
AcDbEntity
  8
0
 62
8
420
8684676
370
-1
 48
1.0
  6
BYLAYER
100
AcDbLine
 10
55.8783685688918297
 20
-91.519313304368012
 30
0.0
 11
49.5283732725606924
 21
-92.1543128340011322
 31
0.0
  0
LINE
  5
122
100
AcDbEntity
  8
0
 62
8
420
8684676
370
-1
 48
1.0
  6
BYLAYER
100
AcDbLine
 10
55.8783685688918297
 20
-90.8843137747349061
 30
0.0
 11
49.5283732725606924
 21
-91.519313304368012
 31
0.0
  0
LINE
  5
123
100
AcDbEntity
  8
0
 62
8
420
8684676
370
-1
 48
1.0
  6
BYLAYER
100
AcDbLine
 10
55.8783685688918297
 20
-90.249314245101786
 30
0.0
 11
49.5283732725606924
 21
-90.8843137747349061
 31
0.0
  0
LINE
  5
124
100
AcDbEntity
  8
0
 62
8
420
8684676
370
-1
 48
1.0
  6
BYLAYER
100
AcDbLine
 10
55.8783685688918297
 20
-89.6143147154686659
 30
0.0
 11
49.5283732725606924
 21
-90.249314245101786
 31
0.0
  0
LINE
  5
125
100
AcDbEntity
  8
0
 62
8
420
8684676
370
-1
 48
1.0
  6
BYLAYER
100
AcDbLine
 10
55.8783685688918297
 20
-88.97931518583556
 30
0.0
 11
49.5283732725606924
 21
-89.6143147154686659
 31
0.0
  0
LINE
  5
126
100
AcDbEntity
  8
0
 62
8
420
8684676
370
-1
 48
1.0
  6
BYLAYER
100
AcDbLine
 10
55.8783685688918297
 20
-88.3443156562024399
 30
0.0
 11
49.5283732725606924
 21
-88.97931518583556
 31
0.0
  0
LINE
  5
127
100
AcDbEntity
  8
0
 62
8
420
8684676
370
-1
 48
1.0
  6
BYLAYER
100
AcDbLine
 10
55.2433690392587167
 20
-88.3443156562024399
 30
0.0
 11
50.1633728021938055
 21
-88.3443156562024399
 31
0.0
  0
LINE
  5
128
100
AcDbEntity
  8
0
 62
8
420
8684676
370
-1
 48
1.0
  6
BYLAYER
100
AcDbLine
 10
50.1633728021938055
 20
-87.3918163617527739
 30
0.0
 11
55.2433690392587167
 21
-87.3918163617527739
 31
0.0
  0
LINE
  5
129
100
AcDbEntity
  8
0
 62
8
420
8684676
370
-1
 48
1.0
  6
BYLAYER
100
AcDbLine
 10
50.1633728021938055
 20
-88.3443156562024399
 30
0.0
 11
50.1633728021938055
 21
-87.3918163617527739
 31
0.0
  0
LINE
  5
12A
100
AcDbEntity
  8
0
 62
8
420
8684676
370
-1
 48
1.0
  6
BYLAYER
100
AcDbLine
 10
49.5283732725606924
 20
-88.3443156562024399
 30
0.0
 11
50.1633728021938055
 21
-88.3443156562024399
 31
0.0
  0
LINE
  5
12B
100
AcDbEntity
  8
0
 62
8
420
8684676
370
-1
 48
1.0
  6
BYLAYER
100
AcDbLine
 10
49.5283732725606924
 20
-88.97931518583556
 30
0.0
 11
49.5283732725606924
 21
-88.3443156562024399
 31
0.0
  0
LINE
  5
12C
100
AcDbEntity
  8
0
 62
8
420
8684676
370
-1
 48
1.0
  6
BYLAYER
100
AcDbLine
 10
49.5283732725606924
 20
-89.6143147154686659
 30
0.0
 11
49.5283732725606924
 21
-88.97931518583556
 31
0.0
  0
LINE
  5
12D
100
AcDbEntity
  8
0
 62
8
420
8684676
370
-1
 48
1.0
  6
BYLAYER
100
AcDbLine
 10
49.5283732725606924
 20
-90.249314245101786
 30
0.0
 11
49.5283732725606924
 21
-89.6143147154686659
 31
0.0
  0
LINE
  5
12E
100
AcDbEntity
  8
0
 62
8
420
8684676
370
-1
 48
1.0
  6
BYLAYER
100
AcDbLine
 10
49.5283732725606924
 20
-90.8843137747349061
 30
0.0
 11
49.5283732725606924
 21
-90.249314245101786
 31
0.0
  0
LINE
  5
12F
100
AcDbEntity
  8
0
 62
8
420
8684676
370
-1
 48
1.0
  6
BYLAYER
100
AcDbLine
 10
49.5283732725606924
 20
-91.519313304368012
 30
0.0
 11
49.5283732725606924
 21
-90.8843137747349061
 31
0.0
  0
LINE
  5
130
100
AcDbEntity
  8
0
 62
8
420
8684676
370
-1
 48
1.0
  6
BYLAYER
100
AcDbLine
 10
49.5283732725606924
 20
-92.1543128340011322
 30
0.0
 11
49.5283732725606924
 21
-91.519313304368012
 31
0.0
  0
LINE
  5
131
100
AcDbEntity
  8
0
 62
8
420
8684676
370
-1
 48
1.0
  6
BYLAYER
100
AcDbLine
 10
49.5283732725606924
 20
-93.1068121284507981
 30
0.0
 11
49.5283732725606924
 21
-92.1543128340011322
 31
0.0
  0
LINE
  5
132
100
AcDbEntity
  8
0
 62
8
420
8684676
370
-1
 48
1.0
  6
BYLAYER
100
AcDbLine
 10
50.1633728021938055
 20
-93.1068121284507981
 30
0.0
 11
49.5283732725606924
 21
-93.1068121284507981
 31
0.0
  0
LINE
  5
133
100
AcDbEntity
  8
0
 62
8
420
8684676
370
-1
 48
1.0
  6
BYLAYER
100
AcDbLine
 10
50.1633728021938055
 20
-95.0118107173501443
 30
0.0
 11
50.1633728021938055
 21
-93.1068121284507981
 31
0.0
  0
LINE
  5
134
100
AcDbEntity
  8
0
 62
8
420
8684676
370
-1
 48
1.0
  6
BYLAYER
100
AcDbLine
 10
55.2433690392587167
 20
-95.0118107173501443
 30
0.0
 11
50.1633728021938055
 21
-95.0118107173501443
 31
0.0
  0
LINE
  5
135
100
AcDbEntity
  8
0
 62
8
420
8684676
370
-1
 48
1.0
  6
BYLAYER
100
AcDbLine
 10
55.2433690392587167
 20
-93.1068121284507981
 30
0.0
 11
55.2433690392587167
 21
-95.0118107173501443
 31
0.0
  0
LINE
  5
136
100
AcDbEntity
  8
0
 62
8
420
8684676
370
-1
 48
1.0
  6
BYLAYER
100
AcDbLine
 10
55.8783685688918297
 20
-93.1068121284507981
 30
0.0
 11
55.2433690392587167
 21
-93.1068121284507981
 31
0.0
  0
LINE
  5
137
100
AcDbEntity
  8
0
 62
8
420
8684676
370
-1
 48
1.0
  6
BYLAYER
100
AcDbLine
 10
55.8783685688918297
 20
-92.1543128340011322
 30
0.0
 11
55.8783685688918297
 21
-93.1068121284507981
 31
0.0
  0
LINE
  5
138
100
AcDbEntity
  8
0
 62
8
420
8684676
370
-1
 48
1.0
  6
BYLAYER
100
AcDbLine
 10
55.8783685688918297
 20
-91.519313304368012
 30
0.0
 11
55.8783685688918297
 21
-92.1543128340011322
 31
0.0
  0
LINE
  5
139
100
AcDbEntity
  8
0
 62
8
420
8684676
370
-1
 48
1.0
  6
BYLAYER
100
AcDbLine
 10
55.8783685688918297
 20
-90.8843137747349061
 30
0.0
 11
55.8783685688918297
 21
-91.519313304368012
 31
0.0
  0
LINE
  5
13A
100
AcDbEntity
  8
0
 62
8
420
8684676
370
-1
 48
1.0
  6
BYLAYER
100
AcDbLine
 10
55.8783685688918297
 20
-90.249314245101786
 30
0.0
 11
55.8783685688918297
 21
-90.8843137747349061
 31
0.0
  0
LINE
  5
13B
100
AcDbEntity
  8
0
 62
8
420
8684676
370
-1
 48
1.0
  6
BYLAYER
100
AcDbLine
 10
55.8783685688918297
 20
-89.6143147154686659
 30
0.0
 11
55.8783685688918297
 21
-90.249314245101786
 31
0.0
  0
LINE
  5
13C
100
AcDbEntity
  8
0
 62
8
420
8684676
370
-1
 48
1.0
  6
BYLAYER
100
AcDbLine
 10
55.8783685688918297
 20
-88.97931518583556
 30
0.0
 11
55.8783685688918297
 21
-89.6143147154686659
 31
0.0
  0
LINE
  5
13D
100
AcDbEntity
  8
0
 62
8
420
8684676
370
-1
 48
1.0
  6
BYLAYER
100
AcDbLine
 10
55.8783685688918297
 20
-88.3443156562024399
 30
0.0
 11
55.8783685688918297
 21
-88.97931518583556
 31
0.0
  0
LINE
  5
13E
100
AcDbEntity
  8
0
 62
8
420
8684676
370
-1
 48
1.0
  6
BYLAYER
100
AcDbLine
 10
55.2433690392587167
 20
-88.3443156562024399
 30
0.0
 11
55.8783685688918297
 21
-88.3443156562024399
 31
0.0
  0
LINE
  5
13F
100
AcDbEntity
  8
0
 62
8
420
8684676
370
-1
 48
1.0
  6
BYLAYER
100
AcDbLine
 10
55.2433690392587167
 20
-87.3918163617527739
 30
0.0
 11
55.2433690392587167
 21
-88.3443156562024399
 31
0.0
  0
LINE
  5
140
100
AcDbEntity
  8
0
 62
52
420
12763648
370
-1
 48
1.0
  6
BYLAYER
100
AcDbLine
 10
67.6893598200677502
 20
-98.8853078481121344
 30
0.0
 11
67.6893598200677502
 21
-138.255278685365198
 31
0.0
  0
ARC
  5
141
100
AcDbEntity
  8
0
 62
52
420
12763648
370
-1
 48
1.0
  6
BYLAYER
100
AcDbCircle
 10
65.1493617015352839
 20
-138.255278685365198
 30
0.0
 40
2.5399981185324556
100
AcDbArc
 50
270.0
 51
0.0
  0
LINE
  5
142
100
AcDbEntity
  8
0
 62
52
420
12763648
370
-1
 48
1.0
  6
BYLAYER
100
AcDbLine
 10
65.1493617015352839
 20
-140.7952768038976501
 30
0.0
 11
38.479381456944509
 21
-140.7952768038976501
 31
0.0
  0
ARC
  5
143
100
AcDbEntity
  8
0
 62
52
420
12763648
370
-1
 48
1.0
  6
BYLAYER
100
AcDbCircle
 10
38.479381456944509
 20
-138.255278685365198
 30
0.0
 40
2.5399981185324556
100
AcDbArc
 50
180.0
 51
270.0
  0
LINE
  5
144
100
AcDbEntity
  8
0
 62
52
420
12763648
370
-1
 48
1.0
  6
BYLAYER
100
AcDbLine
 10
35.9393833384120498
 20
-138.255278685365198
 30
0.0
 11
35.9393833384120498
 21
-131.5242836712541816
 31
0.0
  0
LINE
  5
145
100
AcDbEntity
  8
0
 62
52
420
12763648
370
-1
 48
1.0
  6
BYLAYER
100
AcDbLine
 10
35.9393833384120498
 20
-131.5242836712541816
 30
0.0
 11
37.0823824917516589
 21
-131.5242836712541816
 31
0.0
  0
LINE
  5
146
100
AcDbEntity
  8
0
 62
52
420
12763648
370
-1
 48
1.0
  6
BYLAYER
100
AcDbLine
 10
37.0823824917516589
 20
-131.5242836712541816
 30
0.0
 11
37.0823824917516589
 21
-127.7142864934555035
 31
0.0
  0
LINE
  5
147
100
AcDbEntity
  8
0
 62
52
420
12763648
370
-1
 48
1.0
  6
BYLAYER
100
AcDbLine
 10
37.0823824917516589
 20
-127.7142864934555035
 30
0.0
 11
35.9393833384120498
 21
-127.7142864934555035
 31
0.0
  0
LINE
  5
148
100
AcDbEntity
  8
0
 62
52
420
12763648
370
-1
 48
1.0
  6
BYLAYER
100
AcDbLine
 10
35.9393833384120498
 20
-127.7142864934555035
 30
0.0
 11
35.9393833384120498
 21
-98.8853078481121344
 31
0.0
  0
ARC
  5
149
100
AcDbEntity
  8
0
 62
52
420
12763648
370
-1
 48
1.0
  6
BYLAYER
100
AcDbCircle
 10
38.479381456944509
 20
-98.8853078481121344
 30
0.0
 40
2.5399981185324556
100
AcDbArc
 50
90.0000000000000142
 51
180.0
  0
LINE
  5
14A
100
AcDbEntity
  8
0
 62
52
420
12763648
370
-1
 48
1.0
  6
BYLAYER
100
AcDbLine
 10
38.479381456944509
 20
-96.3453097295796823
 30
0.0
 11
65.1493617015352839
 21
-96.3453097295796823
 31
0.0
  0
ARC
  5
14B
100
AcDbEntity
  8
0
 62
52
420
12763648
370
-1
 48
1.0
  6
BYLAYER
100
AcDbCircle
 10
65.1493617015352839
 20
-98.8853078481121344
 30
0.0
 40
2.5399981185324556
100
AcDbArc
 50
0.0
 51
90.0000000000000142
  0
CIRCLE
  5
14C
100
AcDbEntity
  8
0
 62
54
420
8684544
370
-1
 48
1.0
  6
BYLAYER
100
AcDbCircle
 10
99.4481932751627511
 20
-108.4612640768585266
 30
0.0
 40
1.6507981679946984
  0
CIRCLE
  5
14D
100
AcDbEntity
  8
0
 62
54
420
8684544
370
-1
 48
1.0
  6
BYLAYER
100
AcDbCircle
 10
99.4481932751627511
 20
-126.2412509065857193
 30
0.0
 40
1.6507981679946984
  0
CIRCLE
  5
14E
100
AcDbEntity
  8
0
 62
54
420
8684544
370
-1
 48
1.0
  6
BYLAYER
100
AcDbCircle
 10
130.8171700390385865
 20
-118.7337810076374609
 30
0.0
 40
1.1429991533396049
  0
CIRCLE
  5
14F
100
AcDbEntity
  8
0
 62
54
420
8684544
370
-1
 48
1.0
  6
BYLAYER
100
AcDbCircle
 10
130.8171700390385865
 20
-115.2336636002997352
 30
0.0
 40
1.1429991533396049
  0
CIRCLE
  5
150
100
AcDbEntity
  8
0
 62
54
420
8684544
370
-1
 48
1.0
  6
BYLAYER
100
AcDbCircle
 10
130.8171700390385581
 20
-110.4637935135132807
 30
0.0
 40
1.5007986045047348
  0
CIRCLE
  5
151
100
AcDbEntity
  8
0
 62
54
420
8684544
370
-1
 48
1.0
  6
BYLAYER
100
AcDbCircle
 10
130.8171700390385581
 20
-123.6037219402978451
 30
0.0
 40
1.5007986045047348
  0
LINE
  5
152
100
AcDbEntity
  8
0
 62
54
420
8684544
370
-1
 48
1.0
  6
BYLAYER
100
AcDbLine
 10
128.8349605873320911
 20
-113.5336403195678372
 30
0.0
 11
127.3770016672944649
 21
-113.5336403195678372
 31
0.0
  0
LINE
  5
153
100
AcDbEntity
  8
0
 62
54
420
8684544
370
-1
 48
1.0
  6
BYLAYER
100
AcDbLine
 10
128.8349605873320911
 20
-120.5313351361247527
 30
0.0
 11
127.3770016672944649
 21
-120.5313351361247527
 31
0.0
  0
LINE
  5
154
100
AcDbEntity
  8
0
 62
54
420
8684544
370
-1
 48
1.0
  6
BYLAYER
100
AcDbLine
 10
128.8349605873320911
 20
-116.0329984682037718
 30
0.0
 11
127.3770016672944649
 21
-116.0329984682037718
 31
0.0
  0
LINE
  5
155
100
AcDbEntity
  8
0
 62
54
420
8684544
370
-1
 48
1.0
  6
BYLAYER
100
AcDbLine
 10
128.8349605873320911
 20
-118.0319769874888181
 30
0.0
 11
127.3770016672944649
 21
-118.0319769874888181
 31
0.0
  0
LINE
  5
156
100
AcDbEntity
  8
0
 62
54
420
8684544
370
-1
 48
1.0
  6
BYLAYER
100
AcDbLine
 10
98.0247834095334127
 20
-115.0500191963317178
 30
0.0
 11
98.0247834095334127
 21
-112.4490611229544896
 31
0.0
  0
LINE
  5
157
100
AcDbEntity
  8
0
 62
54
420
8684544
370
-1
 48
1.0
  6
BYLAYER
100
AcDbLine
 10
98.0247834095334127
 20
-112.4490611229544896
 30
0.0
 11
100.6257414829106409
 21
-112.4490611229544896
 31
0.0
  0
LINE
  5
158
100
AcDbEntity
  8
0
 62
54
420
8684544
370
-1
 48
1.0
  6
BYLAYER
100
AcDbLine
 10
100.6257414829106409
 20
-112.4490611229544896
 30
0.0
 11
100.6257414829106409
 21
-115.0500191963317178
 31
0.0
  0
LINE
  5
159
100
AcDbEntity
  8
0
 62
54
420
8684544
370
-1
 48
1.0
  6
BYLAYER
100
AcDbLine
 10
100.6257414829106409
 20
-115.0500191963317178
 30
0.0
 11
98.0247834095334127
 21
-115.0500191963317178
 31
0.0
  0
LINE
  5
15A
100
AcDbEntity
  8
0
 62
54
420
8684544
370
-1
 48
1.0
  6
BYLAYER
100
AcDbLine
 10
98.0247834095334127
 20
-122.2509138623712346
 30
0.0
 11
98.0247834095334127
 21
-119.6499557889939922
 31
0.0
  0
LINE
  5
15B
100
AcDbEntity
  8
0
 62
54
420
8684544
370
-1
 48
1.0
  6
BYLAYER
100
AcDbLine
 10
98.0247834095334127
 20
-119.6499557889939922
 30
0.0
 11
100.6257414829106409
 21
-119.6499557889939922
 31
0.0
  0
LINE
  5
15C
100
AcDbEntity
  8
0
 62
54
420
8684544
370
-1
 48
1.0
  6
BYLAYER
100
AcDbLine
 10
100.6257414829106409
 20
-119.6499557889939922
 30
0.0
 11
100.6257414829106409
 21
-122.2509138623712346
 31
0.0
  0
LINE
  5
15D
100
AcDbEntity
  8
0
 62
54
420
8684544
370
-1
 48
1.0
  6
BYLAYER
100
AcDbLine
 10
100.6257414829106409
 20
-122.2509138623712346
 30
0.0
 11
98.0247834095334127
 21
-122.2509138623712346
 31
0.0
  0
CIRCLE
  5
15E
100
AcDbEntity
  8
0
 62
54
420
8684544
370
-1
 48
1.0
  6
BYLAYER
100
AcDbCircle
 10
127.5151724849463903
 20
-127.5112499658519454
 30
0.0
 40
0.8889993414863594
  0
CIRCLE
  5
15F
100
AcDbEntity
  8
0
 62
54
420
8684544
370
-1
 48
1.0
  6
BYLAYER
100
AcDbCircle
 10
124.9751743664139383
 20
-127.5112499658519454
 30
0.0
 40
0.8889993414863594
  0
CIRCLE
  5
160
100
AcDbEntity
  8
0
 62
54
420
8684544
370
-1
 48
1.0
  6
BYLAYER
100
AcDbCircle
 10
122.4351762478814862
 20
-127.5112499658519454
 30
0.0
 40
0.8889993414863594
  0
CIRCLE
  5
161
100
AcDbEntity
  8
0
 62
54
420
8684544
370
-1
 48
1.0
  6
BYLAYER
100
AcDbCircle
 10
119.8951781293490342
 20
-127.5112499658519454
 30
0.0
 40
0.8889993414863594
  0
CIRCLE
  5
162
100
AcDbEntity
  8
0
 62
54
420
8684544
370
-1
 48
1.0
  6
BYLAYER
100
AcDbCircle
 10
117.3551800108165679
 20
-127.5112499658519454
 30
0.0
 40
0.8889993414863594
  0
CIRCLE
  5
163
100
AcDbEntity
  8
0
 62
54
420
8684544
370
-1
 48
1.0
  6
BYLAYER
100
AcDbCircle
 10
114.8151818922841159
 20
-127.5112499658519454
 30
0.0
 40
0.8889993414863594
  0
CIRCLE
  5
164
100
AcDbEntity
  8
0
 62
54
420
8684544
370
-1
 48
1.0
  6
BYLAYER
100
AcDbCircle
 10
112.2751837737516638
 20
-127.5112499658519454
 30
0.0
 40
0.8889993414863594
  0
CIRCLE
  5
165
100
AcDbEntity
  8
0
 62
54
420
8684544
370
-1
 48
1.0
  6
BYLAYER
100
AcDbCircle
 10
109.7351856552192118
 20
-127.5112499658519454
 30
0.0
 40
0.8889993414863594
  0
CIRCLE
  5
166
100
AcDbEntity
  8
0
 62
54
420
8684544
370
-1
 48
1.0
  6
BYLAYER
100
AcDbCircle
 10
99.4481932751627511
 20
-108.4612640768585266
 30
0.0
 40
1.5999982056240489
  0
CIRCLE
  5
167
100
AcDbEntity
  8
0
 62
54
420
8684544
370
-1
 48
1.0
  6
BYLAYER
100
AcDbCircle
 10
99.4481932751627511
 20
-126.2412509065857193
 30
0.0
 40
1.5999982056240489
  0
CIRCLE
  5
168
100
AcDbEntity
  8
0
 62
54
420
8684544
370
-1
 48
1.0
  6
BYLAYER
100
AcDbCircle
 10
130.8171700390385865
 20
-118.7337810076374609
 30
0.0
 40
1.0921991909689559
  0
CIRCLE
  5
169
100
AcDbEntity
  8
0
 62
54
420
8684544
370
-1
 48
1.0
  6
BYLAYER
100
AcDbCircle
 10
130.8171700390385865
 20
-115.2336636002997352
 30
0.0
 40
1.0921991909689559
  0
CIRCLE
  5
16A
100
AcDbEntity
  8
0
 62
54
420
8684544
370
-1
 48
1.0
  6
BYLAYER
100
AcDbCircle
 10
130.8171700390385581
 20
-110.4637935135132807
 30
0.0
 40
1.4499986421340858
  0
CIRCLE
  5
16B
100
AcDbEntity
  8
0
 62
54
420
8684544
370
-1
 48
1.0
  6
BYLAYER
100
AcDbCircle
 10
130.8171700390385581
 20
-123.6037219402978451
 30
0.0
 40
1.4499986421340858
  0
LINE
  5
16C
100
AcDbEntity
  8
0
 62
54
420
8684544
370
-1
 48
1.0
  6
BYLAYER
100
AcDbLine
 10
128.8349605873320911
 20
-113.5336403195678372
 30
0.0
 11
127.3770016672944649
 21
-113.5336403195678372
 31
0.0
  0
LINE
  5
16D
100
AcDbEntity
  8
0
 62
54
420
8684544
370
-1
 48
1.0
  6
BYLAYER
100
AcDbLine
 10
128.8349605873320911
 20
-120.5313351361247527
 30
0.0
 11
127.3770016672944649
 21
-120.5313351361247527
 31
0.0
  0
LINE
  5
16E
100
AcDbEntity
  8
0
 62
54
420
8684544
370
-1
 48
1.0
  6
BYLAYER
100
AcDbLine
 10
128.8349605873320911
 20
-116.0329984682037718
 30
0.0
 11
127.3770016672944649
 21
-116.0329984682037718
 31
0.0
  0
LINE
  5
16F
100
AcDbEntity
  8
0
 62
54
420
8684544
370
-1
 48
1.0
  6
BYLAYER
100
AcDbLine
 10
128.8349605873320911
 20
-118.0319769874888181
 30
0.0
 11
127.3770016672944649
 21
-118.0319769874888181
 31
0.0
  0
LINE
  5
170
100
AcDbEntity
  8
0
 62
54
420
8684544
370
-1
 48
1.0
  6
BYLAYER
100
AcDbLine
 10
98.0755833719040595
 20
-114.999219233961071
 30
0.0
 11
98.0755833719040595
 21
-112.4998610853251364
 31
0.0
  0
LINE
  5
171
100
AcDbEntity
  8
0
 62
54
420
8684544
370
-1
 48
1.0
  6
BYLAYER
100
AcDbLine
 10
98.0755833719040595
 20
-112.4998610853251364
 30
0.0
 11
100.5749415205399941
 21
-112.4998610853251364
 31
0.0
  0
LINE
  5
172
100
AcDbEntity
  8
0
 62
54
420
8684544
370
-1
 48
1.0
  6
BYLAYER
100
AcDbLine
 10
100.5749415205399941
 20
-112.4998610853251364
 30
0.0
 11
100.5749415205399941
 21
-114.999219233961071
 31
0.0
  0
LINE
  5
173
100
AcDbEntity
  8
0
 62
54
420
8684544
370
-1
 48
1.0
  6
BYLAYER
100
AcDbLine
 10
100.5749415205399941
 20
-114.999219233961071
 30
0.0
 11
98.0755833719040595
 21
-114.999219233961071
 31
0.0
  0
LINE
  5
174
100
AcDbEntity
  8
0
 62
54
420
8684544
370
-1
 48
1.0
  6
BYLAYER
100
AcDbLine
 10
98.0755833719040595
 20
-122.2001139000005736
 30
0.0
 11
98.0755833719040595
 21
-119.700755751364639
 31
0.0
  0
LINE
  5
175
100
AcDbEntity
  8
0
 62
54
420
8684544
370
-1
 48
1.0
  6
BYLAYER
100
AcDbLine
 10
98.0755833719040595
 20
-119.700755751364639
 30
0.0
 11
100.5749415205399941
 21
-119.700755751364639
 31
0.0
  0
LINE
  5
176
100
AcDbEntity
  8
0
 62
54
420
8684544
370
-1
 48
1.0
  6
BYLAYER
100
AcDbLine
 10
100.5749415205399941
 20
-119.700755751364639
 30
0.0
 11
100.5749415205399941
 21
-122.2001139000005736
 31
0.0
  0
LINE
  5
177
100
AcDbEntity
  8
0
 62
54
420
8684544
370
-1
 48
1.0
  6
BYLAYER
100
AcDbLine
 10
100.5749415205399941
 20
-122.2001139000005736
 30
0.0
 11
98.0755833719040595
 21
-122.2001139000005736
 31
0.0
  0
CIRCLE
  5
178
100
AcDbEntity
  8
0
 62
54
420
8684544
370
-1
 48
1.0
  6
BYLAYER
100
AcDbCircle
 10
127.5151724849463903
 20
-127.5112499658519454
 30
0.0
 40
0.8381993791157103
  0
CIRCLE
  5
179
100
AcDbEntity
  8
0
 62
54
420
8684544
370
-1
 48
1.0
  6
BYLAYER
100
AcDbCircle
 10
124.9751743664139383
 20
-127.5112499658519454
 30
0.0
 40
0.8381993791157103
  0
CIRCLE
  5
17A
100
AcDbEntity
  8
0
 62
54
420
8684544
370
-1
 48
1.0
  6
BYLAYER
100
AcDbCircle
 10
122.4351762478814862
 20
-127.5112499658519454
 30
0.0
 40
0.8381993791157103
  0
CIRCLE
  5
17B
100
AcDbEntity
  8
0
 62
54
420
8684544
370
-1
 48
1.0
  6
BYLAYER
100
AcDbCircle
 10
119.8951781293490342
 20
-127.5112499658519454
 30
0.0
 40
0.8381993791157103
  0
CIRCLE
  5
17C
100
AcDbEntity
  8
0
 62
54
420
8684544
370
-1
 48
1.0
  6
BYLAYER
100
AcDbCircle
 10
117.3551800108165679
 20
-127.5112499658519454
 30
0.0
 40
0.8381993791157103
  0
CIRCLE
  5
17D
100
AcDbEntity
  8
0
 62
54
420
8684544
370
-1
 48
1.0
  6
BYLAYER
100
AcDbCircle
 10
114.8151818922841159
 20
-127.5112499658519454
 30
0.0
 40
0.8381993791157103
  0
CIRCLE
  5
17E
100
AcDbEntity
  8
0
 62
54
420
8684544
370
-1
 48
1.0
  6
BYLAYER
100
AcDbCircle
 10
112.2751837737516638
 20
-127.5112499658519454
 30
0.0
 40
0.8381993791157103
  0
CIRCLE
  5
17F
100
AcDbEntity
  8
0
 62
54
420
8684544
370
-1
 48
1.0
  6
BYLAYER
100
AcDbCircle
 10
109.7351856552192118
 20
-127.5112499658519454
 30
0.0
 40
0.8381993791157103
  0
CIRCLE
  5
180
100
AcDbEntity
  8
0
 62
7
420
16777215
370
-1
 48
1.0
  6
BYLAYER
100
AcDbCircle
 10
99.4481932751627511
 20
-108.4612640768585266
 30
0.0
 40
1.2499991394808843
  0
CIRCLE
  5
181
100
AcDbEntity
  8
0
 62
7
420
16777215
370
-1
 48
1.0
  6
BYLAYER
100
AcDbCircle
 10
99.4481932751627511
 20
-126.2412509065857193
 30
0.0
 40
1.2499991394808843
  0
CIRCLE
  5
182
100
AcDbEntity
  8
0
 62
7
420
16777215
370
-1
 48
1.0
  6
BYLAYER
100
AcDbCircle
 10
130.8171700390385581
 20
-118.7337810076374609
 30
0.0
 40
0.4999986550330999
  0
CIRCLE
  5
183
100
AcDbEntity
  8
0
 62
7
420
16777215
370
-1
 48
1.0
  6
BYLAYER
100
AcDbCircle
 10
130.8171700390385581
 20
-115.2336636002997352
 30
0.0
 40
0.4999986550330999
  0
CIRCLE
  5
184
100
AcDbEntity
  8
0
 62
7
420
16777215
370
-1
 48
1.0
  6
BYLAYER
100
AcDbCircle
 10
130.8171700390385865
 20
-110.4637935135132807
 30
0.0
 40
1.1499994135542546
  0
CIRCLE
  5
185
100
AcDbEntity
  8
0
 62
7
420
16777215
370
-1
 48
1.0
  6
BYLAYER
100
AcDbCircle
 10
130.8171700390385865
 20
-123.6037219402978451
 30
0.0
 40
1.1499994135542546
  0
CIRCLE
  5
186
100
AcDbEntity
  8
0
 62
7
420
16777215
370
-1
 48
1.0
  6
BYLAYER
100
AcDbCircle
 10
128.107251126372546
 20
-113.5336403195678372
 30
0.0
 40
0.4749999681505215
  0
CIRCLE
  5
187
100
AcDbEntity
  8
0
 62
7
420
16777215
370
-1
 48
1.0
  6
BYLAYER
100
AcDbCircle
 10
128.107251126372546
 20
-120.5338751342432886
 30
0.0
 40
0.4749999681505215
  0
CIRCLE
  5
188
100
AcDbEntity
  8
0
 62
7
420
16777215
370
-1
 48
1.0
  6
BYLAYER
100
AcDbCircle
 10
128.107251126372546
 20
-116.0337630076374609
 30
0.0
 40
0.4749999681505215
  0
CIRCLE
  5
189
100
AcDbEntity
  8
0
 62
7
420
16777215
370
-1
 48
1.0
  6
BYLAYER
100
AcDbCircle
 10
128.107251126372546
 20
-118.0337524461736791
 30
0.0
 40
0.4749999681505215
  0
CIRCLE
  5
18A
100
AcDbEntity
  8
0
 62
7
420
16777215
370
-1
 48
1.0
  6
BYLAYER
100
AcDbCircle
 10
99.3262733654732131
 20
-113.7513156183279506
 30
0.0
 40
0.2999991777798698
  0
CIRCLE
  5
18B
100
AcDbEntity
  8
0
 62
7
420
16777215
370
-1
 48
1.0
  6
BYLAYER
100
AcDbCircle
 10
99.3262733654732131
 20
-120.9511993651162811
 30
0.0
 40
0.2999991777798698
  0
CIRCLE
  5
18C
100
AcDbEntity
  8
0
 62
7
420
16777215
370
-1
 48
1.0
  6
BYLAYER
100
AcDbCircle
 10
127.5151724849463761
 20
-127.5112499658519454
 30
0.0
 40
0.4999986550330999
  0
CIRCLE
  5
18D
100
AcDbEntity
  8
0
 62
7
420
16777215
370
-1
 48
1.0
  6
BYLAYER
100
AcDbCircle
 10
124.9751743664139241
 20
-127.5112499658519454
 30
0.0
 40
0.4999986550330999
  0
CIRCLE
  5
18E
100
AcDbEntity
  8
0
 62
7
420
16777215
370
-1
 48
1.0
  6
BYLAYER
100
AcDbCircle
 10
122.435176247881472
 20
-127.5112499658519454
 30
0.0
 40
0.4999986550330999
  0
CIRCLE
  5
18F
100
AcDbEntity
  8
0
 62
7
420
16777215
370
-1
 48
1.0
  6
BYLAYER
100
AcDbCircle
 10
119.8951781293490058
 20
-127.5112499658519454
 30
0.0
 40
0.4999986550330999
  0
CIRCLE
  5
190
100
AcDbEntity
  8
0
 62
7
420
16777215
370
-1
 48
1.0
  6
BYLAYER
100
AcDbCircle
 10
117.3551800108165537
 20
-127.5112499658519454
 30
0.0
 40
0.4999986550330999
  0
CIRCLE
  5
191
100
AcDbEntity
  8
0
 62
7
420
16777215
370
-1
 48
1.0
  6
BYLAYER
100
AcDbCircle
 10
114.8151818922841017
 20
-127.5112499658519454
 30
0.0
 40
0.4999986550330999
  0
CIRCLE
  5
192
100
AcDbEntity
  8
0
 62
7
420
16777215
370
-1
 48
1.0
  6
BYLAYER
100
AcDbCircle
 10
112.2751837737516496
 20
-127.5112499658519454
 30
0.0
 40
0.4999986550330999
  0
CIRCLE
  5
193
100
AcDbEntity
  8
0
 62
7
420
16777215
370
-1
 48
1.0
  6
BYLAYER
100
AcDbCircle
 10
109.7351856552191833
 20
-127.5112499658519454
 30
0.0
 40
0.4999986550330999
  0
CIRCLE
  5
194
100
AcDbEntity
  8
0
 62
54
420
8684544
370
-1
 48
1.0
  6
BYLAYER
100
AcDbCircle
 10
99.4481932751627511
 20
-108.4612640768585266
 30
0.0
 40
1.5999982056240489
  0
CIRCLE
  5
195
100
AcDbEntity
  8
0
 62
54
420
8684544
370
-1
 48
1.0
  6
BYLAYER
100
AcDbCircle
 10
99.4481932751627511
 20
-126.2412509065857193
 30
0.0
 40
1.5999982056240489
  0
CIRCLE
  5
196
100
AcDbEntity
  8
0
 62
54
420
8684544
370
-1
 48
1.0
  6
BYLAYER
100
AcDbCircle
 10
130.8171700390385865
 20
-118.7337810076374609
 30
0.0
 40
1.0921991909689559
  0
CIRCLE
  5
197
100
AcDbEntity
  8
0
 62
54
420
8684544
370
-1
 48
1.0
  6
BYLAYER
100
AcDbCircle
 10
130.8171700390385865
 20
-115.2336636002997352
 30
0.0
 40
1.0921991909689559
  0
CIRCLE
  5
198
100
AcDbEntity
  8
0
 62
54
420
8684544
370
-1
 48
1.0
  6
BYLAYER
100
AcDbCircle
 10
130.8171700390385581
 20
-110.4637935135132807
 30
0.0
 40
1.4499986421340858
  0
CIRCLE
  5
199
100
AcDbEntity
  8
0
 62
54
420
8684544
370
-1
 48
1.0
  6
BYLAYER
100
AcDbCircle
 10
130.8171700390385581
 20
-123.6037219402978451
 30
0.0
 40
1.4499986421340858
  0
LINE
  5
19A
100
AcDbEntity
  8
0
 62
54
420
8684544
370
-1
 48
1.0
  6
BYLAYER
100
AcDbLine
 10
128.8349605873320911
 20
-113.5336403195678372
 30
0.0
 11
127.3770016672944649
 21
-113.5336403195678372
 31
0.0
  0
LINE
  5
19B
100
AcDbEntity
  8
0
 62
54
420
8684544
370
-1
 48
1.0
  6
BYLAYER
100
AcDbLine
 10
128.8349605873320911
 20
-120.5313351361247527
 30
0.0
 11
127.3770016672944649
 21
-120.5313351361247527
 31
0.0
  0
LINE
  5
19C
100
AcDbEntity
  8
0
 62
54
420
8684544
370
-1
 48
1.0
  6
BYLAYER
100
AcDbLine
 10
128.8349605873320911
 20
-116.0329984682037718
 30
0.0
 11
127.3770016672944649
 21
-116.0329984682037718
 31
0.0
  0
LINE
  5
19D
100
AcDbEntity
  8
0
 62
54
420
8684544
370
-1
 48
1.0
  6
BYLAYER
100
AcDbLine
 10
128.8349605873320911
 20
-118.0319769874888181
 30
0.0
 11
127.3770016672944649
 21
-118.0319769874888181
 31
0.0
  0
LINE
  5
19E
100
AcDbEntity
  8
0
 62
54
420
8684544
370
-1
 48
1.0
  6
BYLAYER
100
AcDbLine
 10
98.0755833719040595
 20
-114.999219233961071
 30
0.0
 11
98.0755833719040595
 21
-112.4998610853251364
 31
0.0
  0
LINE
  5
19F
100
AcDbEntity
  8
0
 62
54
420
8684544
370
-1
 48
1.0
  6
BYLAYER
100
AcDbLine
 10
98.0755833719040595
 20
-112.4998610853251364
 30
0.0
 11
100.5749415205399941
 21
-112.4998610853251364
 31
0.0
  0
LINE
  5
1A0
100
AcDbEntity
  8
0
 62
54
420
8684544
370
-1
 48
1.0
  6
BYLAYER
100
AcDbLine
 10
100.5749415205399941
 20
-112.4998610853251364
 30
0.0
 11
100.5749415205399941
 21
-114.999219233961071
 31
0.0
  0
LINE
  5
1A1
100
AcDbEntity
  8
0
 62
54
420
8684544
370
-1
 48
1.0
  6
BYLAYER
100
AcDbLine
 10
100.5749415205399941
 20
-114.999219233961071
 30
0.0
 11
98.0755833719040595
 21
-114.999219233961071
 31
0.0
  0
LINE
  5
1A2
100
AcDbEntity
  8
0
 62
54
420
8684544
370
-1
 48
1.0
  6
BYLAYER
100
AcDbLine
 10
98.0755833719040595
 20
-122.2001139000005736
 30
0.0
 11
98.0755833719040595
 21
-119.700755751364639
 31
0.0
  0
LINE
  5
1A3
100
AcDbEntity
  8
0
 62
54
420
8684544
370
-1
 48
1.0
  6
BYLAYER
100
AcDbLine
 10
98.0755833719040595
 20
-119.700755751364639
 30
0.0
 11
100.5749415205399941
 21
-119.700755751364639
 31
0.0
  0
LINE
  5
1A4
100
AcDbEntity
  8
0
 62
54
420
8684544
370
-1
 48
1.0
  6
BYLAYER
100
AcDbLine
 10
100.5749415205399941
 20
-119.700755751364639
 30
0.0
 11
100.5749415205399941
 21
-122.2001139000005736
 31
0.0
  0
LINE
  5
1A5
100
AcDbEntity
  8
0
 62
54
420
8684544
370
-1
 48
1.0
  6
BYLAYER
100
AcDbLine
 10
100.5749415205399941
 20
-122.2001139000005736
 30
0.0
 11
98.0755833719040595
 21
-122.2001139000005736
 31
0.0
  0
CIRCLE
  5
1A6
100
AcDbEntity
  8
0
 62
54
420
8684544
370
-1
 48
1.0
  6
BYLAYER
100
AcDbCircle
 10
127.5151724849463903
 20
-127.5112499658519454
 30
0.0
 40
0.8381993791157103
  0
CIRCLE
  5
1A7
100
AcDbEntity
  8
0
 62
54
420
8684544
370
-1
 48
1.0
  6
BYLAYER
100
AcDbCircle
 10
124.9751743664139383
 20
-127.5112499658519454
 30
0.0
 40
0.8381993791157103
  0
CIRCLE
  5
1A8
100
AcDbEntity
  8
0
 62
54
420
8684544
370
-1
 48
1.0
  6
BYLAYER
100
AcDbCircle
 10
122.4351762478814862
 20
-127.5112499658519454
 30
0.0
 40
0.8381993791157103
  0
CIRCLE
  5
1A9
100
AcDbEntity
  8
0
 62
54
420
8684544
370
-1
 48
1.0
  6
BYLAYER
100
AcDbCircle
 10
119.8951781293490342
 20
-127.5112499658519454
 30
0.0
 40
0.8381993791157103
  0
CIRCLE
  5
1AA
100
AcDbEntity
  8
0
 62
54
420
8684544
370
-1
 48
1.0
  6
BYLAYER
100
AcDbCircle
 10
117.3551800108165679
 20
-127.5112499658519454
 30
0.0
 40
0.8381993791157103
  0
CIRCLE
  5
1AB
100
AcDbEntity
  8
0
 62
54
420
8684544
370
-1
 48
1.0
  6
BYLAYER
100
AcDbCircle
 10
114.8151818922841159
 20
-127.5112499658519454
 30
0.0
 40
0.8381993791157103
  0
CIRCLE
  5
1AC
100
AcDbEntity
  8
0
 62
54
420
8684544
370
-1
 48
1.0
  6
BYLAYER
100
AcDbCircle
 10
112.2751837737516638
 20
-127.5112499658519454
 30
0.0
 40
0.8381993791157103
  0
CIRCLE
  5
1AD
100
AcDbEntity
  8
0
 62
54
420
8684544
370
-1
 48
1.0
  6
BYLAYER
100
AcDbCircle
 10
109.7351856552192118
 20
-127.5112499658519454
 30
0.0
 40
0.8381993791157103
  0
CIRCLE
  5
1AE
100
AcDbEntity
  8
0
 62
7
420
16777215
370
-1
 48
1.0
  6
BYLAYER
100
AcDbCircle
 10
99.4481932751627511
 20
-108.4612640768585266
 30
0.0
 40
1.2499991394808843
  0
CIRCLE
  5
1AF
100
AcDbEntity
  8
0
 62
7
420
16777215
370
-1
 48
1.0
  6
BYLAYER
100
AcDbCircle
 10
99.4481932751627511
 20
-126.2412509065857193
 30
0.0
 40
1.2499991394808843
  0
CIRCLE
  5
1B0
100
AcDbEntity
  8
0
 62
7
420
16777215
370
-1
 48
1.0
  6
BYLAYER
100
AcDbCircle
 10
130.8171700390385581
 20
-118.7337810076374609
 30
0.0
 40
0.4999986550330999
  0
CIRCLE
  5
1B1
100
AcDbEntity
  8
0
 62
7
420
16777215
370
-1
 48
1.0
  6
BYLAYER
100
AcDbCircle
 10
130.8171700390385581
 20
-115.2336636002997352
 30
0.0
 40
0.4999986550330999
  0
CIRCLE
  5
1B2
100
AcDbEntity
  8
0
 62
7
420
16777215
370
-1
 48
1.0
  6
BYLAYER
100
AcDbCircle
 10
130.8171700390385865
 20
-110.4637935135132807
 30
0.0
 40
1.1499994135542546
  0
CIRCLE
  5
1B3
100
AcDbEntity
  8
0
 62
7
420
16777215
370
-1
 48
1.0
  6
BYLAYER
100
AcDbCircle
 10
130.8171700390385865
 20
-123.6037219402978451
 30
0.0
 40
1.1499994135542546
  0
CIRCLE
  5
1B4
100
AcDbEntity
  8
0
 62
7
420
16777215
370
-1
 48
1.0
  6
BYLAYER
100
AcDbCircle
 10
128.107251126372546
 20
-113.5336403195678372
 30
0.0
 40
0.4749999681505215
  0
CIRCLE
  5
1B5
100
AcDbEntity
  8
0
 62
7
420
16777215
370
-1
 48
1.0
  6
BYLAYER
100
AcDbCircle
 10
128.107251126372546
 20
-120.5338751342432886
 30
0.0
 40
0.4749999681505215
  0
CIRCLE
  5
1B6
100
AcDbEntity
  8
0
 62
7
420
16777215
370
-1
 48
1.0
  6
BYLAYER
100
AcDbCircle
 10
128.107251126372546
 20
-116.0337630076374609
 30
0.0
 40
0.4749999681505215
  0
CIRCLE
  5
1B7
100
AcDbEntity
  8
0
 62
7
420
16777215
370
-1
 48
1.0
  6
BYLAYER
100
AcDbCircle
 10
128.107251126372546
 20
-118.0337524461736791
 30
0.0
 40
0.4749999681505215
  0
CIRCLE
  5
1B8
100
AcDbEntity
  8
0
 62
7
420
16777215
370
-1
 48
1.0
  6
BYLAYER
100
AcDbCircle
 10
99.3262733654732131
 20
-113.7513156183279506
 30
0.0
 40
0.2999991777798698
  0
CIRCLE
  5
1B9
100
AcDbEntity
  8
0
 62
7
420
16777215
370
-1
 48
1.0
  6
BYLAYER
100
AcDbCircle
 10
99.3262733654732131
 20
-120.9511993651162811
 30
0.0
 40
0.2999991777798698
  0
CIRCLE
  5
1BA
100
AcDbEntity
  8
0
 62
7
420
16777215
370
-1
 48
1.0
  6
BYLAYER
100
AcDbCircle
 10
127.5151724849463761
 20
-127.5112499658519454
 30
0.0
 40
0.4999986550330999
  0
CIRCLE
  5
1BB
100
AcDbEntity
  8
0
 62
7
420
16777215
370
-1
 48
1.0
  6
BYLAYER
100
AcDbCircle
 10
124.9751743664139241
 20
-127.5112499658519454
 30
0.0
 40
0.4999986550330999
  0
CIRCLE
  5
1BC
100
AcDbEntity
  8
0
 62
7
420
16777215
370
-1
 48
1.0
  6
BYLAYER
100
AcDbCircle
 10
122.435176247881472
 20
-127.5112499658519454
 30
0.0
 40
0.4999986550330999
  0
CIRCLE
  5
1BD
100
AcDbEntity
  8
0
 62
7
420
16777215
370
-1
 48
1.0
  6
BYLAYER
100
AcDbCircle
 10
119.8951781293490058
 20
-127.5112499658519454
 30
0.0
 40
0.4999986550330999
  0
CIRCLE
  5
1BE
100
AcDbEntity
  8
0
 62
7
420
16777215
370
-1
 48
1.0
  6
BYLAYER
100
AcDbCircle
 10
117.3551800108165537
 20
-127.5112499658519454
 30
0.0
 40
0.4999986550330999
  0
CIRCLE
  5
1BF
100
AcDbEntity
  8
0
 62
7
420
16777215
370
-1
 48
1.0
  6
BYLAYER
100
AcDbCircle
 10
114.8151818922841017
 20
-127.5112499658519454
 30
0.0
 40
0.4999986550330999
  0
CIRCLE
  5
1C0
100
AcDbEntity
  8
0
 62
7
420
16777215
370
-1
 48
1.0
  6
BYLAYER
100
AcDbCircle
 10
112.2751837737516496
 20
-127.5112499658519454
 30
0.0
 40
0.4999986550330999
  0
CIRCLE
  5
1C1
100
AcDbEntity
  8
0
 62
7
420
16777215
370
-1
 48
1.0
  6
BYLAYER
100
AcDbCircle
 10
109.7351856552191833
 20
-127.5112499658519454
 30
0.0
 40
0.4999986550330999
  0
LINE
  5
1C2
100
AcDbEntity
  8
0
 62
8
420
8684676
370
-1
 48
1.0
  6
BYLAYER
100
AcDbLine
 10
97.9003235017253246
 20
-119.3502360110071692
 30
0.0
 11
97.9003235017253246
 21
-120.0487354936035871
 31
0.0
  0
LINE
  5
1C3
100
AcDbEntity
  8
0
 62
8
420
8684676
370
-1
 48
1.0
  6
BYLAYER
100
AcDbLine
 10
98.5988229843217425
 20
-119.2994360486365082
 30
0.0
 11
98.5988229843217425
 21
-120.0487354936035871
 31
0.0
  0
LINE
  5
1C4
100
AcDbEntity
  8
0
 62
8
420
8684676
370
-1
 48
1.0
  6
BYLAYER
100
AcDbLine
 10
97.4253438535597525
 20
-119.3502360110071692
 30
0.0
 11
97.9003235017253246
 21
-119.3502360110071692
 31
0.0
  0
LINE
  5
1C5
100
AcDbEntity
  8
0
 62
8
420
8684676
370
-1
 48
1.0
  6
BYLAYER
100
AcDbLine
 10
97.4253438535597525
 20
-120.0258755105367925
 30
0.0
 11
97.4253438535597525
 21
-119.3502360110071692
 31
0.0
  0
LINE
  5
1C6
100
AcDbEntity
  8
0
 62
8
420
8684676
370
-1
 48
1.0
  6
BYLAYER
100
AcDbLine
 10
97.9003235017253246
 20
-120.0258755105367925
 30
0.0
 11
97.4253438535597525
 21
-120.0258755105367925
 31
0.0
  0
ARC
  5
1C7
100
AcDbEntity
  8
0
 62
8
420
8684676
370
-1
 48
1.0
  6
BYLAYER
100
AcDbCircle
 10
98.051339300457883
 20
-120.0262436215140696
 30
0.0
 40
0.1499998428897403
100
AcDbArc
 50
179.9564126956518919
 51
269.9465580650321499
  0
ARC
  5
1C8
100
AcDbEntity
  8
0
 62
8
420
8684676
370
-1
 48
1.0
  6
BYLAYER
100
AcDbCircle
 10
98.0513833183831736
 20
-120.1012435762404067
 30
0.0
 40
0.0750000484447821
100
AcDbArc
 50
269.859488989528586
 51
359.9466168486064817
  0
LINE
  5
1C9
100
AcDbEntity
  8
0
 62
8
420
8684676
370
-1
 48
1.0
  6
BYLAYER
100
AcDbLine
 10
98.1238433361561704
 20
-120.0741354747889176
 30
0.0
 11
98.1238433361561704
 21
-120.0995354559742339
 31
0.0
  0
LINE
  5
1CA
100
AcDbEntity
  8
0
 62
8
420
8684676
370
-1
 48
1.0
  6
BYLAYER
100
AcDbLine
 10
99.2008025384139387
 20
-120.0741354747889176
 30
0.0
 11
98.1238433361561704
 21
-120.0741354747889176
 31
0.0
  0
ARC
  5
1CB
100
AcDbEntity
  8
0
 62
8
420
8684676
370
-1
 48
1.0
  6
BYLAYER
100
AcDbCircle
 10
99.2012465382770046
 20
-119.8261676586595144
 30
0.0
 40
0.2499998228161752
100
AcDbArc
 50
270.0146676752522694
 51
359.9853323247629078
  0
LINE
  5
1CC
100
AcDbEntity
  8
0
 62
8
420
8684676
370
-1
 48
1.0
  6
BYLAYER
100
AcDbLine
 10
99.449722354030115
 20
-119.5737558454380149
 30
0.0
 11
99.449722354030115
 21
-119.8252156591727271
 31
0.0
  0
ARC
  5
1CD
100
AcDbEntity
  8
0
 62
8
420
8684676
370
-1
 48
1.0
  6
BYLAYER
100
AcDbCircle
 10
99.1762458486191747
 20
-119.576214551601538
 30
0.0
 40
0.2750005162972627
100
AcDbArc
 50
359.9830629917941565
 51
90.0169370081998181
  0
LINE
  5
1CE
100
AcDbEntity
  8
0
 62
8
420
8684676
370
-1
 48
1.0
  6
BYLAYER
100
AcDbLine
 10
98.5988229843217425
 20
-119.2994360486365082
 30
0.0
 11
99.1754025572286082
 21
-119.2994360486365082
 31
0.0
  0
LINE
  5
1CF
100
AcDbEntity
  8
0
 62
8
420
8684676
370
-1
 48
1.0
  6
BYLAYER
100
AcDbLine
 10
98.1238433361561704
 20
-119.2994360486365082
 30
0.0
 11
98.5988229843217425
 21
-119.2994360486365082
 31
0.0
  0
ARC
  5
1D0
100
AcDbEntity
  8
0
 62
8
420
8684676
370
-1
 48
1.0
  6
BYLAYER
100
AcDbCircle
 10
98.026383383209108
 20
-119.301138072514874
 30
0.0
 40
0.0999999799264349
100
AcDbArc
 50
359.9564696305661755
 51
90.0435303694570166
  0
LINE
  5
1D1
100
AcDbEntity
  8
0
 62
8
420
8684676
370
-1
 48
1.0
  6
BYLAYER
100
AcDbLine
 10
97.9993834283480822
 20
-119.2003761220137505
 30
0.0
 11
98.0247834095334127
 21
-119.2003761220137505
 31
0.0
  0
ARC
  5
1D2
100
AcDbEntity
  8
0
 62
8
420
8684676
370
-1
 48
1.0
  6
BYLAYER
100
AcDbCircle
 10
97.988861180260713
 20
-119.2886659432310381
 30
0.0
 40
0.088387870527939
100
AcDbArc
 50
82.0006331685172256
 51
171.972071475251397
  0
LINE
  5
1D3
100
AcDbEntity
  8
0
 62
8
420
8684676
370
-1
 48
1.0
  6
BYLAYER
100
AcDbLine
 10
97.9003235017253246
 20
-119.3502360110071692
 30
0.0
 11
97.9003235017253246
 21
-119.2740360674511919
 31
0.0
  0
LINE
  5
1D4
100
AcDbEntity
  8
0
 62
8
420
8684676
370
-1
 48
1.0
  6
BYLAYER
100
AcDbLine
 10
96.7243043728447986
 20
-120.8488349009413128
 30
0.0
 11
96.8741642618382031
 21
-120.8488349009413128
 31
0.0
  0
LINE
  5
1D5
100
AcDbEntity
  8
0
 62
8
420
8684676
370
-1
 48
1.0
  6
BYLAYER
100
AcDbLine
 10
96.3255246682352038
 20
-121.1256946958613554
 30
0.0
 11
96.7243043728447986
 21
-120.8488349009413128
 31
0.0
  0
LINE
  5
1D6
100
AcDbEntity
  8
0
 62
8
420
8684676
370
-1
 48
1.0
  6
BYLAYER
100
AcDbLine
 10
96.5007845384139387
 20
-121.3492145302922012
 30
0.0
 11
96.3255246682352038
 21
-121.1256946958613554
 31
0.0
  0
LINE
  5
1D7
100
AcDbEntity
  8
0
 62
8
420
8684676
370
-1
 48
1.0
  6
BYLAYER
100
AcDbLine
 10
96.924964224208864
 20
-121.0494947523053781
 30
0.0
 11
96.5007845384139387
 21
-121.3492145302922012
 31
0.0
  0
LINE
  5
1D8
100
AcDbEntity
  8
0
 62
8
420
8684676
370
-1
 48
1.0
  6
BYLAYER
100
AcDbLine
 10
96.7497043540301149
 20
-113.8994000486365081
 30
0.0
 11
96.924964224208864
 21
-113.8994000486365081
 31
0.0
  0
LINE
  5
1D9
100
AcDbEntity
  8
0
 62
8
420
8684676
370
-1
 48
1.0
  6
BYLAYER
100
AcDbLine
 10
96.3255246682352038
 20
-113.5996802706496851
 30
0.0
 11
96.7497043540301149
 21
-113.8994000486365081
 31
0.0
  0
LINE
  5
1DA
100
AcDbEntity
  8
0
 62
8
420
8684676
370
-1
 48
1.0
  6
BYLAYER
100
AcDbLine
 10
96.5007845384139387
 20
-113.3761604362188251
 30
0.0
 11
96.3255246682352038
 21
-113.5996802706496851
 31
0.0
  0
LINE
  5
1DB
100
AcDbEntity
  8
0
 62
8
420
8684676
370
-1
 48
1.0
  6
BYLAYER
100
AcDbLine
 10
96.5007845384139387
 20
-113.3761604362188251
 30
0.0
 11
96.924964224208864
 21
-113.6758802142056624
 31
0.0
  0
LINE
  5
1DC
100
AcDbEntity
  8
0
 62
8
420
8684676
370
-1
 48
1.0
  6
BYLAYER
100
AcDbLine
 10
96.6760444085926736
 20
-120.4500551963317179
 30
0.0
 11
96.924964224208864
 21
-120.4500551963317179
 31
0.0
  0
ARC
  5
1DD
100
AcDbEntity
  8
0
 62
8
420
8684676
370
-1
 48
1.0
  6
BYLAYER
100
AcDbCircle
 10
96.6761790065594226
 20
-120.1263248380639226
 30
0.0
 40
0.3250003792605867
100
AcDbArc
 50
179.9789501108851937
 51
270.0210498891087241
  0
LINE
  5
1DE
100
AcDbEntity
  8
0
 62
8
420
8684676
370
-1
 48
1.0
  6
BYLAYER
100
AcDbLine
 10
96.35092464942052
 20
-114.6258395105367924
 30
0.0
 11
96.35092464942052
 21
-120.1249354371595643
 31
0.0
  0
ARC
  5
1DF
100
AcDbEntity
  8
0
 62
8
420
8684676
370
-1
 48
1.0
  6
BYLAYER
100
AcDbCircle
 10
96.7011776897451085
 20
-114.6263348099394932
 30
0.0
 40
0.3499990407431753
100
AcDbArc
 50
89.997920939833989
 51
180.0020790599663769
  0
LINE
  5
1E0
100
AcDbEntity
  8
0
 62
8
420
8684676
370
-1
 48
1.0
  6
BYLAYER
100
AcDbLine
 10
96.924964224208864
 20
-114.2753197701793226
 30
0.0
 11
96.6989043916594682
 21
-114.2753197701793226
 31
0.0
  0
LINE
  5
1E1
100
AcDbEntity
  8
0
 62
8
420
8684676
370
-1
 48
1.0
  6
BYLAYER
100
AcDbLine
 10
101.8754205572286082
 20
-117.4503174183448806
 30
0.0
 11
101.4004409090630503
 21
-117.4503174183448806
 31
0.0
  0
LINE
  5
1E2
100
AcDbEntity
  8
0
 62
8
420
8684676
370
-1
 48
1.0
  6
BYLAYER
100
AcDbLine
 10
101.8754205572286082
 20
-117.2242575857954989
 30
0.0
 11
101.8754205572286082
 21
-117.4503174183448806
 31
0.0
  0
LINE
  5
1E3
100
AcDbEntity
  8
0
 62
8
420
8684676
370
-1
 48
1.0
  6
BYLAYER
100
AcDbLine
 10
101.4004409090630503
 20
-117.2242575857954989
 30
0.0
 11
101.8754205572286082
 21
-117.2242575857954989
 31
0.0
  0
LINE
  5
1E4
100
AcDbEntity
  8
0
 62
8
420
8684676
370
-1
 48
1.0
  6
BYLAYER
100
AcDbLine
 10
102.2742002618382031
 20
-117.874497104139806
 30
0.0
 11
101.8246205948579615
 21
-117.874497104139806
 31
0.0
  0
LINE
  5
1E5
100
AcDbEntity
  8
0
 62
8
420
8684676
370
-1
 48
1.0
  6
BYLAYER
100
AcDbLine
 10
102.2742002618382031
 20
-116.8737378454380149
 30
0.0
 11
102.2742002618382031
 21
-117.874497104139806
 31
0.0
  0
LINE
  5
1E6
100
AcDbEntity
  8
0
 62
8
420
8684676
370
-1
 48
1.0
  6
BYLAYER
100
AcDbLine
 10
101.8246205948579615
 20
-116.8737378454380149
 30
0.0
 11
102.2742002618382031
 21
-116.8737378454380149
 31
0.0
  0
LINE
  5
1E7
100
AcDbEntity
  8
0
 62
8
420
8684676
370
-1
 48
1.0
  6
BYLAYER
100
AcDbLine
 10
101.9998804650366964
 20
-120.6989750119478941
 30
0.0
 11
101.8246205948579615
 21
-120.6989750119478941
 31
0.0
  0
LINE
  5
1E8
100
AcDbEntity
  8
0
 62
8
420
8684676
370
-1
 48
1.0
  6
BYLAYER
100
AcDbLine
 10
101.9998804650366964
 20
-120.9504348256826063
 30
0.0
 11
101.9998804650366964
 21
-120.6989750119478941
 31
0.0
  0
LINE
  5
1E9
100
AcDbEntity
  8
0
 62
8
420
8684676
370
-1
 48
1.0
  6
BYLAYER
100
AcDbLine
 10
102.2742002618382031
 20
-120.9504348256826063
 30
0.0
 11
101.9998804650366964
 21
-120.9504348256826063
 31
0.0
  0
LINE
  5
1EA
100
AcDbEntity
  8
0
 62
8
420
8684676
370
-1
 48
1.0
  6
BYLAYER
100
AcDbLine
 10
102.2742002618382031
 20
-117.874497104139806
 30
0.0
 11
102.2742002618382031
 21
-120.9504348256826063
 31
0.0
  0
LINE
  5
1EB
100
AcDbEntity
  8
0
 62
8
420
8684676
370
-1
 48
1.0
  6
BYLAYER
100
AcDbLine
 10
102.2742002618382031
 20
-113.77494014082842
 30
0.0
 11
102.2742002618382031
 21
-116.8737378454380149
 31
0.0
  0
LINE
  5
1EC
100
AcDbEntity
  8
0
 62
8
420
8684676
370
-1
 48
1.0
  6
BYLAYER
100
AcDbLine
 10
101.9744804838513801
 20
-113.77494014082842
 30
0.0
 11
102.2742002618382031
 21
-113.77494014082842
 31
0.0
  0
LINE
  5
1ED
100
AcDbEntity
  8
0
 62
8
420
8684676
370
-1
 48
1.0
  6
BYLAYER
100
AcDbLine
 10
101.9744804838513801
 20
-113.9248000298218386
 30
0.0
 11
101.9744804838513801
 21
-113.77494014082842
 31
0.0
  0
LINE
  5
1EE
100
AcDbEntity
  8
0
 62
8
420
8684676
370
-1
 48
1.0
  6
BYLAYER
100
AcDbLine
 10
101.850020576043292
 20
-113.9248000298218386
 30
0.0
 11
101.9744804838513801
 21
-113.9248000298218386
 31
0.0
  0
LINE
  5
1EF
100
AcDbEntity
  8
0
 62
8
420
8684676
370
-1
 48
1.0
  6
BYLAYER
100
AcDbLine
 10
101.2505810200696317
 20
-120.5262551398876951
 30
0.0
 11
101.2505810200696317
 21
-121.0748947334906944
 31
0.0
  0
ARC
  5
1F0
100
AcDbEntity
  8
0
 62
8
420
8684676
370
-1
 48
1.0
  6
BYLAYER
100
AcDbCircle
 10
101.4263427937704023
 20
-120.5262490437860237
 30
0.0
 40
0.1749997743713931
100
AcDbArc
 50
89.998004106585384
 51
180.0019958934434499
  0
LINE
  5
1F1
100
AcDbEntity
  8
0
 62
8
420
8684676
370
-1
 48
1.0
  6
BYLAYER
100
AcDbLine
 10
101.7509606494205201
 20
-120.350995269708946
 30
0.0
 11
101.4258408902483666
 21
-120.350995269708946
 31
0.0
  0
ARC
  5
1F2
100
AcDbEntity
  8
0
 62
8
420
8684676
370
-1
 48
1.0
  6
BYLAYER
100
AcDbCircle
 10
101.7513985776493968
 20
-120.2762494466072951
 30
0.0
 40
0.0750000484447821
100
AcDbArc
 50
269.859488989528586
 51
359.9466168486064817
  0
LINE
  5
1F3
100
AcDbEntity
  8
0
 62
8
420
8684676
370
-1
 48
1.0
  6
BYLAYER
100
AcDbLine
 10
101.8246205948579615
 20
-119.8252156591727271
 30
0.0
 11
101.8246205948579615
 21
-120.274795326152983
 31
0.0
  0
LINE
  5
1F4
100
AcDbEntity
  8
0
 62
8
420
8684676
370
-1
 48
1.0
  6
BYLAYER
100
AcDbLine
 10
101.5249008168711384
 20
-119.8252156591727271
 30
0.0
 11
101.8246205948579615
 21
-119.8252156591727271
 31
0.0
  0
ARC
  5
1F5
100
AcDbEntity
  8
0
 62
8
420
8684676
370
-1
 48
1.0
  6
BYLAYER
100
AcDbCircle
 10
101.5263740125475209
 20
-119.4262328063248901
 30
0.0
 40
0.3999989037064992
100
AcDbArc
 50
179.9927160286435139
 51
269.9708941475461756
  0
ARC
  5
1F6
100
AcDbEntity
  8
0
 62
8
420
8684676
370
-1
 48
1.0
  6
BYLAYER
100
AcDbCircle
 10
101.5263740125475209
 20
-119.4261311031776955
 30
0.0
 40
0.3999989037064992
100
AcDbArc
 50
90.0291058524538528
 51
180.0072839713564861
  0
LINE
  5
1F7
100
AcDbEntity
  8
0
 62
8
420
8684676
370
-1
 48
1.0
  6
BYLAYER
100
AcDbLine
 10
101.8246205948579615
 20
-119.0251162518350156
 30
0.0
 11
101.5249008168711384
 21
-119.0251162518350156
 31
0.0
  0
LINE
  5
1F8
100
AcDbEntity
  8
0
 62
8
420
8684676
370
-1
 48
1.0
  6
BYLAYER
100
AcDbLine
 10
101.4741008545004917
 20
-115.7002587146760249
 30
0.0
 11
101.8246205948579615
 21
-115.7002587146760249
 31
0.0
  0
ARC
  5
1F9
100
AcDbEntity
  8
0
 62
8
420
8684676
370
-1
 48
1.0
  6
BYLAYER
100
AcDbCircle
 10
101.4763741525861178
 20
-115.351275673410683
 30
0.0
 40
0.3499990407431753
100
AcDbArc
 50
179.9979209400336231
 51
270.002079060166011
  0
ARC
  5
1FA
100
AcDbEntity
  8
0
 62
8
420
8684676
370
-1
 48
1.0
  6
BYLAYER
100
AcDbCircle
 10
101.5513752132459615
 20
-115.3513213891317832
 30
0.0
 40
0.4250001051871976
100
AcDbArc
 50
90.0078752614607112
 51
179.9921247385201184
  0
LINE
  5
1FB
100
AcDbEntity
  8
0
 62
8
420
8684676
370
-1
 48
1.0
  6
BYLAYER
100
AcDbLine
 10
101.7509606494205201
 20
-114.9255592885236297
 30
0.0
 11
101.5503007980564547
 21
-114.9255592885236297
 31
0.0
  0
ARC
  5
1FC
100
AcDbEntity
  8
0
 62
8
420
8684676
370
-1
 48
1.0
  6
BYLAYER
100
AcDbCircle
 10
101.7513987711020746
 20
-114.8513214655203569
 30
0.0
 40
0.0750000484447821
100
AcDbArc
 50
269.8593412022215148
 51
0.1406587977780289
  0
LINE
  5
1FD
100
AcDbEntity
  8
0
 62
8
420
8684676
370
-1
 48
1.0
  6
BYLAYER
100
AcDbLine
 10
101.8246205948579615
 20
-114.5242395857954989
 30
0.0
 11
101.8246205948579615
 21
-114.8493593449676524
 31
0.0
  0
ARC
  5
1FE
100
AcDbEntity
  8
0
 62
8
420
8684676
370
-1
 48
1.0
  6
BYLAYER
100
AcDbCircle
 10
101.6763987940391303
 20
-114.5261574949868617
 30
0.0
 40
0.1499998428897403
100
AcDbArc
 50
359.9564210463046834
 51
90.0435789536972635
  0
LINE
  5
1FF
100
AcDbEntity
  8
0
 62
8
420
8684676
370
-1
 48
1.0
  6
BYLAYER
100
AcDbLine
 10
101.4512408714336971
 20
-114.3743796968020803
 30
0.0
 11
101.6747607058645428
 21
-114.3743796968020803
 31
0.0
  0
ARC
  5
200
100
AcDbEntity
  8
0
 62
8
420
8684676
370
-1
 48
1.0
  6
BYLAYER
100
AcDbCircle
 10
101.4513429533062947
 20
-114.1761577616839531
 30
0.0
 40
0.1999999598528697
100
AcDbArc
 50
180.029244309471153
 51
269.9707556905365777
  0
LINE
  5
201
100
AcDbEntity
  8
0
 62
8
420
8684676
370
-1
 48
1.0
  6
BYLAYER
100
AcDbLine
 10
101.2505810200696317
 20
-113.6250802518350156
 30
0.0
 11
101.2505810200696317
 21
-114.1762598435565508
 31
0.0
  0
LINE
  5
202
100
AcDbEntity
  8
0
 62
8
420
8684676
370
-1
 48
1.0
  6
BYLAYER
100
AcDbLine
 10
96.924964224208864
 20
-113.5996802706496851
 30
0.0
 11
96.924964224208864
 21
-113.6758802142056624
 31
0.0
  0
LINE
  5
203
100
AcDbEntity
  8
0
 62
8
420
8684676
370
-1
 48
1.0
  6
BYLAYER
100
AcDbLine
 10
101.3496409466923893
 20
-113.5996802706496851
 30
0.0
 11
96.924964224208864
 21
-113.5996802706496851
 31
0.0
  0
ARC
  5
204
100
AcDbEntity
  8
0
 62
8
420
8684676
370
-1
 48
1.0
  6
BYLAYER
100
AcDbCircle
 10
101.3513986258225685
 20
-114.0762041801908282
 30
0.0
 40
0.4749999681505215
100
AcDbArc
 50
0.0024441180543485
 51
90.0281871453437077
  0
LINE
  5
205
100
AcDbEntity
  8
0
 62
8
420
8684676
370
-1
 48
1.0
  6
BYLAYER
100
AcDbLine
 10
101.8246205948579615
 20
-114.5242395857954989
 30
0.0
 11
101.8246205948579615
 21
-114.0746599188152572
 31
0.0
  0
LINE
  5
206
100
AcDbEntity
  8
0
 62
8
420
8684676
370
-1
 48
1.0
  6
BYLAYER
100
AcDbLine
 10
101.8246205948579615
 20
-115.7002587146760249
 30
0.0
 11
101.8246205948579615
 21
-114.8493593449676524
 31
0.0
  0
LINE
  5
207
100
AcDbEntity
  8
0
 62
8
420
8684676
370
-1
 48
1.0
  6
BYLAYER
100
AcDbLine
 10
101.8246205948579615
 20
-116.8737378454380149
 30
0.0
 11
101.8246205948579615
 21
-115.7002587146760249
 31
0.0
  0
LINE
  5
208
100
AcDbEntity
  8
0
 62
8
420
8684676
370
-1
 48
1.0
  6
BYLAYER
100
AcDbLine
 10
101.5503007980564547
 20
-116.8737378454380149
 30
0.0
 11
101.8246205948579615
 21
-116.8737378454380149
 31
0.0
  0
ARC
  5
209
100
AcDbEntity
  8
0
 62
8
420
8684676
370
-1
 48
1.0
  6
BYLAYER
100
AcDbCircle
 10
101.5513107012021834
 20
-117.0512776178217678
 30
0.0
 40
0.1749997743713931
100
AcDbArc
 50
89.998004106585384
 51
180.0019958934434499
  0
LINE
  5
20A
100
AcDbEntity
  8
0
 62
8
420
8684676
370
-1
 48
1.0
  6
BYLAYER
100
AcDbLine
 10
101.3750409278777198
 20
-117.6738372527757406
 30
0.0
 11
101.3750409278777198
 21
-117.048997715616764
 31
0.0
  0
ARC
  5
20B
100
AcDbEntity
  8
0
 62
8
420
8684676
370
-1
 48
1.0
  6
BYLAYER
100
AcDbCircle
 10
101.5763108607380758
 20
-117.6762751690216788
 30
0.0
 40
0.1999999598528697
100
AcDbArc
 50
180.029244309471153
 51
269.9707556905365777
  0
LINE
  5
20C
100
AcDbEntity
  8
0
 62
8
420
8684676
370
-1
 48
1.0
  6
BYLAYER
100
AcDbLine
 10
101.8246205948579615
 20
-117.874497104139806
 30
0.0
 11
101.5757007792417852
 21
-117.874497104139806
 31
0.0
  0
LINE
  5
20D
100
AcDbEntity
  8
0
 62
8
420
8684676
370
-1
 48
1.0
  6
BYLAYER
100
AcDbLine
 10
101.8246205948579615
 20
-119.0251162518350156
 30
0.0
 11
101.8246205948579615
 21
-117.874497104139806
 31
0.0
  0
LINE
  5
20E
100
AcDbEntity
  8
0
 62
8
420
8684676
370
-1
 48
1.0
  6
BYLAYER
100
AcDbLine
 10
101.8246205948579615
 20
-119.8252156591727271
 30
0.0
 11
101.8246205948579615
 21
-119.0251162518350156
 31
0.0
  0
LINE
  5
20F
100
AcDbEntity
  8
0
 62
8
420
8684676
370
-1
 48
1.0
  6
BYLAYER
100
AcDbLine
 10
101.8246205948579615
 20
-120.6989750119478941
 30
0.0
 11
101.8246205948579615
 21
-120.274795326152983
 31
0.0
  0
ARC
  5
210
100
AcDbEntity
  8
0
 62
8
420
8684676
370
-1
 48
1.0
  6
BYLAYER
100
AcDbCircle
 10
101.4263996930606453
 20
-120.7013118134431551
 30
0.0
 40
0.3999989037064992
100
AcDbArc
 50
269.9927229593079119
 51
0.0072770407005009
  0
LINE
  5
211
100
AcDbEntity
  8
0
 62
8
420
8684676
370
-1
 48
1.0
  6
BYLAYER
100
AcDbLine
 10
96.924964224208864
 20
-121.1002947146760249
 30
0.0
 11
101.4258408902483666
 21
-121.1002947146760249
 31
0.0
  0
LINE
  5
212
100
AcDbEntity
  8
0
 62
8
420
8684676
370
-1
 48
1.0
  6
BYLAYER
100
AcDbLine
 10
96.924964224208864
 20
-121.0494947523053781
 30
0.0
 11
96.924964224208864
 21
-121.1002947146760249
 31
0.0
  0
LINE
  5
213
100
AcDbEntity
  8
0
 62
8
420
8684676
370
-1
 48
1.0
  6
BYLAYER
100
AcDbLine
 10
96.924964224208864
 20
-120.4500551963317179
 30
0.0
 11
96.924964224208864
 21
-121.0494947523053781
 31
0.0
  0
LINE
  5
214
100
AcDbEntity
  8
0
 62
8
420
8684676
370
-1
 48
1.0
  6
BYLAYER
100
AcDbLine
 10
96.924964224208864
 20
-114.2753197701793226
 30
0.0
 11
96.924964224208864
 21
-120.4500551963317179
 31
0.0
  0
LINE
  5
215
100
AcDbEntity
  8
0
 62
8
420
8684676
370
-1
 48
1.0
  6
BYLAYER
100
AcDbLine
 10
96.924964224208864
 20
-113.8994000486365081
 30
0.0
 11
96.924964224208864
 21
-114.2753197701793226
 31
0.0
  0
LINE
  5
216
100
AcDbEntity
  8
0
 62
8
420
8684676
370
-1
 48
1.0
  6
BYLAYER
100
AcDbLine
 10
96.924964224208864
 20
-113.6758802142056624
 30
0.0
 11
96.924964224208864
 21
-113.8994000486365081
 31
0.0
  0
LINE
  5
217
100
AcDbEntity
  8
0
 62
8
420
8684676
370
-1
 48
1.0
  6
BYLAYER
100
AcDbLine
 10
97.9003235017253246
 20
-114.6512394917221229
 30
0.0
 11
97.9003235017253246
 21
-115.3497389743185408
 31
0.0
  0
LINE
  5
218
100
AcDbEntity
  8
0
 62
8
420
8684676
370
-1
 48
1.0
  6
BYLAYER
100
AcDbLine
 10
98.5988229843217425
 20
-114.6004395293514762
 30
0.0
 11
98.5988229843217425
 21
-115.3497389743185408
 31
0.0
  0
LINE
  5
219
100
AcDbEntity
  8
0
 62
8
420
8684676
370
-1
 48
1.0
  6
BYLAYER
100
AcDbLine
 10
97.4253438535597525
 20
-114.6512394917221229
 30
0.0
 11
97.9003235017253246
 21
-114.6512394917221229
 31
0.0
  0
LINE
  5
21A
100
AcDbEntity
  8
0
 62
8
420
8684676
370
-1
 48
1.0
  6
BYLAYER
100
AcDbLine
 10
97.4253438535597525
 20
-115.3243389931332246
 30
0.0
 11
97.4253438535597525
 21
-114.6512394917221229
 31
0.0
  0
LINE
  5
21B
100
AcDbEntity
  8
0
 62
8
420
8684676
370
-1
 48
1.0
  6
BYLAYER
100
AcDbLine
 10
97.9003235017253246
 20
-115.3243389931332246
 30
0.0
 11
97.4253438535597525
 21
-115.3243389931332246
 31
0.0
  0
ARC
  5
21C
100
AcDbEntity
  8
0
 62
8
420
8684676
370
-1
 48
1.0
  6
BYLAYER
100
AcDbCircle
 10
98.0513392786329092
 20
-115.3262311029612732
 30
0.0
 40
0.1499998428897403
100
AcDbArc
 50
180.053433598421833
 51
269.946566401567793
  0
ARC
  5
21D
100
AcDbEntity
  8
0
 62
8
420
8684676
370
-1
 48
1.0
  6
BYLAYER
100
AcDbCircle
 10
98.0513833183831736
 20
-115.4012310577079745
 30
0.0
 40
0.0750000484447821
100
AcDbArc
 50
269.859488989528586
 51
359.9466168486064817
  0
LINE
  5
21E
100
AcDbEntity
  8
0
 62
8
420
8684676
370
-1
 48
1.0
  6
BYLAYER
100
AcDbLine
 10
98.1238433361561704
 20
-115.3751389555038713
 30
0.0
 11
98.1238433361561704
 21
-115.4005389366892018
 31
0.0
  0
LINE
  5
21F
100
AcDbEntity
  8
0
 62
8
420
8684676
370
-1
 48
1.0
  6
BYLAYER
100
AcDbLine
 10
99.2008025384139387
 20
-115.3751389555038713
 30
0.0
 11
98.1238433361561704
 21
-115.3751389555038713
 31
0.0
  0
ARC
  5
220
100
AcDbEntity
  8
0
 62
8
420
8684676
370
-1
 48
1.0
  6
BYLAYER
100
AcDbCircle
 10
99.2012465382770046
 20
-115.1261551401270538
 30
0.0
 40
0.2499998228161752
100
AcDbArc
 50
270.0146676752522694
 51
359.9853323247629078
  0
LINE
  5
221
100
AcDbEntity
  8
0
 62
8
420
8684676
370
-1
 48
1.0
  6
BYLAYER
100
AcDbLine
 10
99.449722354030115
 20
-114.8747593261529829
 30
0.0
 11
99.449722354030115
 21
-115.1262191398876951
 31
0.0
  0
ARC
  5
222
100
AcDbEntity
  8
0
 62
8
420
8684676
370
-1
 48
1.0
  6
BYLAYER
100
AcDbCircle
 10
99.1762458486191747
 20
-114.8762020330690774
 30
0.0
 40
0.2750005162972627
100
AcDbArc
 50
359.9830629917941565
 51
90.0169370081998181
  0
LINE
  5
223
100
AcDbEntity
  8
0
 62
8
420
8684676
370
-1
 48
1.0
  6
BYLAYER
100
AcDbLine
 10
98.5988229843217425
 20
-114.6004395293514762
 30
0.0
 11
99.1754025572286082
 21
-114.6004395293514762
 31
0.0
  0
LINE
  5
224
100
AcDbEntity
  8
0
 62
8
420
8684676
370
-1
 48
1.0
  6
BYLAYER
100
AcDbLine
 10
98.1238433361561704
 20
-114.6004395293514762
 30
0.0
 11
98.5988229843217425
 21
-114.6004395293514762
 31
0.0
  0
ARC
  5
225
100
AcDbEntity
  8
0
 62
8
420
8684676
370
-1
 48
1.0
  6
BYLAYER
100
AcDbCircle
 10
98.0263835128127567
 20
-114.6013795536957218
 30
0.0
 40
0.0999999799264349
100
AcDbArc
 50
0.1020008335143876
 51
90.0436046269158368
  0
LINE
  5
226
100
AcDbEntity
  8
0
 62
8
420
8684676
370
-1
 48
1.0
  6
BYLAYER
100
AcDbLine
 10
97.9993834283480822
 20
-114.4988396046101684
 30
0.0
 11
98.0247834095334127
 21
-114.4988396046101684
 31
0.0
  0
ARC
  5
227
100
AcDbEntity
  8
0
 62
8
420
8684676
370
-1
 48
1.0
  6
BYLAYER
100
AcDbCircle
 10
97.9888256994995004
 20
-114.5889024310806974
 30
0.0
 40
0.088387870527939
100
AcDbArc
 50
81.9774067727025653
 51
171.8090273275496145
  0
LINE
  5
228
100
AcDbEntity
  8
0
 62
8
420
8684676
370
-1
 48
1.0
  6
BYLAYER
100
AcDbLine
 10
97.9003235017253246
 20
-114.6512394917221229
 30
0.0
 11
97.9003235017253246
 21
-114.5750395481661457
 31
0.0
  0
LINE
  5
229
100
AcDbEntity
  8
0
 62
8
420
8684676
370
-1
 48
1.0
  6
BYLAYER
100
AcDbLine
 10
96.8741642618382031
 20
-120.8488349009413128
 30
0.0
 11
96.8741642618382031
 21
-121.6997342706496852
 31
0.0
  0
LINE
  5
22A
100
AcDbEntity
  8
0
 62
8
420
8684676
370
-1
 48
1.0
  6
BYLAYER
100
AcDbLine
 10
127.2601617538419703
 20
-127.7652497777051934
 30
0.0
 11
127.7681613775484664
 21
-127.7652497777051934
 31
0.0
  0
LINE
  5
22B
100
AcDbEntity
  8
0
 62
8
420
8684676
370
-1
 48
1.0
  6
BYLAYER
100
AcDbLine
 10
127.7681613775484664
 20
-127.7652497777051934
 30
0.0
 11
127.7681613775484664
 21
-127.2572501539986973
 31
0.0
  0
LINE
  5
22C
100
AcDbEntity
  8
0
 62
8
420
8684676
370
-1
 48
1.0
  6
BYLAYER
100
AcDbLine
 10
127.7681613775484664
 20
-127.2572501539986973
 30
0.0
 11
127.2601617538419703
 21
-127.2572501539986973
 31
0.0
  0
LINE
  5
22D
100
AcDbEntity
  8
0
 62
8
420
8684676
370
-1
 48
1.0
  6
BYLAYER
100
AcDbLine
 10
127.2601617538419703
 20
-127.2572501539986973
 30
0.0
 11
127.2601617538419703
 21
-127.7652497777051934
 31
0.0
  0
LINE
  5
22E
100
AcDbEntity
  8
0
 62
8
420
8684676
370
-1
 48
1.0
  6
BYLAYER
100
AcDbLine
 10
109.4801749241147775
 20
-127.7652497777051934
 30
0.0
 11
109.9881745478212736
 21
-127.7652497777051934
 31
0.0
  0
LINE
  5
22F
100
AcDbEntity
  8
0
 62
8
420
8684676
370
-1
 48
1.0
  6
BYLAYER
100
AcDbLine
 10
109.9881745478212736
 20
-127.7652497777051934
 30
0.0
 11
109.9881745478212736
 21
-127.2572501539986973
 31
0.0
  0
LINE
  5
230
100
AcDbEntity
  8
0
 62
8
420
8684676
370
-1
 48
1.0
  6
BYLAYER
100
AcDbLine
 10
109.9881745478212736
 20
-127.2572501539986973
 30
0.0
 11
109.4801749241147775
 21
-127.2572501539986973
 31
0.0
  0
LINE
  5
231
100
AcDbEntity
  8
0
 62
8
420
8684676
370
-1
 48
1.0
  6
BYLAYER
100
AcDbLine
 10
109.4801749241147775
 20
-127.2572501539986973
 30
0.0
 11
109.4801749241147775
 21
-127.7652497777051934
 31
0.0
  0
LINE
  5
232
100
AcDbEntity
  8
0
 62
8
420
8684676
370
-1
 48
1.0
  6
BYLAYER
100
AcDbLine
 10
112.0201730426472437
 20
-127.7652497777051934
 30
0.0
 11
112.5281726663537256
 21
-127.7652497777051934
 31
0.0
  0
LINE
  5
233
100
AcDbEntity
  8
0
 62
8
420
8684676
370
-1
 48
1.0
  6
BYLAYER
100
AcDbLine
 10
112.5281726663537256
 20
-127.7652497777051934
 30
0.0
 11
112.5281726663537256
 21
-127.2572501539986973
 31
0.0
  0
LINE
  5
234
100
AcDbEntity
  8
0
 62
8
420
8684676
370
-1
 48
1.0
  6
BYLAYER
100
AcDbLine
 10
112.5281726663537256
 20
-127.2572501539986973
 30
0.0
 11
112.0201730426472437
 21
-127.2572501539986973
 31
0.0
  0
LINE
  5
235
100
AcDbEntity
  8
0
 62
8
420
8684676
370
-1
 48
1.0
  6
BYLAYER
100
AcDbLine
 10
112.0201730426472437
 20
-127.2572501539986973
 30
0.0
 11
112.0201730426472437
 21
-127.7652497777051934
 31
0.0
  0
LINE
  5
236
100
AcDbEntity
  8
0
 62
8
420
8684676
370
-1
 48
1.0
  6
BYLAYER
100
AcDbLine
 10
114.5601711611796958
 20
-127.7652497777051934
 30
0.0
 11
115.0681707848861919
 21
-127.7652497777051934
 31
0.0
  0
LINE
  5
237
100
AcDbEntity
  8
0
 62
8
420
8684676
370
-1
 48
1.0
  6
BYLAYER
100
AcDbLine
 10
115.0681707848861919
 20
-127.7652497777051934
 30
0.0
 11
115.0681707848861919
 21
-127.2572501539986973
 31
0.0
  0
LINE
  5
238
100
AcDbEntity
  8
0
 62
8
420
8684676
370
-1
 48
1.0
  6
BYLAYER
100
AcDbLine
 10
115.0681707848861919
 20
-127.2572501539986973
 30
0.0
 11
114.5601711611796958
 21
-127.2572501539986973
 31
0.0
  0
LINE
  5
239
100
AcDbEntity
  8
0
 62
8
420
8684676
370
-1
 48
1.0
  6
BYLAYER
100
AcDbLine
 10
114.5601711611796958
 20
-127.2572501539986973
 30
0.0
 11
114.5601711611796958
 21
-127.7652497777051934
 31
0.0
  0
LINE
  5
23A
100
AcDbEntity
  8
0
 62
8
420
8684676
370
-1
 48
1.0
  6
BYLAYER
100
AcDbLine
 10
117.1001692797121478
 20
-127.7652497777051934
 30
0.0
 11
117.6081689034186439
 21
-127.7652497777051934
 31
0.0
  0
LINE
  5
23B
100
AcDbEntity
  8
0
 62
8
420
8684676
370
-1
 48
1.0
  6
BYLAYER
100
AcDbLine
 10
117.6081689034186439
 20
-127.7652497777051934
 30
0.0
 11
117.6081689034186439
 21
-127.2572501539986973
 31
0.0
  0
LINE
  5
23C
100
AcDbEntity
  8
0
 62
8
420
8684676
370
-1
 48
1.0
  6
BYLAYER
100
AcDbLine
 10
117.6081689034186439
 20
-127.2572501539986973
 30
0.0
 11
117.1001692797121478
 21
-127.2572501539986973
 31
0.0
  0
LINE
  5
23D
100
AcDbEntity
  8
0
 62
8
420
8684676
370
-1
 48
1.0
  6
BYLAYER
100
AcDbLine
 10
117.1001692797121478
 20
-127.2572501539986973
 30
0.0
 11
117.1001692797121478
 21
-127.7652497777051934
 31
0.0
  0
LINE
  5
23E
100
AcDbEntity
  8
0
 62
8
420
8684676
370
-1
 48
1.0
  6
BYLAYER
100
AcDbLine
 10
119.6401673982445999
 20
-127.7652497777051934
 30
0.0
 11
120.148167021951096
 21
-127.7652497777051934
 31
0.0
  0
LINE
  5
23F
100
AcDbEntity
  8
0
 62
8
420
8684676
370
-1
 48
1.0
  6
BYLAYER
100
AcDbLine
 10
120.148167021951096
 20
-127.7652497777051934
 30
0.0
 11
120.148167021951096
 21
-127.2572501539986973
 31
0.0
  0
LINE
  5
240
100
AcDbEntity
  8
0
 62
8
420
8684676
370
-1
 48
1.0
  6
BYLAYER
100
AcDbLine
 10
120.148167021951096
 20
-127.2572501539986973
 30
0.0
 11
119.6401673982445999
 21
-127.2572501539986973
 31
0.0
  0
LINE
  5
241
100
AcDbEntity
  8
0
 62
8
420
8684676
370
-1
 48
1.0
  6
BYLAYER
100
AcDbLine
 10
119.6401673982445999
 20
-127.2572501539986973
 30
0.0
 11
119.6401673982445999
 21
-127.7652497777051934
 31
0.0
  0
LINE
  5
242
100
AcDbEntity
  8
0
 62
8
420
8684676
370
-1
 48
1.0
  6
BYLAYER
100
AcDbLine
 10
122.1801655167770662
 20
-127.7652497777051934
 30
0.0
 11
122.688165140483548
 21
-127.7652497777051934
 31
0.0
  0
LINE
  5
243
100
AcDbEntity
  8
0
 62
8
420
8684676
370
-1
 48
1.0
  6
BYLAYER
100
AcDbLine
 10
122.688165140483548
 20
-127.7652497777051934
 30
0.0
 11
122.688165140483548
 21
-127.2572501539986973
 31
0.0
  0
LINE
  5
244
100
AcDbEntity
  8
0
 62
8
420
8684676
370
-1
 48
1.0
  6
BYLAYER
100
AcDbLine
 10
122.688165140483548
 20
-127.2572501539986973
 30
0.0
 11
122.1801655167770662
 21
-127.2572501539986973
 31
0.0
  0
LINE
  5
245
100
AcDbEntity
  8
0
 62
8
420
8684676
370
-1
 48
1.0
  6
BYLAYER
100
AcDbLine
 10
122.1801655167770662
 20
-127.2572501539986973
 30
0.0
 11
122.1801655167770662
 21
-127.7652497777051934
 31
0.0
  0
LINE
  5
246
100
AcDbEntity
  8
0
 62
8
420
8684676
370
-1
 48
1.0
  6
BYLAYER
100
AcDbLine
 10
124.7201636353095182
 20
-127.7652497777051934
 30
0.0
 11
125.2281632590160143
 21
-127.7652497777051934
 31
0.0
  0
LINE
  5
247
100
AcDbEntity
  8
0
 62
8
420
8684676
370
-1
 48
1.0
  6
BYLAYER
100
AcDbLine
 10
125.2281632590160143
 20
-127.7652497777051934
 30
0.0
 11
125.2281632590160143
 21
-127.2572501539986973
 31
0.0
  0
LINE
  5
248
100
AcDbEntity
  8
0
 62
8
420
8684676
370
-1
 48
1.0
  6
BYLAYER
100
AcDbLine
 10
125.2281632590160143
 20
-127.2572501539986973
 30
0.0
 11
124.7201636353095182
 21
-127.2572501539986973
 31
0.0
  0
LINE
  5
249
100
AcDbEntity
  8
0
 62
8
420
8684676
370
-1
 48
1.0
  6
BYLAYER
100
AcDbLine
 10
124.7201636353095182
 20
-127.2572501539986973
 30
0.0
 11
124.7201636353095182
 21
-127.7652497777051934
 31
0.0
  0
LINE
  5
24A
100
AcDbEntity
  8
0
 62
8
420
8684676
370
-1
 48
1.0
  6
BYLAYER
100
AcDbLine
 10
97.399943872374422
 20
-118.7203164776111208
 30
0.0
 11
97.0138641583574923
 21
-118.7203164776111208
 31
0.0
  0
LINE
  5
24B
100
AcDbEntity
  8
0
 62
8
420
8684676
370
-1
 48
1.0
  6
BYLAYER
100
AcDbLine
 10
97.0138641583574923
 20
-118.7203164776111208
 30
0.0
 11
97.0138641583574923
 21
-118.5729965867362381
 31
0.0
  0
LINE
  5
24C
100
AcDbEntity
  8
0
 62
8
420
8684676
370
-1
 48
1.0
  6
BYLAYER
100
AcDbLine
 10
97.0138641583574923
 20
-118.5729965867362381
 30
0.0
 11
97.0316441451872151
 21
-118.5348966149582424
 31
0.0
  0
LINE
  5
24D
100
AcDbEntity
  8
0
 62
8
420
8684676
370
-1
 48
1.0
  6
BYLAYER
100
AcDbLine
 10
97.0316441451872151
 20
-118.5348966149582424
 30
0.0
 11
97.0494241320169522
 21
-118.5171166281285196
 31
0.0
  0
LINE
  5
24E
100
AcDbEntity
  8
0
 62
8
420
8684676
370
-1
 48
1.0
  6
BYLAYER
100
AcDbLine
 10
97.0494241320169522
 20
-118.5171166281285196
 30
0.0
 11
97.0875241037949337
 21
-118.4993366412987967
 31
0.0
  0
LINE
  5
24F
100
AcDbEntity
  8
0
 62
8
420
8684676
370
-1
 48
1.0
  6
BYLAYER
100
AcDbLine
 10
97.0875241037949337
 20
-118.4993366412987967
 30
0.0
 11
97.1434040624026522
 21
-118.4993366412987967
 31
0.0
  0
LINE
  5
250
100
AcDbEntity
  8
0
 62
8
420
8684676
370
-1
 48
1.0
  6
BYLAYER
100
AcDbLine
 10
97.1434040624026522
 20
-118.4993366412987967
 30
0.0
 11
97.1789640360620979
 21
-118.5171166281285196
 31
0.0
  0
LINE
  5
251
100
AcDbEntity
  8
0
 62
8
420
8684676
370
-1
 48
1.0
  6
BYLAYER
100
AcDbLine
 10
97.1789640360620979
 20
-118.5171166281285196
 30
0.0
 11
97.1967440228918349
 21
-118.5348966149582424
 31
0.0
  0
LINE
  5
252
100
AcDbEntity
  8
0
 62
8
420
8684676
370
-1
 48
1.0
  6
BYLAYER
100
AcDbLine
 10
97.1967440228918349
 20
-118.5348966149582424
 30
0.0
 11
97.2170640078400936
 21
-118.5729965867362381
 31
0.0
  0
LINE
  5
253
100
AcDbEntity
  8
0
 62
8
420
8684676
370
-1
 48
1.0
  6
BYLAYER
100
AcDbLine
 10
97.2170640078400936
 20
-118.5729965867362381
 30
0.0
 11
97.2170640078400936
 21
-118.7203164776111208
 31
0.0
  0
LINE
  5
254
100
AcDbEntity
  8
0
 62
8
420
8684676
370
-1
 48
1.0
  6
BYLAYER
100
AcDbLine
 10
97.3618439005964404
 20
-118.1132569272818529
 30
0.0
 11
97.3821638855446992
 21
-118.1310369141115899
 31
0.0
  0
LINE
  5
255
100
AcDbEntity
  8
0
 62
8
420
8684676
370
-1
 48
1.0
  6
BYLAYER
100
AcDbLine
 10
97.3821638855446992
 20
-118.1310369141115899
 30
0.0
 11
97.399943872374422
 21
-118.1869168727192942
 31
0.0
  0
LINE
  5
256
100
AcDbEntity
  8
0
 62
8
420
8684676
370
-1
 48
1.0
  6
BYLAYER
100
AcDbLine
 10
97.399943872374422
 20
-118.1869168727192942
 30
0.0
 11
97.399943872374422
 21
-118.2224768463787541
 31
0.0
  0
LINE
  5
257
100
AcDbEntity
  8
0
 62
8
420
8684676
370
-1
 48
1.0
  6
BYLAYER
100
AcDbLine
 10
97.399943872374422
 20
-118.2224768463787541
 30
0.0
 11
97.3821638855446992
 21
-118.2783568049864726
 31
0.0
  0
LINE
  5
258
100
AcDbEntity
  8
0
 62
8
420
8684676
370
-1
 48
1.0
  6
BYLAYER
100
AcDbLine
 10
97.3821638855446992
 20
-118.2783568049864726
 30
0.0
 11
97.3440639137667176
 21
-118.3164567767644542
 31
0.0
  0
LINE
  5
259
100
AcDbEntity
  8
0
 62
8
420
8684676
370
-1
 48
1.0
  6
BYLAYER
100
AcDbLine
 10
97.3440639137667176
 20
-118.3164567767644542
 30
0.0
 11
97.3085039401072578
 21
-118.334236763594177
 31
0.0
  0
LINE
  5
25A
100
AcDbEntity
  8
0
 62
8
420
8684676
370
-1
 48
1.0
  6
BYLAYER
100
AcDbLine
 10
97.3085039401072578
 20
-118.334236763594177
 30
0.0
 11
97.2348439946698164
 21
-118.352016750423914
 31
0.0
  0
LINE
  5
25B
100
AcDbEntity
  8
0
 62
8
420
8684676
370
-1
 48
1.0
  6
BYLAYER
100
AcDbLine
 10
97.2348439946698164
 20
-118.352016750423914
 30
0.0
 11
97.1789640360620979
 21
-118.352016750423914
 31
0.0
  0
LINE
  5
25C
100
AcDbEntity
  8
0
 62
8
420
8684676
370
-1
 48
1.0
  6
BYLAYER
100
AcDbLine
 10
97.1789640360620979
 20
-118.352016750423914
 30
0.0
 11
97.1053040906246565
 21
-118.334236763594177
 31
0.0
  0
LINE
  5
25D
100
AcDbEntity
  8
0
 62
8
420
8684676
370
-1
 48
1.0
  6
BYLAYER
100
AcDbLine
 10
97.1053040906246565
 20
-118.334236763594177
 30
0.0
 11
97.0697441169652109
 21
-118.3164567767644542
 31
0.0
  0
LINE
  5
25E
100
AcDbEntity
  8
0
 62
8
420
8684676
370
-1
 48
1.0
  6
BYLAYER
100
AcDbLine
 10
97.0697441169652109
 20
-118.3164567767644542
 30
0.0
 11
97.0316441451872151
 21
-118.2783568049864726
 31
0.0
  0
LINE
  5
25F
100
AcDbEntity
  8
0
 62
8
420
8684676
370
-1
 48
1.0
  6
BYLAYER
100
AcDbLine
 10
97.0316441451872151
 20
-118.2783568049864726
 30
0.0
 11
97.0138641583574923
 21
-118.2224768463787541
 31
0.0
  0
LINE
  5
260
100
AcDbEntity
  8
0
 62
8
420
8684676
370
-1
 48
1.0
  6
BYLAYER
100
AcDbLine
 10
97.0138641583574923
 20
-118.2224768463787541
 30
0.0
 11
97.0138641583574923
 21
-118.1869168727192942
 31
0.0
  0
LINE
  5
261
100
AcDbEntity
  8
0
 62
8
420
8684676
370
-1
 48
1.0
  6
BYLAYER
100
AcDbLine
 10
97.0138641583574923
 20
-118.1869168727192942
 30
0.0
 11
97.0316441451872151
 21
-118.1310369141115899
 31
0.0
  0
LINE
  5
262
100
AcDbEntity
  8
0
 62
8
420
8684676
370
-1
 48
1.0
  6
BYLAYER
100
AcDbLine
 10
97.0316441451872151
 20
-118.1310369141115899
 30
0.0
 11
97.0494241320169522
 21
-118.1132569272818529
 31
0.0
  0
LINE
  5
263
100
AcDbEntity
  8
0
 62
8
420
8684676
370
-1
 48
1.0
  6
BYLAYER
100
AcDbLine
 10
97.1967440228918349
 20
-117.8186171455320874
 30
0.0
 11
97.2170640078400936
 21
-117.7627371869243831
 31
0.0
  0
LINE
  5
264
100
AcDbEntity
  8
0
 62
8
420
8684676
370
-1
 48
1.0
  6
BYLAYER
100
AcDbLine
 10
97.2170640078400936
 20
-117.7627371869243831
 30
0.0
 11
97.2348439946698164
 21
-117.7449572000946461
 31
0.0
  0
LINE
  5
265
100
AcDbEntity
  8
0
 62
8
420
8684676
370
-1
 48
1.0
  6
BYLAYER
100
AcDbLine
 10
97.2348439946698164
 20
-117.7449572000946461
 30
0.0
 11
97.2704039683292763
 21
-117.7271772132649232
 31
0.0
  0
LINE
  5
266
100
AcDbEntity
  8
0
 62
8
420
8684676
370
-1
 48
1.0
  6
BYLAYER
100
AcDbLine
 10
97.2704039683292763
 20
-117.7271772132649232
 30
0.0
 11
97.3262839269369806
 21
-117.7271772132649232
 31
0.0
  0
LINE
  5
267
100
AcDbEntity
  8
0
 62
8
420
8684676
370
-1
 48
1.0
  6
BYLAYER
100
AcDbLine
 10
97.3262839269369806
 20
-117.7271772132649232
 30
0.0
 11
97.3618439005964404
 21
-117.7449572000946461
 31
0.0
  0
LINE
  5
268
100
AcDbEntity
  8
0
 62
8
420
8684676
370
-1
 48
1.0
  6
BYLAYER
100
AcDbLine
 10
97.3618439005964404
 20
-117.7449572000946461
 30
0.0
 11
97.3821638855446992
 21
-117.7627371869243831
 31
0.0
  0
LINE
  5
269
100
AcDbEntity
  8
0
 62
8
420
8684676
370
-1
 48
1.0
  6
BYLAYER
100
AcDbLine
 10
97.3821638855446992
 20
-117.7627371869243831
 30
0.0
 11
97.399943872374422
 21
-117.8008371587023646
 31
0.0
  0
LINE
  5
26A
100
AcDbEntity
  8
0
 62
8
420
8684676
370
-1
 48
1.0
  6
BYLAYER
100
AcDbLine
 10
97.399943872374422
 20
-117.8008371587023646
 30
0.0
 11
97.399943872374422
 21
-117.9481570495772473
 31
0.0
  0
LINE
  5
26B
100
AcDbEntity
  8
0
 62
8
420
8684676
370
-1
 48
1.0
  6
BYLAYER
100
AcDbLine
 10
97.399943872374422
 20
-117.9481570495772473
 30
0.0
 11
97.0138641583574923
 21
-117.9481570495772473
 31
0.0
  0
LINE
  5
26C
100
AcDbEntity
  8
0
 62
8
420
8684676
370
-1
 48
1.0
  6
BYLAYER
100
AcDbLine
 10
97.0138641583574923
 20
-117.9481570495772473
 30
0.0
 11
97.0138641583574923
 21
-117.8186171455320874
 31
0.0
  0
LINE
  5
26D
100
AcDbEntity
  8
0
 62
8
420
8684676
370
-1
 48
1.0
  6
BYLAYER
100
AcDbLine
 10
97.0138641583574923
 20
-117.8186171455320874
 30
0.0
 11
97.0316441451872151
 21
-117.7830571718726418
 31
0.0
  0
LINE
  5
26E
100
AcDbEntity
  8
0
 62
8
420
8684676
370
-1
 48
1.0
  6
BYLAYER
100
AcDbLine
 10
97.0316441451872151
 20
-117.7830571718726418
 30
0.0
 11
97.0494241320169522
 21
-117.7627371869243831
 31
0.0
  0
LINE
  5
26F
100
AcDbEntity
  8
0
 62
8
420
8684676
370
-1
 48
1.0
  6
BYLAYER
100
AcDbLine
 10
97.0494241320169522
 20
-117.7627371869243831
 30
0.0
 11
97.0875241037949337
 21
-117.7449572000946461
 31
0.0
  0
LINE
  5
270
100
AcDbEntity
  8
0
 62
8
420
8684676
370
-1
 48
1.0
  6
BYLAYER
100
AcDbLine
 10
97.0875241037949337
 20
-117.7449572000946461
 30
0.0
 11
97.1230840774543935
 21
-117.7449572000946461
 31
0.0
  0
LINE
  5
271
100
AcDbEntity
  8
0
 62
8
420
8684676
370
-1
 48
1.0
  6
BYLAYER
100
AcDbLine
 10
97.1230840774543935
 20
-117.7449572000946461
 30
0.0
 11
97.1611840492323751
 21
-117.7627371869243831
 31
0.0
  0
LINE
  5
272
100
AcDbEntity
  8
0
 62
8
420
8684676
370
-1
 48
1.0
  6
BYLAYER
100
AcDbLine
 10
97.1611840492323751
 20
-117.7627371869243831
 30
0.0
 11
97.1789640360620979
 21
-117.7830571718726418
 31
0.0
  0
LINE
  5
273
100
AcDbEntity
  8
0
 62
8
420
8684676
370
-1
 48
1.0
  6
BYLAYER
100
AcDbLine
 10
97.1789640360620979
 20
-117.7830571718726418
 30
0.0
 11
97.1967440228918349
 21
-117.8186171455320874
 31
0.0
  0
LINE
  5
274
100
AcDbEntity
  8
0
 62
8
420
8684676
370
-1
 48
1.0
  6
BYLAYER
100
AcDbLine
 10
97.1967440228918349
 20
-117.8186171455320874
 30
0.0
 11
97.1967440228918349
 21
-117.9481570495772473
 31
0.0
  0
LINE
  5
275
100
AcDbEntity
  8
0
 62
8
420
8684676
370
-1
 48
1.0
  6
BYLAYER
100
AcDbLine
 10
97.1967440228918349
 20
-117.2674375538105522
 30
0.0
 11
97.1967440228918349
 21
-117.1378976497653923
 31
0.0
  0
LINE
  5
276
100
AcDbEntity
  8
0
 62
8
420
8684676
370
-1
 48
1.0
  6
BYLAYER
100
AcDbLine
 10
97.399943872374422
 20
-117.0845576892762097
 30
0.0
 11
97.399943872374422
 21
-117.2674375538105522
 31
0.0
  0
LINE
  5
277
100
AcDbEntity
  8
0
 62
8
420
8684676
370
-1
 48
1.0
  6
BYLAYER
100
AcDbLine
 10
97.399943872374422
 20
-117.2674375538105522
 30
0.0
 11
97.0138641583574923
 21
-117.2674375538105522
 31
0.0
  0
LINE
  5
278
100
AcDbEntity
  8
0
 62
8
420
8684676
370
-1
 48
1.0
  6
BYLAYER
100
AcDbLine
 10
97.0138641583574923
 20
-117.2674375538105522
 30
0.0
 11
97.0138641583574923
 21
-117.0845576892762097
 31
0.0
  0
LINE
  5
279
100
AcDbEntity
  8
0
 62
8
420
8684676
370
-1
 48
1.0
  6
BYLAYER
100
AcDbLine
 10
97.399943872374422
 20
-116.9169178134530682
 30
0.0
 11
97.0138641583574923
 21
-116.9169178134530682
 31
0.0
  0
LINE
  5
27A
100
AcDbEntity
  8
0
 62
8
420
8684676
370
-1
 48
1.0
  6
BYLAYER
100
AcDbLine
 10
97.0138641583574923
 20
-116.9169178134530682
 30
0.0
 11
97.0138641583574923
 21
-116.825477881185904
 31
0.0
  0
LINE
  5
27B
100
AcDbEntity
  8
0
 62
8
420
8684676
370
-1
 48
1.0
  6
BYLAYER
100
AcDbLine
 10
97.0138641583574923
 20
-116.825477881185904
 30
0.0
 11
97.0316441451872151
 21
-116.7721379206967214
 31
0.0
  0
LINE
  5
27C
100
AcDbEntity
  8
0
 62
8
420
8684676
370
-1
 48
1.0
  6
BYLAYER
100
AcDbLine
 10
97.0316441451872151
 20
-116.7721379206967214
 30
0.0
 11
97.0697441169652109
 21
-116.7340379489187399
 31
0.0
  0
LINE
  5
27D
100
AcDbEntity
  8
0
 62
8
420
8684676
370
-1
 48
1.0
  6
BYLAYER
100
AcDbLine
 10
97.0697441169652109
 20
-116.7340379489187399
 30
0.0
 11
97.1053040906246565
 21
-116.7162579620890028
 31
0.0
  0
LINE
  5
27E
100
AcDbEntity
  8
0
 62
8
420
8684676
370
-1
 48
1.0
  6
BYLAYER
100
AcDbLine
 10
97.1053040906246565
 20
-116.7162579620890028
 30
0.0
 11
97.1789640360620979
 21
-116.69847797525928
 31
0.0
  0
LINE
  5
27F
100
AcDbEntity
  8
0
 62
8
420
8684676
370
-1
 48
1.0
  6
BYLAYER
100
AcDbLine
 10
97.1789640360620979
 20
-116.69847797525928
 30
0.0
 11
97.2348439946698164
 21
-116.69847797525928
 31
0.0
  0
LINE
  5
280
100
AcDbEntity
  8
0
 62
8
420
8684676
370
-1
 48
1.0
  6
BYLAYER
100
AcDbLine
 10
97.2348439946698164
 20
-116.69847797525928
 30
0.0
 11
97.3085039401072578
 21
-116.7162579620890028
 31
0.0
  0
LINE
  5
281
100
AcDbEntity
  8
0
 62
8
420
8684676
370
-1
 48
1.0
  6
BYLAYER
100
AcDbLine
 10
97.3085039401072578
 20
-116.7162579620890028
 30
0.0
 11
97.3440639137667176
 21
-116.7340379489187399
 31
0.0
  0
LINE
  5
282
100
AcDbEntity
  8
0
 62
8
420
8684676
370
-1
 48
1.0
  6
BYLAYER
100
AcDbLine
 10
97.3440639137667176
 20
-116.7340379489187399
 30
0.0
 11
97.3821638855446992
 21
-116.7721379206967214
 31
0.0
  0
LINE
  5
283
100
AcDbEntity
  8
0
 62
8
420
8684676
370
-1
 48
1.0
  6
BYLAYER
100
AcDbLine
 10
97.3821638855446992
 20
-116.7721379206967214
 30
0.0
 11
97.399943872374422
 21
-116.825477881185904
 31
0.0
  0
LINE
  5
284
100
AcDbEntity
  8
0
 62
8
420
8684676
370
-1
 48
1.0
  6
BYLAYER
100
AcDbLine
 10
97.399943872374422
 20
-116.825477881185904
 30
0.0
 11
97.399943872374422
 21
-116.9169178134530682
 31
0.0
  0
LINE
  5
285
100
AcDbEntity
  8
0
 62
8
420
8684676
370
-1
 48
1.0
  6
BYLAYER
100
AcDbLine
 10
97.0316441451872151
 20
-116.3301782480720732
 30
0.0
 11
97.0138641583574923
 21
-116.365738221731533
 31
0.0
  0
LINE
  5
286
100
AcDbEntity
  8
0
 62
8
420
8684676
370
-1
 48
1.0
  6
BYLAYER
100
AcDbLine
 10
97.0138641583574923
 20
-116.365738221731533
 30
0.0
 11
97.0138641583574923
 21
-116.4216181803392374
 31
0.0
  0
LINE
  5
287
100
AcDbEntity
  8
0
 62
8
420
8684676
370
-1
 48
1.0
  6
BYLAYER
100
AcDbLine
 10
97.0138641583574923
 20
-116.4216181803392374
 30
0.0
 11
97.0316441451872151
 21
-116.4774981389469559
 31
0.0
  0
LINE
  5
288
100
AcDbEntity
  8
0
 62
8
420
8684676
370
-1
 48
1.0
  6
BYLAYER
100
AcDbLine
 10
97.0316441451872151
 20
-116.4774981389469559
 30
0.0
 11
97.0697441169652109
 21
-116.5130581126064158
 31
0.0
  0
LINE
  5
289
100
AcDbEntity
  8
0
 62
8
420
8684676
370
-1
 48
1.0
  6
BYLAYER
100
AcDbLine
 10
97.0697441169652109
 20
-116.5130581126064158
 30
0.0
 11
97.1053040906246565
 21
-116.5308380994361386
 31
0.0
  0
LINE
  5
28A
100
AcDbEntity
  8
0
 62
8
420
8684676
370
-1
 48
1.0
  6
BYLAYER
100
AcDbLine
 10
97.1053040906246565
 20
-116.5308380994361386
 30
0.0
 11
97.1789640360620979
 21
-116.5511580843843973
 31
0.0
  0
LINE
  5
28B
100
AcDbEntity
  8
0
 62
8
420
8684676
370
-1
 48
1.0
  6
BYLAYER
100
AcDbLine
 10
97.1789640360620979
 20
-116.5511580843843973
 30
0.0
 11
97.2348439946698164
 21
-116.5511580843843973
 31
0.0
  0
LINE
  5
28C
100
AcDbEntity
  8
0
 62
8
420
8684676
370
-1
 48
1.0
  6
BYLAYER
100
AcDbLine
 10
97.2348439946698164
 20
-116.5511580843843973
 30
0.0
 11
97.3085039401072578
 21
-116.5308380994361386
 31
0.0
  0
LINE
  5
28D
100
AcDbEntity
  8
0
 62
8
420
8684676
370
-1
 48
1.0
  6
BYLAYER
100
AcDbLine
 10
97.3085039401072578
 20
-116.5308380994361386
 30
0.0
 11
97.3440639137667176
 21
-116.5130581126064158
 31
0.0
  0
LINE
  5
28E
100
AcDbEntity
  8
0
 62
8
420
8684676
370
-1
 48
1.0
  6
BYLAYER
100
AcDbLine
 10
97.3440639137667176
 20
-116.5130581126064158
 30
0.0
 11
97.3821638855446992
 21
-116.4774981389469559
 31
0.0
  0
LINE
  5
28F
100
AcDbEntity
  8
0
 62
8
420
8684676
370
-1
 48
1.0
  6
BYLAYER
100
AcDbLine
 10
97.3821638855446992
 20
-116.4774981389469559
 30
0.0
 11
97.399943872374422
 21
-116.4216181803392374
 31
0.0
  0
LINE
  5
290
100
AcDbEntity
  8
0
 62
8
420
8684676
370
-1
 48
1.0
  6
BYLAYER
100
AcDbLine
 10
97.399943872374422
 20
-116.4216181803392374
 30
0.0
 11
97.399943872374422
 21
-116.3860582066797917
 31
0.0
  0
LINE
  5
291
100
AcDbEntity
  8
0
 62
8
420
8684676
370
-1
 48
1.0
  6
BYLAYER
100
AcDbLine
 10
97.399943872374422
 20
-116.3860582066797917
 30
0.0
 11
97.3821638855446992
 21
-116.3301782480720732
 31
0.0
  0
LINE
  5
292
100
AcDbEntity
  8
0
 62
8
420
8684676
370
-1
 48
1.0
  6
BYLAYER
100
AcDbLine
 10
97.3821638855446992
 20
-116.3301782480720732
 30
0.0
 11
97.3618439005964404
 21
-116.3123982612423504
 31
0.0
  0
LINE
  5
293
100
AcDbEntity
  8
0
 62
8
420
8684676
370
-1
 48
1.0
  6
BYLAYER
100
AcDbLine
 10
97.3618439005964404
 20
-116.3123982612423504
 30
0.0
 11
97.2348439946698164
 21
-116.3123982612423504
 31
0.0
  0
LINE
  5
294
100
AcDbEntity
  8
0
 62
8
420
8684676
370
-1
 48
1.0
  6
BYLAYER
100
AcDbLine
 10
97.2348439946698164
 20
-116.3123982612423504
 30
0.0
 11
97.2348439946698164
 21
-116.3860582066797917
 31
0.0
  0
LINE
  5
295
100
AcDbEntity
  8
0
 62
8
420
8684676
370
-1
 48
1.0
  6
BYLAYER
100
AcDbLine
 10
97.1967440228918349
 20
-116.1447583854192089
 30
0.0
 11
97.1967440228918349
 21
-116.0177584794925849
 31
0.0
  0
LINE
  5
296
100
AcDbEntity
  8
0
 62
8
420
8684676
370
-1
 48
1.0
  6
BYLAYER
100
AcDbLine
 10
97.399943872374422
 20
-115.9618785208848664
 30
0.0
 11
97.399943872374422
 21
-116.1447583854192089
 31
0.0
  0
LINE
  5
297
100
AcDbEntity
  8
0
 62
8
420
8684676
370
-1
 48
1.0
  6
BYLAYER
100
AcDbLine
 10
97.399943872374422
 20
-116.1447583854192089
 30
0.0
 11
97.0138641583574923
 21
-116.1447583854192089
 31
0.0
  0
LINE
  5
298
100
AcDbEntity
  8
0
 62
8
420
8684676
370
-1
 48
1.0
  6
BYLAYER
100
AcDbLine
 10
97.0138641583574923
 20
-116.1447583854192089
 30
0.0
 11
97.0138641583574923
 21
-115.9618785208848664
 31
0.0
  0
LINE
  5
299
100
AcDbEntity
  8
0
 62
52
420
12763648
370
-1
 48
1.0
  6
BYLAYER
100
AcDbLine
 10
131.1971588375672866
 20
-105.9212659583260745
 30
0.0
 11
99.4471823559115791
 21
-105.9212659583260745
 31
0.0
  0
ARC
  5
29A
100
AcDbEntity
  8
0
 62
52
420
12763648
370
-1
 48
1.0
  6
BYLAYER
100
AcDbCircle
 10
99.4481983551589792
 20
-108.4612640768585266
 30
0.0
 40
2.5399981185324556
100
AcDbArc
 50
90.0000000000000142
 51
180.0
  0
LINE
  5
29B
100
AcDbEntity
  8
0
 62
52
420
12763648
370
-1
 48
1.0
  6
BYLAYER
100
AcDbLine
 10
96.907184237379127
 20
-108.4612640768585266
 30
0.0
 11
96.907184237379127
 21
-113.2872605020701968
 31
0.0
  0
LINE
  5
29C
100
AcDbEntity
  8
0
 62
52
420
12763648
370
-1
 48
1.0
  6
BYLAYER
100
AcDbLine
 10
96.907184237379127
 20
-113.2872605020701968
 30
0.0
 11
97.1611840492323751
 21
-113.5412603139234449
 31
0.0
  0
LINE
  5
29D
100
AcDbEntity
  8
0
 62
52
420
12763648
370
-1
 48
1.0
  6
BYLAYER
100
AcDbLine
 10
97.1611840492323751
 20
-113.5412603139234449
 30
0.0
 11
97.1611840492323751
 21
-121.161254669520801
 31
0.0
  0
LINE
  5
29E
100
AcDbEntity
  8
0
 62
52
420
12763648
370
-1
 48
1.0
  6
BYLAYER
100
AcDbLine
 10
97.1611840492323751
 20
-121.161254669520801
 30
0.0
 11
96.907184237379127
 21
-121.4152544813740491
 31
0.0
  0
LINE
  5
29F
100
AcDbEntity
  8
0
 62
52
420
12763648
370
-1
 48
1.0
  6
BYLAYER
100
AcDbLine
 10
96.907184237379127
 20
-121.4152544813740491
 30
0.0
 11
96.907184237379127
 21
-126.2412509065857193
 31
0.0
  0
ARC
  5
2A0
100
AcDbEntity
  8
0
 62
52
420
12763648
370
-1
 48
1.0
  6
BYLAYER
100
AcDbCircle
 10
99.4481983551589792
 20
-126.2412509065857193
 30
0.0
 40
2.5399981185324556
100
AcDbArc
 50
180.0
 51
270.0
  0
LINE
  5
2A1
100
AcDbEntity
  8
0
 62
52
420
12763648
370
-1
 48
1.0
  6
BYLAYER
100
AcDbLine
 10
99.4471823559115791
 20
-128.7812490251181714
 30
0.0
 11
131.1971588375672866
 21
-128.7812490251181714
 31
0.0
  0
ARC
  5
2A2
100
AcDbEntity
  8
0
 62
52
420
12763648
370
-1
 48
1.0
  6
BYLAYER
100
AcDbCircle
 10
130.8171746042915231
 20
-126.6222502640452774
 30
0.0
 40
2.1923587360414065
100
AcDbArc
 50
280.0079914127147163
 51
10.0079681901679027
  0
LINE
  5
2A3
100
AcDbEntity
  8
0
 62
52
420
12763648
370
-1
 48
1.0
  6
BYLAYER
100
AcDbLine
 10
132.9751575205399945
 20
-126.2412509065857193
 30
0.0
 11
132.9751575205399945
 21
-108.4612640768585266
 31
0.0
  0
ARC
  5
2A4
100
AcDbEntity
  8
0
 62
52
420
12763648
370
-1
 48
1.0
  6
BYLAYER
100
AcDbCircle
 10
130.8171746042915231
 20
-108.0802647193989685
 30
0.0
 40
2.1923587360414065
100
AcDbArc
 50
349.992031809832099
 51
79.9920085872852695
  0
LINE
  5
2A5
100
AcDbEntity
  8
0
 62
52
420
12763648
370
-1
 48
1.0
  6
BYLAYER
100
AcDbLine
 10
99.0255426682352038
 20
-120.6507150476957833
 30
0.0
 11
99.6249822242088641
 21
-120.6507150476957833
 31
0.0
  0
ARC
  5
2A6
100
AcDbEntity
  8
0
 62
52
420
12763648
370
-1
 48
1.0
  6
BYLAYER
100
AcDbCircle
 10
99.6011869292195939
 20
-120.9262164309323282
 30
0.0
 40
0.2761333554581372
100
AcDbArc
 50
354.8096432891755967
 51
84.7919543710498402
  0
ARC
  5
2A7
100
AcDbEntity
  8
0
 62
52
420
12763648
370
-1
 48
1.0
  6
BYLAYER
100
AcDbCircle
 10
99.6011869292195939
 20
-120.9761772193040343
 30
0.0
 40
0.2761333554581372
100
AcDbArc
 50
275.208045628950174
 51
5.190356710824318
  0
LINE
  5
2A8
100
AcDbEntity
  8
0
 62
52
420
12763648
370
-1
 48
1.0
  6
BYLAYER
100
AcDbLine
 10
99.6249822242088641
 20
-121.2501546036694435
 30
0.0
 11
99.0255426682352038
 21
-121.2501546036694435
 31
0.0
  0
ARC
  5
2A9
100
AcDbEntity
  8
0
 62
52
420
12763648
370
-1
 48
1.0
  6
BYLAYER
100
AcDbCircle
 10
99.05136996171926
 20
-120.9262164309322998
 30
0.0
 40
0.2761333554581372
100
AcDbArc
 50
95.208045628942557
 51
185.190356710824318
  0
ARC
  5
2AA
100
AcDbEntity
  8
0
 62
52
420
12763648
370
-1
 48
1.0
  6
BYLAYER
100
AcDbCircle
 10
99.05136996171926
 20
-120.9761772193040343
 30
0.0
 40
0.2761333554581372
100
AcDbArc
 50
174.8096432891757672
 51
264.791954371057443
  0
LINE
  5
2AB
100
AcDbEntity
  8
0
 62
52
420
12763648
370
-1
 48
1.0
  6
BYLAYER
100
AcDbLine
 10
99.0255426682352038
 20
-113.4498203816562665
 30
0.0
 11
99.6249822242088641
 21
-113.4498203816562665
 31
0.0
  0
ARC
  5
2AC
100
AcDbEntity
  8
0
 62
52
420
12763648
370
-1
 48
1.0
  6
BYLAYER
100
AcDbCircle
 10
99.05136996171926
 20
-113.7263377641402116
 30
0.0
 40
0.2761333554581372
100
AcDbArc
 50
95.208045628942557
 51
185.190356710824318
  0
ARC
  5
2AD
100
AcDbEntity
  8
0
 62
52
420
12763648
370
-1
 48
1.0
  6
BYLAYER
100
AcDbCircle
 10
99.05136996171926
 20
-113.7762985525119177
 30
0.0
 40
0.2761333554581372
100
AcDbArc
 50
174.8096432891757672
 51
264.791954371057443
  0
LINE
  5
2AE
100
AcDbEntity
  8
0
 62
52
420
12763648
370
-1
 48
1.0
  6
BYLAYER
100
AcDbLine
 10
99.6249822242088641
 20
-114.0492599376299268
 30
0.0
 11
99.0255426682352038
 21
-114.0492599376299268
 31
0.0
  0
ARC
  5
2AF
100
AcDbEntity
  8
0
 62
52
420
12763648
370
-1
 48
1.0
  6
BYLAYER
100
AcDbCircle
 10
99.6011869292195939
 20
-113.7762985525119461
 30
0.0
 40
0.2761333554581372
100
AcDbArc
 50
275.208045628950174
 51
5.190356710824318
  0
ARC
  5
2B0
100
AcDbEntity
  8
0
 62
52
420
12763648
370
-1
 48
1.0
  6
BYLAYER
100
AcDbCircle
 10
99.6011869292195939
 20
-113.7263377641402116
 30
0.0
 40
0.2761333554581372
100
AcDbArc
 50
354.8096432891755967
 51
84.7919543710498402
  0
CIRCLE
  5
2B1
100
AcDbEntity
  8
0
 62
54
420
8684544
370
-1
 48
1.0
  6
BYLAYER
100
AcDbCircle
 10
71.6194569989040559
 20
-109.0452993062427112
 30
0.0
 40
1.6507981679946984
  0
CIRCLE
  5
2B2
100
AcDbEntity
  8
0
 62
54
420
8684544
370
-1
 48
1.0
  6
BYLAYER
100
AcDbCircle
 10
91.9394419471637008
 20
-109.0452993062427112
 30
0.0
 40
1.6507981679946984
  0
CIRCLE
  5
2B3
100
AcDbEntity
  8
0
 62
54
420
8684544
370
-1
 48
1.0
  6
BYLAYER
100
AcDbCircle
 10
71.6194569989040559
 20
-138.7632772930724343
 30
0.0
 40
0.9397993038570085
  0
CIRCLE
  5
2B4
100
AcDbEntity
  8
0
 62
54
420
8684544
370
-1
 48
1.0
  6
BYLAYER
100
AcDbCircle
 10
74.159455117436508
 20
-138.7632772930724343
 30
0.0
 40
0.9397993038570085
  0
CIRCLE
  5
2B5
100
AcDbEntity
  8
0
 62
54
420
8684544
370
-1
 48
1.0
  6
BYLAYER
100
AcDbCircle
 10
76.69945323596896
 20
-138.7632772930724343
 30
0.0
 40
0.9397993038570085
  0
CIRCLE
  5
2B6
100
AcDbEntity
  8
0
 62
54
420
8684544
370
-1
 48
1.0
  6
BYLAYER
100
AcDbCircle
 10
79.2394513545014121
 20
-138.7632772930724343
 30
0.0
 40
0.9397993038570085
  0
CIRCLE
  5
2B7
100
AcDbEntity
  8
0
 62
54
420
8684544
370
-1
 48
1.0
  6
BYLAYER
100
AcDbCircle
 10
81.7794494730338783
 20
-138.7632772930724343
 30
0.0
 40
0.9397993038570085
  0
CIRCLE
  5
2B8
100
AcDbEntity
  8
0
 62
54
420
8684544
370
-1
 48
1.0
  6
BYLAYER
100
AcDbCircle
 10
84.3194475915663304
 20
-138.7632772930724343
 30
0.0
 40
0.9397993038570085
  0
CIRCLE
  5
2B9
100
AcDbEntity
  8
0
 62
54
420
8684544
370
-1
 48
1.0
  6
BYLAYER
100
AcDbCircle
 10
86.8594457100987825
 20
-138.7632772930724343
 30
0.0
 40
0.9397993038570085
  0
CIRCLE
  5
2BA
100
AcDbEntity
  8
0
 62
54
420
8684544
370
-1
 48
1.0
  6
BYLAYER
100
AcDbCircle
 10
89.3994438286312345
 20
-138.7632772930724343
 30
0.0
 40
0.9397993038570085
  0
CIRCLE
  5
2BB
100
AcDbEntity
  8
0
 62
54
420
8684544
370
-1
 48
1.0
  6
BYLAYER
100
AcDbCircle
 10
91.9394419471637008
 20
-138.7632772930724343
 30
0.0
 40
0.9397993038570085
  0
CIRCLE
  5
2BC
100
AcDbEntity
  8
0
 62
54
420
8684544
370
-1
 48
1.0
  6
BYLAYER
100
AcDbCircle
 10
71.6194569989040559
 20
-109.0452993062427112
 30
0.0
 40
1.5999982056240489
  0
CIRCLE
  5
2BD
100
AcDbEntity
  8
0
 62
54
420
8684544
370
-1
 48
1.0
  6
BYLAYER
100
AcDbCircle
 10
91.9394419471637008
 20
-109.0452993062427112
 30
0.0
 40
1.5999982056240489
  0
CIRCLE
  5
2BE
100
AcDbEntity
  8
0
 62
54
420
8684544
370
-1
 48
1.0
  6
BYLAYER
100
AcDbCircle
 10
71.6194569989040559
 20
-138.7632772930724343
 30
0.0
 40
0.8889993414863594
  0
CIRCLE
  5
2BF
100
AcDbEntity
  8
0
 62
54
420
8684544
370
-1
 48
1.0
  6
BYLAYER
100
AcDbCircle
 10
74.159455117436508
 20
-138.7632772930724343
 30
0.0
 40
0.8889993414863594
  0
CIRCLE
  5
2C0
100
AcDbEntity
  8
0
 62
54
420
8684544
370
-1
 48
1.0
  6
BYLAYER
100
AcDbCircle
 10
76.69945323596896
 20
-138.7632772930724343
 30
0.0
 40
0.8889993414863594
  0
CIRCLE
  5
2C1
100
AcDbEntity
  8
0
 62
54
420
8684544
370
-1
 48
1.0
  6
BYLAYER
100
AcDbCircle
 10
79.2394513545014121
 20
-138.7632772930724343
 30
0.0
 40
0.8889993414863594
  0
CIRCLE
  5
2C2
100
AcDbEntity
  8
0
 62
54
420
8684544
370
-1
 48
1.0
  6
BYLAYER
100
AcDbCircle
 10
81.7794494730338783
 20
-138.7632772930724343
 30
0.0
 40
0.8889993414863594
  0
CIRCLE
  5
2C3
100
AcDbEntity
  8
0
 62
54
420
8684544
370
-1
 48
1.0
  6
BYLAYER
100
AcDbCircle
 10
84.3194475915663304
 20
-138.7632772930724343
 30
0.0
 40
0.8889993414863594
  0
CIRCLE
  5
2C4
100
AcDbEntity
  8
0
 62
54
420
8684544
370
-1
 48
1.0
  6
BYLAYER
100
AcDbCircle
 10
86.8594457100987825
 20
-138.7632772930724343
 30
0.0
 40
0.8889993414863594
  0
CIRCLE
  5
2C5
100
AcDbEntity
  8
0
 62
54
420
8684544
370
-1
 48
1.0
  6
BYLAYER
100
AcDbCircle
 10
89.3994438286312345
 20
-138.7632772930724343
 30
0.0
 40
0.8889993414863594
  0
CIRCLE
  5
2C6
100
AcDbEntity
  8
0
 62
54
420
8684544
370
-1
 48
1.0
  6
BYLAYER
100
AcDbCircle
 10
91.9394419471637008
 20
-138.7632772930724343
 30
0.0
 40
0.8889993414863594
  0
CIRCLE
  5
2C7
100
AcDbEntity
  8
0
 62
7
420
16777215
370
-1
 48
1.0
  6
BYLAYER
100
AcDbCircle
 10
71.6194569989040559
 20
-109.0452993062427112
 30
0.0
 40
1.2499991394808843
  0
CIRCLE
  5
2C8
100
AcDbEntity
  8
0
 62
7
420
16777215
370
-1
 48
1.0
  6
BYLAYER
100
AcDbCircle
 10
91.9394419471637008
 20
-109.0452993062427112
 30
0.0
 40
1.2499991394808843
  0
CIRCLE
  5
2C9
100
AcDbEntity
  8
0
 62
7
420
16777215
370
-1
 48
1.0
  6
BYLAYER
100
AcDbCircle
 10
71.6194569989040559
 20
-138.7632772930724343
 30
0.0
 40
0.4999986550330999
  0
CIRCLE
  5
2CA
100
AcDbEntity
  8
0
 62
7
420
16777215
370
-1
 48
1.0
  6
BYLAYER
100
AcDbCircle
 10
74.159455117436508
 20
-138.7632772930724343
 30
0.0
 40
0.4999986550330999
  0
CIRCLE
  5
2CB
100
AcDbEntity
  8
0
 62
7
420
16777215
370
-1
 48
1.0
  6
BYLAYER
100
AcDbCircle
 10
76.69945323596896
 20
-138.7632772930724343
 30
0.0
 40
0.4999986550330999
  0
CIRCLE
  5
2CC
100
AcDbEntity
  8
0
 62
7
420
16777215
370
-1
 48
1.0
  6
BYLAYER
100
AcDbCircle
 10
79.2394513545014121
 20
-138.7632772930724343
 30
0.0
 40
0.4999986550330999
  0
CIRCLE
  5
2CD
100
AcDbEntity
  8
0
 62
7
420
16777215
370
-1
 48
1.0
  6
BYLAYER
100
AcDbCircle
 10
81.7794494730338783
 20
-138.7632772930724343
 30
0.0
 40
0.4999986550330999
  0
CIRCLE
  5
2CE
100
AcDbEntity
  8
0
 62
7
420
16777215
370
-1
 48
1.0
  6
BYLAYER
100
AcDbCircle
 10
84.3194475915663304
 20
-138.7632772930724343
 30
0.0
 40
0.4999986550330999
  0
CIRCLE
  5
2CF
100
AcDbEntity
  8
0
 62
7
420
16777215
370
-1
 48
1.0
  6
BYLAYER
100
AcDbCircle
 10
86.8594457100987825
 20
-138.7632772930724343
 30
0.0
 40
0.4999986550330999
  0
CIRCLE
  5
2D0
100
AcDbEntity
  8
0
 62
7
420
16777215
370
-1
 48
1.0
  6
BYLAYER
100
AcDbCircle
 10
89.3994438286312345
 20
-138.7632772930724343
 30
0.0
 40
0.4999986550330999
  0
CIRCLE
  5
2D1
100
AcDbEntity
  8
0
 62
7
420
16777215
370
-1
 48
1.0
  6
BYLAYER
100
AcDbCircle
 10
91.9394419471637008
 20
-138.7632772930724343
 30
0.0
 40
0.4999986550330999
  0
CIRCLE
  5
2D2
100
AcDbEntity
  8
0
 62
54
420
8684544
370
-1
 48
1.0
  6
BYLAYER
100
AcDbCircle
 10
71.6194569989040559
 20
-109.0452993062427112
 30
0.0
 40
1.5999982056240489
  0
CIRCLE
  5
2D3
100
AcDbEntity
  8
0
 62
54
420
8684544
370
-1
 48
1.0
  6
BYLAYER
100
AcDbCircle
 10
91.9394419471637008
 20
-109.0452993062427112
 30
0.0
 40
1.5999982056240489
  0
CIRCLE
  5
2D4
100
AcDbEntity
  8
0
 62
54
420
8684544
370
-1
 48
1.0
  6
BYLAYER
100
AcDbCircle
 10
71.6194569989040559
 20
-138.7632772930724343
 30
0.0
 40
0.8889993414863594
  0
CIRCLE
  5
2D5
100
AcDbEntity
  8
0
 62
54
420
8684544
370
-1
 48
1.0
  6
BYLAYER
100
AcDbCircle
 10
74.159455117436508
 20
-138.7632772930724343
 30
0.0
 40
0.8889993414863594
  0
CIRCLE
  5
2D6
100
AcDbEntity
  8
0
 62
54
420
8684544
370
-1
 48
1.0
  6
BYLAYER
100
AcDbCircle
 10
76.69945323596896
 20
-138.7632772930724343
 30
0.0
 40
0.8889993414863594
  0
CIRCLE
  5
2D7
100
AcDbEntity
  8
0
 62
54
420
8684544
370
-1
 48
1.0
  6
BYLAYER
100
AcDbCircle
 10
79.2394513545014121
 20
-138.7632772930724343
 30
0.0
 40
0.8889993414863594
  0
CIRCLE
  5
2D8
100
AcDbEntity
  8
0
 62
54
420
8684544
370
-1
 48
1.0
  6
BYLAYER
100
AcDbCircle
 10
81.7794494730338783
 20
-138.7632772930724343
 30
0.0
 40
0.8889993414863594
  0
CIRCLE
  5
2D9
100
AcDbEntity
  8
0
 62
54
420
8684544
370
-1
 48
1.0
  6
BYLAYER
100
AcDbCircle
 10
84.3194475915663304
 20
-138.7632772930724343
 30
0.0
 40
0.8889993414863594
  0
CIRCLE
  5
2DA
100
AcDbEntity
  8
0
 62
54
420
8684544
370
-1
 48
1.0
  6
BYLAYER
100
AcDbCircle
 10
86.8594457100987825
 20
-138.7632772930724343
 30
0.0
 40
0.8889993414863594
  0
CIRCLE
  5
2DB
100
AcDbEntity
  8
0
 62
54
420
8684544
370
-1
 48
1.0
  6
BYLAYER
100
AcDbCircle
 10
89.3994438286312345
 20
-138.7632772930724343
 30
0.0
 40
0.8889993414863594
  0
CIRCLE
  5
2DC
100
AcDbEntity
  8
0
 62
54
420
8684544
370
-1
 48
1.0
  6
BYLAYER
100
AcDbCircle
 10
91.9394419471637008
 20
-138.7632772930724343
 30
0.0
 40
0.8889993414863594
  0
CIRCLE
  5
2DD
100
AcDbEntity
  8
0
 62
7
420
16777215
370
-1
 48
1.0
  6
BYLAYER
100
AcDbCircle
 10
71.6194569989040559
 20
-109.0452993062427112
 30
0.0
 40
1.2499991394808843
  0
CIRCLE
  5
2DE
100
AcDbEntity
  8
0
 62
7
420
16777215
370
-1
 48
1.0
  6
BYLAYER
100
AcDbCircle
 10
91.9394419471637008
 20
-109.0452993062427112
 30
0.0
 40
1.2499991394808843
  0
CIRCLE
  5
2DF
100
AcDbEntity
  8
0
 62
7
420
16777215
370
-1
 48
1.0
  6
BYLAYER
100
AcDbCircle
 10
71.6194569989040559
 20
-138.7632772930724343
 30
0.0
 40
0.4999986550330999
  0
CIRCLE
  5
2E0
100
AcDbEntity
  8
0
 62
7
420
16777215
370
-1
 48
1.0
  6
BYLAYER
100
AcDbCircle
 10
74.159455117436508
 20
-138.7632772930724343
 30
0.0
 40
0.4999986550330999
  0
CIRCLE
  5
2E1
100
AcDbEntity
  8
0
 62
7
420
16777215
370
-1
 48
1.0
  6
BYLAYER
100
AcDbCircle
 10
76.69945323596896
 20
-138.7632772930724343
 30
0.0
 40
0.4999986550330999
  0
CIRCLE
  5
2E2
100
AcDbEntity
  8
0
 62
7
420
16777215
370
-1
 48
1.0
  6
BYLAYER
100
AcDbCircle
 10
79.2394513545014121
 20
-138.7632772930724343
 30
0.0
 40
0.4999986550330999
  0
CIRCLE
  5
2E3
100
AcDbEntity
  8
0
 62
7
420
16777215
370
-1
 48
1.0
  6
BYLAYER
100
AcDbCircle
 10
81.7794494730338783
 20
-138.7632772930724343
 30
0.0
 40
0.4999986550330999
  0
CIRCLE
  5
2E4
100
AcDbEntity
  8
0
 62
7
420
16777215
370
-1
 48
1.0
  6
BYLAYER
100
AcDbCircle
 10
84.3194475915663304
 20
-138.7632772930724343
 30
0.0
 40
0.4999986550330999
  0
CIRCLE
  5
2E5
100
AcDbEntity
  8
0
 62
7
420
16777215
370
-1
 48
1.0
  6
BYLAYER
100
AcDbCircle
 10
86.8594457100987825
 20
-138.7632772930724343
 30
0.0
 40
0.4999986550330999
  0
CIRCLE
  5
2E6
100
AcDbEntity
  8
0
 62
7
420
16777215
370
-1
 48
1.0
  6
BYLAYER
100
AcDbCircle
 10
89.3994438286312345
 20
-138.7632772930724343
 30
0.0
 40
0.4999986550330999
  0
CIRCLE
  5
2E7
100
AcDbEntity
  8
0
 62
7
420
16777215
370
-1
 48
1.0
  6
BYLAYER
100
AcDbCircle
 10
91.9394419471637008
 20
-138.7632772930724343
 30
0.0
 40
0.4999986550330999
  0
LINE
  5
2E8
100
AcDbEntity
  8
0
 62
8
420
8684676
370
-1
 48
1.0
  6
BYLAYER
100
AcDbLine
 10
71.873456810757304
 20
-138.5092774812191863
 30
0.0
 11
71.3654571870508079
 21
-138.5092774812191863
 31
0.0
  0
LINE
  5
2E9
100
AcDbEntity
  8
0
 62
8
420
8684676
370
-1
 48
1.0
  6
BYLAYER
100
AcDbLine
 10
71.3654571870508079
 20
-138.5092774812191863
 30
0.0
 11
71.3654571870508079
 21
-139.0172771049256824
 31
0.0
  0
LINE
  5
2EA
100
AcDbEntity
  8
0
 62
8
420
8684676
370
-1
 48
1.0
  6
BYLAYER
100
AcDbLine
 10
71.3654571870508079
 20
-139.0172771049256824
 30
0.0
 11
71.873456810757304
 21
-139.0172771049256824
 31
0.0
  0
LINE
  5
2EB
100
AcDbEntity
  8
0
 62
8
420
8684676
370
-1
 48
1.0
  6
BYLAYER
100
AcDbLine
 10
71.873456810757304
 20
-139.0172771049256824
 30
0.0
 11
71.873456810757304
 21
-138.5092774812191863
 31
0.0
  0
LINE
  5
2EC
100
AcDbEntity
  8
0
 62
8
420
8684676
370
-1
 48
1.0
  6
BYLAYER
100
AcDbLine
 10
92.1934417590169346
 20
-138.5092774812191863
 30
0.0
 11
91.6854421353104527
 21
-138.5092774812191863
 31
0.0
  0
LINE
  5
2ED
100
AcDbEntity
  8
0
 62
8
420
8684676
370
-1
 48
1.0
  6
BYLAYER
100
AcDbLine
 10
91.6854421353104527
 20
-138.5092774812191863
 30
0.0
 11
91.6854421353104527
 21
-139.0172771049256824
 31
0.0
  0
LINE
  5
2EE
100
AcDbEntity
  8
0
 62
8
420
8684676
370
-1
 48
1.0
  6
BYLAYER
100
AcDbLine
 10
91.6854421353104527
 20
-139.0172771049256824
 30
0.0
 11
92.1934417590169346
 21
-139.0172771049256824
 31
0.0
  0
LINE
  5
2EF
100
AcDbEntity
  8
0
 62
8
420
8684676
370
-1
 48
1.0
  6
BYLAYER
100
AcDbLine
 10
92.1934417590169346
 20
-139.0172771049256824
 30
0.0
 11
92.1934417590169346
 21
-138.5092774812191863
 31
0.0
  0
LINE
  5
2F0
100
AcDbEntity
  8
0
 62
8
420
8684676
370
-1
 48
1.0
  6
BYLAYER
100
AcDbLine
 10
89.6534436404844826
 20
-138.5092774812191863
 30
0.0
 11
89.1454440167780007
 21
-138.5092774812191863
 31
0.0
  0
LINE
  5
2F1
100
AcDbEntity
  8
0
 62
8
420
8684676
370
-1
 48
1.0
  6
BYLAYER
100
AcDbLine
 10
89.1454440167780007
 20
-138.5092774812191863
 30
0.0
 11
89.1454440167780007
 21
-139.0172771049256824
 31
0.0
  0
LINE
  5
2F2
100
AcDbEntity
  8
0
 62
8
420
8684676
370
-1
 48
1.0
  6
BYLAYER
100
AcDbLine
 10
89.1454440167780007
 20
-139.0172771049256824
 30
0.0
 11
89.6534436404844826
 21
-139.0172771049256824
 31
0.0
  0
LINE
  5
2F3
100
AcDbEntity
  8
0
 62
8
420
8684676
370
-1
 48
1.0
  6
BYLAYER
100
AcDbLine
 10
89.6534436404844826
 20
-139.0172771049256824
 30
0.0
 11
89.6534436404844826
 21
-138.5092774812191863
 31
0.0
  0
LINE
  5
2F4
100
AcDbEntity
  8
0
 62
8
420
8684676
370
-1
 48
1.0
  6
BYLAYER
100
AcDbLine
 10
87.1134455219520305
 20
-138.5092774812191863
 30
0.0
 11
86.6054458982455344
 21
-138.5092774812191863
 31
0.0
  0
LINE
  5
2F5
100
AcDbEntity
  8
0
 62
8
420
8684676
370
-1
 48
1.0
  6
BYLAYER
100
AcDbLine
 10
86.6054458982455344
 20
-138.5092774812191863
 30
0.0
 11
86.6054458982455344
 21
-139.0172771049256824
 31
0.0
  0
LINE
  5
2F6
100
AcDbEntity
  8
0
 62
8
420
8684676
370
-1
 48
1.0
  6
BYLAYER
100
AcDbLine
 10
86.6054458982455344
 20
-139.0172771049256824
 30
0.0
 11
87.1134455219520305
 21
-139.0172771049256824
 31
0.0
  0
LINE
  5
2F7
100
AcDbEntity
  8
0
 62
8
420
8684676
370
-1
 48
1.0
  6
BYLAYER
100
AcDbLine
 10
87.1134455219520305
 20
-139.0172771049256824
 30
0.0
 11
87.1134455219520305
 21
-138.5092774812191863
 31
0.0
  0
LINE
  5
2F8
100
AcDbEntity
  8
0
 62
8
420
8684676
370
-1
 48
1.0
  6
BYLAYER
100
AcDbLine
 10
84.5734474034195784
 20
-138.5092774812191863
 30
0.0
 11
84.0654477797130824
 21
-138.5092774812191863
 31
0.0
  0
LINE
  5
2F9
100
AcDbEntity
  8
0
 62
8
420
8684676
370
-1
 48
1.0
  6
BYLAYER
100
AcDbLine
 10
84.0654477797130824
 20
-138.5092774812191863
 30
0.0
 11
84.0654477797130824
 21
-139.0172771049256824
 31
0.0
  0
LINE
  5
2FA
100
AcDbEntity
  8
0
 62
8
420
8684676
370
-1
 48
1.0
  6
BYLAYER
100
AcDbLine
 10
84.0654477797130824
 20
-139.0172771049256824
 30
0.0
 11
84.5734474034195784
 21
-139.0172771049256824
 31
0.0
  0
LINE
  5
2FB
100
AcDbEntity
  8
0
 62
8
420
8684676
370
-1
 48
1.0
  6
BYLAYER
100
AcDbLine
 10
84.5734474034195784
 20
-139.0172771049256824
 30
0.0
 11
84.5734474034195784
 21
-138.5092774812191863
 31
0.0
  0
LINE
  5
2FC
100
AcDbEntity
  8
0
 62
8
420
8684676
370
-1
 48
1.0
  6
BYLAYER
100
AcDbLine
 10
82.0334492848871264
 20
-138.5092774812191863
 30
0.0
 11
81.5254496611806303
 21
-138.5092774812191863
 31
0.0
  0
LINE
  5
2FD
100
AcDbEntity
  8
0
 62
8
420
8684676
370
-1
 48
1.0
  6
BYLAYER
100
AcDbLine
 10
81.5254496611806303
 20
-138.5092774812191863
 30
0.0
 11
81.5254496611806303
 21
-139.0172771049256824
 31
0.0
  0
LINE
  5
2FE
100
AcDbEntity
  8
0
 62
8
420
8684676
370
-1
 48
1.0
  6
BYLAYER
100
AcDbLine
 10
81.5254496611806303
 20
-139.0172771049256824
 30
0.0
 11
82.0334492848871264
 21
-139.0172771049256824
 31
0.0
  0
LINE
  5
2FF
100
AcDbEntity
  8
0
 62
8
420
8684676
370
-1
 48
1.0
  6
BYLAYER
100
AcDbLine
 10
82.0334492848871264
 20
-139.0172771049256824
 30
0.0
 11
82.0334492848871264
 21
-138.5092774812191863
 31
0.0
  0
LINE
  5
300
100
AcDbEntity
  8
0
 62
8
420
8684676
370
-1
 48
1.0
  6
BYLAYER
100
AcDbLine
 10
79.4934511663546601
 20
-138.5092774812191863
 30
0.0
 11
78.9854515426481782
 21
-138.5092774812191863
 31
0.0
  0
LINE
  5
301
100
AcDbEntity
  8
0
 62
8
420
8684676
370
-1
 48
1.0
  6
BYLAYER
100
AcDbLine
 10
78.9854515426481782
 20
-138.5092774812191863
 30
0.0
 11
78.9854515426481782
 21
-139.0172771049256824
 31
0.0
  0
LINE
  5
302
100
AcDbEntity
  8
0
 62
8
420
8684676
370
-1
 48
1.0
  6
BYLAYER
100
AcDbLine
 10
78.9854515426481782
 20
-139.0172771049256824
 30
0.0
 11
79.4934511663546601
 21
-139.0172771049256824
 31
0.0
  0
LINE
  5
303
100
AcDbEntity
  8
0
 62
8
420
8684676
370
-1
 48
1.0
  6
BYLAYER
100
AcDbLine
 10
79.4934511663546601
 20
-139.0172771049256824
 30
0.0
 11
79.4934511663546601
 21
-138.5092774812191863
 31
0.0
  0
LINE
  5
304
100
AcDbEntity
  8
0
 62
8
420
8684676
370
-1
 48
1.0
  6
BYLAYER
100
AcDbLine
 10
76.9534530478222081
 20
-138.5092774812191863
 30
0.0
 11
76.445453424115712
 21
-138.5092774812191863
 31
0.0
  0
LINE
  5
305
100
AcDbEntity
  8
0
 62
8
420
8684676
370
-1
 48
1.0
  6
BYLAYER
100
AcDbLine
 10
76.445453424115712
 20
-138.5092774812191863
 30
0.0
 11
76.445453424115712
 21
-139.0172771049256824
 31
0.0
  0
LINE
  5
306
100
AcDbEntity
  8
0
 62
8
420
8684676
370
-1
 48
1.0
  6
BYLAYER
100
AcDbLine
 10
76.445453424115712
 20
-139.0172771049256824
 30
0.0
 11
76.9534530478222081
 21
-139.0172771049256824
 31
0.0
  0
LINE
  5
307
100
AcDbEntity
  8
0
 62
8
420
8684676
370
-1
 48
1.0
  6
BYLAYER
100
AcDbLine
 10
76.9534530478222081
 20
-139.0172771049256824
 30
0.0
 11
76.9534530478222081
 21
-138.5092774812191863
 31
0.0
  0
LINE
  5
308
100
AcDbEntity
  8
0
 62
8
420
8684676
370
-1
 48
1.0
  6
BYLAYER
100
AcDbLine
 10
74.413454929289756
 20
-138.5092774812191863
 30
0.0
 11
73.9054553055832599
 21
-138.5092774812191863
 31
0.0
  0
LINE
  5
309
100
AcDbEntity
  8
0
 62
8
420
8684676
370
-1
 48
1.0
  6
BYLAYER
100
AcDbLine
 10
73.9054553055832599
 20
-138.5092774812191863
 30
0.0
 11
73.9054553055832599
 21
-139.0172771049256824
 31
0.0
  0
LINE
  5
30A
100
AcDbEntity
  8
0
 62
8
420
8684676
370
-1
 48
1.0
  6
BYLAYER
100
AcDbLine
 10
73.9054553055832599
 20
-139.0172771049256824
 30
0.0
 11
74.413454929289756
 21
-139.0172771049256824
 31
0.0
  0
LINE
  5
30B
100
AcDbEntity
  8
0
 62
8
420
8684676
370
-1
 48
1.0
  6
BYLAYER
100
AcDbLine
 10
74.413454929289756
 20
-139.0172771049256824
 30
0.0
 11
74.413454929289756
 21
-138.5092774812191863
 31
0.0
  0
LINE
  5
30C
100
AcDbEntity
  8
0
 62
52
420
12763648
370
-1
 48
1.0
  6
BYLAYER
100
AcDbLine
 10
69.0794588803715897
 20
-138.2552776693659666
 30
0.0
 11
69.0794588803715897
 21
-109.0452993062427112
 31
0.0
  0
ARC
  5
30D
100
AcDbEntity
  8
0
 62
52
420
12763648
370
-1
 48
1.0
  6
BYLAYER
100
AcDbCircle
 10
71.6194569989040559
 20
-109.0452993062427112
 30
0.0
 40
2.5399981185324556
100
AcDbArc
 50
90.0000000000000142
 51
180.0
  0
LINE
  5
30E
100
AcDbEntity
  8
0
 62
52
420
12763648
370
-1
 48
1.0
  6
BYLAYER
100
AcDbLine
 10
71.6194569989040559
 20
-106.5053011877102591
 30
0.0
 11
91.9394419471637008
 21
-106.5053011877102591
 31
0.0
  0
ARC
  5
30F
100
AcDbEntity
  8
0
 62
52
420
12763648
370
-1
 48
1.0
  6
BYLAYER
100
AcDbCircle
 10
91.9394419471637008
 20
-109.0452993062427112
 30
0.0
 40
2.5399981185324556
100
AcDbArc
 50
0.0
 51
90.0000000000000142
  0
LINE
  5
310
100
AcDbEntity
  8
0
 62
52
420
12763648
370
-1
 48
1.0
  6
BYLAYER
100
AcDbLine
 10
94.4794400656961528
 20
-109.0452993062427112
 30
0.0
 11
94.4794400656961528
 21
-138.2552776693659666
 31
0.0
  0
ARC
  5
311
100
AcDbEntity
  8
0
 62
52
420
12763648
370
-1
 48
1.0
  6
BYLAYER
100
AcDbCircle
 10
91.9394419471637008
 20
-138.2552776693659666
 30
0.0
 40
2.5399981185324556
100
AcDbArc
 50
270.0
 51
0.0
  0
LINE
  5
312
100
AcDbEntity
  8
0
 62
52
420
12763648
370
-1
 48
1.0
  6
BYLAYER
100
AcDbLine
 10
91.9394419471637008
 20
-140.7952757878984187
 30
0.0
 11
71.6194569989040559
 21
-140.7952757878984187
 31
0.0
  0
ARC
  5
313
100
AcDbEntity
  8
0
 62
52
420
12763648
370
-1
 48
1.0
  6
BYLAYER
100
AcDbCircle
 10
71.6194569989040559
 20
-138.2552776693659666
 30
0.0
 40
2.5399981185324556
100
AcDbArc
 50
180.0
 51
270.0
  0
LINE
  5
314
100
AcDbEntity
  8
0
 62
52
420
13937152
370
-1
 48
1.0
  6
BYLAYER
100
AcDbLine
 10
30.7508966697098849
 20
-143.8990851627956715
 30
0.0
 11
85.4759409929102674
 21
-143.8990851627956715
 31
0.0
  0
LINE
  5
315
100
AcDbEntity
  8
0
 62
52
420
13937152
370
-1
 48
1.0
  6
BYLAYER
100
AcDbLine
 10
85.4759409929102674
 20
-143.8990851627956715
 30
0.0
 11
85.4759409929102674
 21
-178.6241284207128786
 31
0.0
  0
LINE
  5
316
100
AcDbEntity
  8
0
 62
52
420
13937152
370
-1
 48
1.0
  6
BYLAYER
100
AcDbLine
 10
85.4759409929102674
 20
-178.6241284207128786
 30
0.0
 11
30.7508966697098849
 21
-178.6241284207128786
 31
0.0
  0
LINE
  5
317
100
AcDbEntity
  8
0
 62
52
420
13937152
370
-1
 48
1.0
  6
BYLAYER
100
AcDbLine
 10
30.7508966697098849
 20
-178.6241284207128786
 30
0.0
 11
30.7508966697098849
 21
-143.8990851627956715
 31
0.0
  0
LINE
  5
318
100
AcDbEntity
  8
0
 62
52
420
13937152
370
-1
 48
1.0
  6
BYLAYER
100
AcDbLine
 10
30.7277191868782751
 20
-157.6379553059226737
 30
0.0
 11
34.7963770730777071
 21
-157.6379553059226737
 31
0.0
  0
LINE
  5
319
100
AcDbEntity
  8
0
 62
52
420
13937152
370
-1
 48
1.0
  6
BYLAYER
100
AcDbLine
 10
34.7963770730777071
 20
-157.6379553059226737
 30
0.0
 11
34.7963770730777071
 21
-164.8852526895900326
 31
0.0
  0
LINE
  5
31A
100
AcDbEntity
  8
0
 62
52
420
13937152
370
-1
 48
1.0
  6
BYLAYER
100
AcDbLine
 10
34.7963770730777071
 20
-164.8852526895900326
 30
0.0
 11
30.7277191868782751
 21
-164.8852526895900326
 31
0.0
  0
LINE
  5
31B
100
AcDbEntity
  8
0
 62
52
420
13937152
370
-1
 48
1.0
  6
BYLAYER
100
AcDbLine
 10
30.7277191868782751
 20
-164.8852526895900326
 30
0.0
 11
30.7277191868782751
 21
-157.6379553059226737
 31
0.0
  0
LINE
  5
31C
100
AcDbEntity
  8
0
 62
52
420
13937152
370
-1
 48
1.0
  6
BYLAYER
100
AcDbLine
 10
41.285797946131332
 20
-153.880891688914204
 30
0.0
 11
56.0472202778173312
 21
-153.880891688914204
 31
0.0
  0
LINE
  5
31D
100
AcDbEntity
  8
0
 62
52
420
13937152
370
-1
 48
1.0
  6
BYLAYER
100
AcDbLine
 10
56.0472202778173312
 20
-153.880891688914204
 30
0.0
 11
56.0472202778173312
 21
-168.6423152905992708
 31
0.0
  0
LINE
  5
31E
100
AcDbEntity
  8
0
 62
52
420
13937152
370
-1
 48
1.0
  6
BYLAYER
100
AcDbLine
 10
56.0472202778173312
 20
-168.6423152905992708
 30
0.0
 11
41.285797946131332
 21
-168.6423152905992708
 31
0.0
  0
LINE
  5
31F
100
AcDbEntity
  8
0
 62
52
420
13937152
370
-1
 48
1.0
  6
BYLAYER
100
AcDbLine
 10
41.285797946131332
 20
-168.6423152905992708
 30
0.0
 11
41.285797946131332
 21
-153.880891688914204
 31
0.0
  0
ENDSEC
  0
SECTION
  2
OBJECTS
  0
DICTIONARY
  5
C
100
AcDbDictionary
280
0
281
1
  3
ACAD_GROUP
350
D
  3
ACAD_LAYOUT
350
1A
  3
ACAD_MLINESTYLE
350
17
  3
ACAD_PLOTSETTINGS
350
19
  3
ACAD_PLOTSTYLENAME
350
E
  3
AcDbVariableDictionary
350
320
  3
QCAD_OBJECTS
350
321
  0
DICTIONARY
  5
D
100
AcDbDictionary
280
0
281
1
  0
ACDBDICTIONARYWDFLT
  5
E
100
AcDbDictionary
281
1
  3
Normal
350
F
100
AcDbDictionaryWithDefault
340
F
  0
ACDBPLACEHOLDER
  5
F
  0
DICTIONARY
  5
17
100
AcDbDictionary
280
0
281
1
  3
Standard
350
18
  0
MLINESTYLE
  5
18
100
AcDbMlineStyle
  2
STANDARD
 70
0
  3

 62
256
 51
90.0
 52
90.0
 71
2
 49
0.5
 62
256
  6
BYLAYER
 49
-0.5
 62
256
  6
BYLAYER
  0
DICTIONARY
  5
19
100
AcDbDictionary
280
0
281
1
  0
DICTIONARY
  5
1A
100
AcDbDictionary
281
1
  3
Layout1
350
1E
  3
Layout2
350
26
  3
Model
350
22
  0
LAYOUT
  5
1E
100
AcDbPlotSettings
  1

  2
none_device
  4

  6

 40
0.0
 41
0.0
 42
0.0
 43
0.0
 44
0.0
 45
0.0
 46
0.0
 47
0.0
 48
0.0
 49
0.0
140
0.0
141
0.0
142
1.0
143
1.0
 70
688
 72
0
 73
0
 74
5
  7

 75
16
147
1.0
148
0.0
149
0.0
100
AcDbLayout
  1
Layout1
 70
1
 71
1
 10
0.0
 20
0.0
 11
420.0
 21
297.0
 12
0.0
 22
0.0
 32
0.0
 14
100000000000000000000.0
 24
100000000000000000000.0
 34
100000000000000000000.0
 15
-100000000000000000000.0
 25
-100000000000000000000.0
 35
-100000000000000000000.0
146
0.0
 13
0.0
 23
0.0
 33
0.0
 16
1.0
 26
0.0
 36
0.0
 17
0.0
 27
1.0
 37
0.0
 76
0
330
1B
  0
LAYOUT
  5
22
100
AcDbPlotSettings
  1

  2
none_device
  4

  6

 40
0.0
 41
0.0
 42
0.0
 43
0.0
 44
0.0
 45
0.0
 46
0.0
 47
0.0
 48
0.0
 49
0.0
140
0.0
141
0.0
142
1.0
143
1.0
 70
1712
 72
0
 73
0
 74
0
  7

 75
0
147
1.0
148
0.0
149
0.0
100
AcDbLayout
  1
Model
 70
1
 71
0
 10
0.0
 20
0.0
 11
12.0
 21
9.0
 12
0.0
 22
0.0
 32
0.0
 14
0.0
 24
0.0
 34
0.0
 15
0.0
 25
0.0
 35
0.0
146
0.0
 13
0.0
 23
0.0
 33
0.0
 16
1.0
 26
0.0
 36
0.0
 17
0.0
 27
1.0
 37
0.0
 76
0
330
1F
  0
LAYOUT
  5
26
100
AcDbPlotSettings
  1

  2
none_device
  4

  6

 40
0.0
 41
0.0
 42
0.0
 43
0.0
 44
0.0
 45
0.0
 46
0.0
 47
0.0
 48
0.0
 49
0.0
140
0.0
141
0.0
142
1.0
143
1.0
 70
688
 72
0
 73
0
 74
5
  7

 75
16
147
1.0
148
0.0
149
0.0
100
AcDbLayout
  1
Layout2
 70
1
 71
2
 10
0.0
 20
0.0
 11
12.0
 21
9.0
 12
0.0
 22
0.0
 32
0.0
 14
0.0
 24
0.0
 34
0.0
 15
0.0
 25
0.0
 35
0.0
146
0.0
 13
0.0
 23
0.0
 33
0.0
 16
1.0
 26
0.0
 36
0.0
 17
0.0
 27
1.0
 37
0.0
 76
0
330
23
  0
DICTIONARY
  5
320
100
AcDbDictionary
281
1
  3
DIMASSOC
350
323
  3
HIDETEXT
350
322
  0
DICTIONARYVAR
  5
322
100
DictionaryVariables
280
0
  1
2
  0
DICTIONARYVAR
  5
323
100
DictionaryVariables
280
0
  1
1
  0
DICTIONARY
  5
321
100
AcDbDictionary
281
1
  3
ColorSettings/BackgroundColor
350
324
  3
ColorSettings/ColorMode
350
325
  3
Grid/DisplayGrid00
350
326
  3
Grid/DisplayGrid01
350
327
  3
Grid/DisplayGrid02
350
328
  3
Grid/DisplayGrid03
350
329
  3
Grid/GridSpacingX00
350
32A
  3
Grid/GridSpacingX01
350
32B
  3
Grid/GridSpacingX02
350
32C
  3
Grid/GridSpacingX03
350
32D
  3
Grid/GridSpacingY00
350
32E
  3
Grid/GridSpacingY01
350
32F
  3
Grid/GridSpacingY02
350
330
  3
Grid/GridSpacingY03
350
331
  3
Grid/IsometricGrid00
350
332
  3
Grid/IsometricGrid01
350
333
  3
Grid/IsometricGrid02
350
334
  3
Grid/IsometricGrid03
350
335
  3
Grid/IsometricProjection00
350
336
  3
Grid/IsometricProjection01
350
337
  3
Grid/IsometricProjection02
350
338
  3
Grid/IsometricProjection03
350
339
  3
Grid/MetaGridSpacingX00
350
33A
  3
Grid/MetaGridSpacingX01
350
33B
  3
Grid/MetaGridSpacingX02
350
33C
  3
Grid/MetaGridSpacingX03
350
33D
  3
Grid/MetaGridSpacingY00
350
33E
  3
Grid/MetaGridSpacingY01
350
33F
  3
Grid/MetaGridSpacingY02
350
340
  3
Grid/MetaGridSpacingY03
350
341
  3
MultiPageSettings/Columns
350
342
  3
MultiPageSettings/GlueMarginsBottom
350
343
  3
MultiPageSettings/GlueMarginsLeft
350
344
  3
MultiPageSettings/GlueMarginsRight
350
345
  3
MultiPageSettings/GlueMarginsTop
350
346
  3
MultiPageSettings/PrintCropMarks
350
347
  3
MultiPageSettings/Rows
350
348
  3
PageSettings/OffsetX
350
349
  3
PageSettings/OffsetY
350
34A
  3
PageSettings/PageOrientation
350
34B
  3
PageSettings/PaperHeight
350
34C
  3
PageSettings/PaperWidth
350
34D
  3
PageSettings/Scale
350
34E
  3
PageSettings/ShowPaperBorders
350
34F
  3
QCADVersion
350
350
  3
UnitSettings/PaperUnit
350
351
  3
ViewportCenter
350
352
  3
ViewportHeight
350
353
  3
ViewportWidth
350
354
  0
XRECORD
  5
324
330
321
100
AcDbXrecord
280
1
1000
White
  0
XRECORD
  5
325
330
321
100
AcDbXrecord
280
1
1000
FullColor
  0
XRECORD
  5
326
330
321
100
AcDbXrecord
280
1
290
1
  0
XRECORD
  5
327
330
321
100
AcDbXrecord
280
1
290
1
  0
XRECORD
  5
328
330
321
100
AcDbXrecord
280
1
290
1
  0
XRECORD
  5
329
330
321
100
AcDbXrecord
280
1
290
1
  0
XRECORD
  5
32A
330
321
100
AcDbXrecord
280
1
1000
auto
  0
XRECORD
  5
32B
330
321
100
AcDbXrecord
280
1
1000
auto
  0
XRECORD
  5
32C
330
321
100
AcDbXrecord
280
1
1000
auto
  0
XRECORD
  5
32D
330
321
100
AcDbXrecord
280
1
1000
auto
  0
XRECORD
  5
32E
330
321
100
AcDbXrecord
280
1
1000
auto
  0
XRECORD
  5
32F
330
321
100
AcDbXrecord
280
1
1000
auto
  0
XRECORD
  5
330
330
321
100
AcDbXrecord
280
1
1000
auto
  0
XRECORD
  5
331
330
321
100
AcDbXrecord
280
1
1000
auto
  0
XRECORD
  5
332
330
321
100
AcDbXrecord
280
1
290
0
  0
XRECORD
  5
333
330
321
100
AcDbXrecord
280
1
290
0
  0
XRECORD
  5
334
330
321
100
AcDbXrecord
280
1
290
0
  0
XRECORD
  5
335
330
321
100
AcDbXrecord
280
1
290
0
  0
XRECORD
  5
336
330
321
100
AcDbXrecord
280
1
 90
65537
  0
XRECORD
  5
337
330
321
100
AcDbXrecord
280
1
 90
65537
  0
XRECORD
  5
338
330
321
100
AcDbXrecord
280
1
 90
65537
  0
XRECORD
  5
339
330
321
100
AcDbXrecord
280
1
 90
65537
  0
XRECORD
  5
33A
330
321
100
AcDbXrecord
280
1
1000
auto
  0
XRECORD
  5
33B
330
321
100
AcDbXrecord
280
1
1000
auto
  0
XRECORD
  5
33C
330
321
100
AcDbXrecord
280
1
1000
auto
  0
XRECORD
  5
33D
330
321
100
AcDbXrecord
280
1
1000
auto
  0
XRECORD
  5
33E
330
321
100
AcDbXrecord
280
1
1000
auto
  0
XRECORD
  5
33F
330
321
100
AcDbXrecord
280
1
1000
auto
  0
XRECORD
  5
340
330
321
100
AcDbXrecord
280
1
1000
auto
  0
XRECORD
  5
341
330
321
100
AcDbXrecord
280
1
1000
auto
  0
XRECORD
  5
342
330
321
100
AcDbXrecord
280
1
 90
1
  0
XRECORD
  5
343
330
321
100
AcDbXrecord
280
1
 40
10.0
  0
XRECORD
  5
344
330
321
100
AcDbXrecord
280
1
 40
10.0
  0
XRECORD
  5
345
330
321
100
AcDbXrecord
280
1
 40
10.0
  0
XRECORD
  5
346
330
321
100
AcDbXrecord
280
1
 40
10.0
  0
XRECORD
  5
347
330
321
100
AcDbXrecord
280
1
290
0
  0
XRECORD
  5
348
330
321
100
AcDbXrecord
280
1
 90
1
  0
XRECORD
  5
349
330
321
100
AcDbXrecord
280
1
 40
0.0
  0
XRECORD
  5
34A
330
321
100
AcDbXrecord
280
1
 40
0.0
  0
XRECORD
  5
34B
330
321
100
AcDbXrecord
280
1
1000
Portrait
  0
XRECORD
  5
34C
330
321
100
AcDbXrecord
280
1
 40
297.0
  0
XRECORD
  5
34D
330
321
100
AcDbXrecord
280
1
 40
210.0
  0
XRECORD
  5
34E
330
321
100
AcDbXrecord
280
1
1000
1:1
  0
XRECORD
  5
34F
330
321
100
AcDbXrecord
280
1
290
1
  0
XRECORD
  5
350
330
321
100
AcDbXrecord
280
1
1000
3.20.1.3
  0
XRECORD
  5
351
330
321
100
AcDbXrecord
280
1
 90
4
  0
XRECORD
  5
353
330
321
100
AcDbXrecord
280
1
 40
204.2882075660905912
  0
XRECORD
  5
354
330
321
100
AcDbXrecord
280
1
 40
357.6848298551162202
  0
ENDSEC
  0
EOF
